<svg width="20" height="20" viewBox="0 0 20 20" fill="none" xmlns="http://www.w3.org/2000/svg">
<path d="M9.75 0C7.82164 0 5.93657 0.571828 4.33319 1.64317C2.72982 2.71451 1.48013 4.23726 0.742179 6.01884C0.00422452 7.80042 -0.188858 9.76082 0.187348 11.6521C0.563554 13.5434 1.49215 15.2807 2.85571 16.6443C4.21928 18.0079 5.95656 18.9365 7.84787 19.3127C9.73919 19.6889 11.6996 19.4958 13.4812 18.7578C15.2627 18.0199 16.7855 16.7702 17.8568 15.1668C18.9282 13.5634 19.5 11.6784 19.5 9.75C19.4973 7.16498 18.4692 4.68661 16.6413 2.85872C14.8134 1.03084 12.335 0.00272983 9.75 0ZM9.75 18C8.11831 18 6.52326 17.5161 5.16655 16.6096C3.80984 15.7031 2.75242 14.4146 2.128 12.9071C1.50358 11.3996 1.3402 9.74085 1.65853 8.1405C1.97685 6.54016 2.76259 5.07015 3.91637 3.91637C5.07016 2.76259 6.54017 1.97685 8.14051 1.65852C9.74085 1.34019 11.3997 1.50357 12.9071 2.12799C14.4146 2.75242 15.7031 3.80984 16.6096 5.16655C17.5161 6.52325 18 8.1183 18 9.75C17.9975 11.9373 17.1275 14.0343 15.5809 15.5809C14.0343 17.1275 11.9373 17.9975 9.75 18ZM13.9144 4.57875L7.91438 7.57875C7.76932 7.65162 7.65162 7.76932 7.57875 7.91437L4.57875 13.9144C4.52151 14.0288 4.49448 14.1559 4.50022 14.2837C4.50596 14.4114 4.54429 14.5356 4.61156 14.6444C4.67882 14.7532 4.7728 14.843 4.88454 14.9052C4.99629 14.9675 5.1221 15.0001 5.25 15C5.36644 14.9998 5.48127 14.9729 5.58563 14.9213L11.5856 11.9213C11.7307 11.8484 11.8484 11.7307 11.9213 11.5856L14.9213 5.58563C14.992 5.44475 15.0166 5.28515 14.9915 5.1295C14.9664 4.97385 14.8929 4.83007 14.7814 4.71859C14.6699 4.60711 14.5262 4.5336 14.3705 4.50849C14.2149 4.48339 14.0553 4.50797 13.9144 4.57875ZM10.6875 10.6875L6.92719 12.5728L8.8125 8.8125L12.5766 6.93094L10.6875 10.6875Z" fill="black"/>
</svg>
