<svg width="185" height="152" viewBox="0 0 185 152" fill="none" xmlns="http://www.w3.org/2000/svg">
<rect x="0.5" y="0.5" width="184" height="151" rx="12.3" fill="white"/>
<rect x="0.5" y="0.5" width="184" height="151" rx="12.3" stroke="#F1F1F1"/>
<path d="M34.9531 22V13.8516H38.0812C38.6682 13.8516 39.1568 13.9445 39.5469 14.1305C39.937 14.3128 40.2286 14.5643 40.4219 14.8852C40.6151 15.2023 40.7117 15.5615 40.7117 15.9625C40.7117 16.2943 40.6479 16.5786 40.5203 16.8156C40.3964 17.049 40.2268 17.2385 40.0117 17.3844C39.7966 17.5302 39.556 17.6359 39.2898 17.7016V17.7836C39.5815 17.7945 39.8586 17.882 40.1211 18.0461C40.3872 18.2065 40.6042 18.4326 40.7719 18.7242C40.9432 19.0159 41.0289 19.3677 41.0289 19.7797C41.0289 20.2026 40.9268 20.5818 40.7227 20.9172C40.5221 21.249 40.2159 21.5133 39.8039 21.7102C39.3956 21.9034 38.8797 22 38.2562 22H34.9531ZM36.4297 20.7695H38.0156C38.5516 20.7695 38.938 20.6656 39.175 20.4578C39.4156 20.25 39.5359 19.9857 39.5359 19.6648C39.5359 19.4206 39.4758 19.2018 39.3555 19.0086C39.2352 18.8154 39.0638 18.6622 38.8414 18.5492C38.6227 18.4362 38.3638 18.3797 38.0648 18.3797H36.4297V20.7695ZM36.4297 17.3188H37.8953C38.1469 17.3188 38.3747 17.2714 38.5789 17.1766C38.7831 17.0818 38.9435 16.9487 39.0602 16.7773C39.1805 16.6023 39.2406 16.3964 39.2406 16.1594C39.2406 15.8458 39.1294 15.587 38.907 15.3828C38.6846 15.175 38.3583 15.0711 37.9281 15.0711H36.4297V17.3188ZM44.5453 22.1203C43.9328 22.1203 43.4042 21.9927 42.9594 21.7375C42.5146 21.4786 42.1719 21.1141 41.9313 20.6438C41.6943 20.1734 41.5758 19.6193 41.5758 18.9813C41.5758 18.3505 41.6943 17.7982 41.9313 17.3242C42.1682 16.8466 42.5018 16.4747 42.932 16.2086C43.3622 15.9424 43.869 15.8094 44.4523 15.8094C44.8279 15.8094 45.1833 15.8695 45.5188 15.9898C45.8578 16.1102 46.1568 16.2961 46.4156 16.5477C46.6781 16.7992 46.8841 17.1201 47.0336 17.5102C47.1831 17.8966 47.2578 18.3578 47.2578 18.8938V19.3422H42.2484V18.3742H46.5414L45.8688 18.6586C45.8688 18.3122 45.8159 18.0115 45.7102 17.7563C45.6044 17.4974 45.4477 17.2951 45.2398 17.1492C45.032 17.0034 44.7732 16.9305 44.4633 16.9305C44.1534 16.9305 43.8891 17.0034 43.6703 17.1492C43.4516 17.2951 43.2857 17.4919 43.1727 17.7398C43.0596 17.9841 43.0031 18.2576 43.0031 18.5602V19.2328C43.0031 19.6047 43.0669 19.9237 43.1945 20.1898C43.3258 20.4523 43.5081 20.6529 43.7414 20.7914C43.9784 20.9299 44.2536 20.9992 44.5672 20.9992C44.7714 20.9992 44.9573 20.9701 45.125 20.9117C45.2964 20.8534 45.4422 20.7659 45.5625 20.6492C45.6865 20.5289 45.7813 20.3813 45.8469 20.2063L47.1922 20.3648C47.1047 20.7185 46.9424 21.0284 46.7055 21.2945C46.4721 21.557 46.1714 21.7612 45.8031 21.907C45.4385 22.0492 45.0193 22.1203 44.5453 22.1203ZM51.0859 15.8859V17.0016H47.5805V15.8859H51.0859ZM48.4391 14.4313H49.8773V20.1625C49.8773 20.4031 49.9302 20.5818 50.0359 20.6984C50.1417 20.8115 50.3094 20.868 50.5391 20.868C50.601 20.868 50.6703 20.8625 50.7469 20.8516C50.8234 20.8406 50.8927 20.8279 50.9547 20.8133L51.2008 21.9398C51.0477 21.9872 50.8927 22.0219 50.7359 22.0437C50.5792 22.0693 50.4224 22.082 50.2656 22.082C49.6969 22.082 49.2503 21.9326 48.9258 21.6336C48.6013 21.331 48.4391 20.919 48.4391 20.3977V14.4313ZM54.925 15.8859V17.0016H51.4195V15.8859H54.925ZM52.2781 14.4313H53.7164V20.1625C53.7164 20.4031 53.7693 20.5818 53.875 20.6984C53.9807 20.8115 54.1484 20.868 54.3781 20.868C54.4401 20.868 54.5094 20.8625 54.5859 20.8516C54.6625 20.8406 54.7318 20.8279 54.7938 20.8133L55.0398 21.9398C54.8867 21.9872 54.7318 22.0219 54.575 22.0437C54.4182 22.0693 54.2615 22.082 54.1047 22.082C53.5359 22.082 53.0893 21.9326 52.7648 21.6336C52.4404 21.331 52.2781 20.919 52.2781 20.3977V14.4313ZM58.3594 22.1203C57.7469 22.1203 57.2182 21.9927 56.7734 21.7375C56.3286 21.4786 55.9859 21.1141 55.7453 20.6438C55.5083 20.1734 55.3898 19.6193 55.3898 18.9813C55.3898 18.3505 55.5083 17.7982 55.7453 17.3242C55.9823 16.8466 56.3159 16.4747 56.7461 16.2086C57.1763 15.9424 57.6831 15.8094 58.2664 15.8094C58.6419 15.8094 58.9974 15.8695 59.3328 15.9898C59.6719 16.1102 59.9708 16.2961 60.2297 16.5477C60.4922 16.7992 60.6982 17.1201 60.8477 17.5102C60.9971 17.8966 61.0719 18.3578 61.0719 18.8938V19.3422H56.0625V18.3742H60.3555L59.6828 18.6586C59.6828 18.3122 59.6299 18.0115 59.5242 17.7563C59.4185 17.4974 59.2617 17.2951 59.0539 17.1492C58.8461 17.0034 58.5872 16.9305 58.2773 16.9305C57.9674 16.9305 57.7031 17.0034 57.4844 17.1492C57.2656 17.2951 57.0997 17.4919 56.9867 17.7398C56.8737 17.9841 56.8172 18.2576 56.8172 18.5602V19.2328C56.8172 19.6047 56.881 19.9237 57.0086 20.1898C57.1398 20.4523 57.3221 20.6529 57.5555 20.7914C57.7924 20.9299 58.0677 20.9992 58.3813 20.9992C58.5854 20.9992 58.7714 20.9701 58.9391 20.9117C59.1104 20.8534 59.2563 20.7659 59.3766 20.6492C59.5005 20.5289 59.5953 20.3813 59.6609 20.2063L61.0063 20.3648C60.9188 20.7185 60.7565 21.0284 60.5195 21.2945C60.2862 21.557 59.9854 21.7612 59.6172 21.907C59.2526 22.0492 58.8333 22.1203 58.3594 22.1203ZM61.8539 22V15.8859H63.2484V16.9141H63.3141C63.4234 16.5568 63.6148 16.2833 63.8883 16.0938C64.1617 15.9005 64.4734 15.8039 64.8234 15.8039C64.9 15.8039 64.9875 15.8076 65.0859 15.8148C65.188 15.8221 65.2719 15.8313 65.3375 15.8422V17.1656C65.2755 17.1438 65.1789 17.1255 65.0477 17.1109C64.9164 17.0964 64.7906 17.0891 64.6703 17.0891C64.4042 17.0891 64.1672 17.1456 63.9594 17.2586C63.7516 17.3716 63.5875 17.5266 63.4672 17.7234C63.3505 17.9203 63.2922 18.15 63.2922 18.4125V22H61.8539ZM68.2414 22V15.8859H69.6141V16.9305H69.6906C69.8182 16.5805 70.0297 16.307 70.325 16.1102C70.6203 15.9096 70.9703 15.8094 71.375 15.8094C71.7906 15.8094 72.1406 15.9096 72.425 16.1102C72.7094 16.3107 72.9081 16.5841 73.0211 16.9305H73.0867C73.2253 16.5914 73.4549 16.3198 73.7758 16.1156C74.0966 15.9115 74.4794 15.8094 74.9242 15.8094C75.4857 15.8094 75.9432 15.988 76.2969 16.3453C76.6542 16.699 76.8328 17.2167 76.8328 17.8984V22H75.3891V18.1172C75.3891 17.7417 75.287 17.4664 75.0828 17.2914C74.8823 17.1128 74.6362 17.0234 74.3445 17.0234C73.9982 17.0234 73.7284 17.1328 73.5352 17.3516C73.3419 17.5667 73.2453 17.8438 73.2453 18.1828V22H71.8234V18.0625C71.8234 17.7453 71.7305 17.4938 71.5445 17.3078C71.3586 17.1182 71.1125 17.0234 70.8062 17.0234C70.5984 17.0234 70.4089 17.0763 70.2375 17.182C70.0661 17.2878 69.9294 17.4354 69.8273 17.625C69.7289 17.8146 69.6797 18.0333 69.6797 18.2813V22H68.2414ZM80.6062 22.1203C79.9937 22.1203 79.4651 21.9927 79.0203 21.7375C78.5755 21.4786 78.2328 21.1141 77.9922 20.6438C77.7552 20.1734 77.6367 19.6193 77.6367 18.9813C77.6367 18.3505 77.7552 17.7982 77.9922 17.3242C78.2292 16.8466 78.5628 16.4747 78.993 16.2086C79.4232 15.9424 79.9299 15.8094 80.5133 15.8094C80.8888 15.8094 81.2443 15.8695 81.5797 15.9898C81.9187 16.1102 82.2177 16.2961 82.4766 16.5477C82.7391 16.7992 82.945 17.1201 83.0945 17.5102C83.244 17.8966 83.3187 18.3578 83.3187 18.8938V19.3422H78.3094V18.3742H82.6023L81.9297 18.6586C81.9297 18.3122 81.8768 18.0115 81.7711 17.7563C81.6654 17.4974 81.5086 17.2951 81.3008 17.1492C81.093 17.0034 80.8341 16.9305 80.5242 16.9305C80.2143 16.9305 79.95 17.0034 79.7312 17.1492C79.5125 17.2951 79.3466 17.4919 79.2336 17.7398C79.1206 17.9841 79.0641 18.2576 79.0641 18.5602V19.2328C79.0641 19.6047 79.1279 19.9237 79.2555 20.1898C79.3867 20.4523 79.569 20.6529 79.8023 20.7914C80.0393 20.9299 80.3146 20.9992 80.6281 20.9992C80.8323 20.9992 81.0182 20.9701 81.1859 20.9117C81.3573 20.8534 81.5031 20.7659 81.6234 20.6492C81.7474 20.5289 81.8422 20.3813 81.9078 20.2063L83.2531 20.3648C83.1656 20.7185 83.0034 21.0284 82.7664 21.2945C82.5331 21.557 82.2323 21.7612 81.8641 21.907C81.4995 22.0492 81.0802 22.1203 80.6062 22.1203ZM86.8078 22.1203C86.1953 22.1203 85.6667 21.9927 85.2219 21.7375C84.7771 21.4786 84.4344 21.1141 84.1937 20.6438C83.9568 20.1734 83.8383 19.6193 83.8383 18.9813C83.8383 18.3505 83.9568 17.7982 84.1937 17.3242C84.4307 16.8466 84.7643 16.4747 85.1945 16.2086C85.6247 15.9424 86.1315 15.8094 86.7148 15.8094C87.0904 15.8094 87.4458 15.8695 87.7812 15.9898C88.1203 16.1102 88.4193 16.2961 88.6781 16.5477C88.9406 16.7992 89.1466 17.1201 89.2961 17.5102C89.4456 17.8966 89.5203 18.3578 89.5203 18.8938V19.3422H84.5109V18.3742H88.8039L88.1312 18.6586C88.1312 18.3122 88.0784 18.0115 87.9727 17.7563C87.8669 17.4974 87.7102 17.2951 87.5023 17.1492C87.2945 17.0034 87.0357 16.9305 86.7258 16.9305C86.4159 16.9305 86.1516 17.0034 85.9328 17.1492C85.7141 17.2951 85.5482 17.4919 85.4352 17.7398C85.3221 17.9841 85.2656 18.2576 85.2656 18.5602V19.2328C85.2656 19.6047 85.3294 19.9237 85.457 20.1898C85.5883 20.4523 85.7706 20.6529 86.0039 20.7914C86.2409 20.9299 86.5161 20.9992 86.8297 20.9992C87.0339 20.9992 87.2198 20.9701 87.3875 20.9117C87.5589 20.8534 87.7047 20.7659 87.825 20.6492C87.949 20.5289 88.0437 20.3813 88.1094 20.2063L89.4547 20.3648C89.3672 20.7185 89.2049 21.0284 88.968 21.2945C88.7346 21.557 88.4339 21.7612 88.0656 21.907C87.701 22.0492 87.2818 22.1203 86.8078 22.1203ZM93.3484 15.8859V17.0016H89.843V15.8859H93.3484ZM90.7016 14.4313H92.1398V20.1625C92.1398 20.4031 92.1927 20.5818 92.2984 20.6984C92.4042 20.8115 92.5719 20.868 92.8016 20.868C92.8635 20.868 92.9328 20.8625 93.0094 20.8516C93.0859 20.8406 93.1552 20.8279 93.2172 20.8133L93.4633 21.9398C93.3102 21.9872 93.1552 22.0219 92.9984 22.0437C92.8417 22.0693 92.6849 22.082 92.5281 22.082C91.9594 22.082 91.5128 21.9326 91.1883 21.6336C90.8638 21.331 90.7016 20.919 90.7016 20.3977V14.4313ZM94.1414 22V15.8859H95.5797V22H94.1414ZM94.8633 15.0273C94.6336 15.0273 94.4367 14.9508 94.2727 14.7977C94.1086 14.6445 94.0266 14.4604 94.0266 14.2453C94.0266 14.0266 94.1086 13.8406 94.2727 13.6875C94.4367 13.5344 94.6336 13.4578 94.8633 13.4578C95.0893 13.4578 95.2844 13.5344 95.4484 13.6875C95.6125 13.8406 95.6945 14.0247 95.6945 14.2398C95.6945 14.4586 95.6125 14.6445 95.4484 14.7977C95.2844 14.9508 95.0893 15.0273 94.8633 15.0273ZM98.0844 18.4234V22H96.6461V15.8859H98.057V16.9305H98.1281C98.2667 16.5878 98.4836 16.3161 98.7789 16.1156C99.0779 15.9115 99.457 15.8094 99.9164 15.8094C100.339 15.8094 100.708 15.8987 101.021 16.0773C101.335 16.256 101.577 16.5185 101.748 16.8648C101.923 17.2076 102.011 17.6232 102.011 18.1117V22H100.573V18.3359C100.573 17.9276 100.467 17.6086 100.255 17.3789C100.044 17.1456 99.7523 17.0289 99.3805 17.0289C99.1289 17.0289 98.9047 17.0836 98.7078 17.193C98.5146 17.3023 98.3615 17.4609 98.2484 17.6688C98.1391 17.8729 98.0844 18.1245 98.0844 18.4234ZM105.724 24.4172C104.948 24.4172 104.337 24.2659 103.892 23.9633C103.447 23.6643 103.161 23.3016 103.034 22.875L104.324 22.5578C104.383 22.6781 104.468 22.7966 104.581 22.9133C104.694 23.0336 104.846 23.132 105.035 23.2086C105.225 23.2888 105.464 23.3289 105.752 23.3289C106.16 23.3289 106.497 23.2286 106.763 23.0281C107.033 22.8312 107.168 22.5086 107.168 22.0602V20.9063H107.086C107.017 21.0521 106.911 21.2034 106.769 21.3602C106.627 21.5133 106.439 21.6445 106.205 21.7539C105.976 21.8596 105.684 21.9125 105.33 21.9125C104.864 21.9125 104.439 21.8013 104.056 21.5789C103.677 21.3565 103.374 21.0247 103.148 20.5836C102.926 20.1424 102.815 19.5901 102.815 18.9266C102.815 18.2557 102.926 17.6888 103.148 17.2258C103.374 16.7628 103.679 16.4109 104.062 16.1703C104.445 15.9297 104.871 15.8094 105.341 15.8094C105.699 15.8094 105.994 15.8695 106.227 15.9898C106.461 16.1102 106.647 16.256 106.785 16.4273C106.924 16.5951 107.031 16.7518 107.108 16.8977H107.184V15.8859H108.59V22.0984C108.59 22.6198 108.466 23.0518 108.218 23.3945C107.97 23.7372 107.629 23.9924 107.195 24.1602C106.765 24.3315 106.275 24.4172 105.724 24.4172ZM105.735 20.7805C106.195 20.7805 106.548 20.6164 106.796 20.2883C107.048 19.9565 107.173 19.499 107.173 18.9156C107.173 18.5292 107.119 18.1919 107.009 17.9039C106.9 17.6159 106.738 17.3917 106.523 17.2313C106.308 17.0708 106.045 16.9906 105.735 16.9906C105.414 16.9906 105.146 17.0745 104.931 17.2422C104.716 17.4099 104.554 17.6396 104.445 17.9313C104.339 18.2193 104.286 18.5474 104.286 18.9156C104.286 19.2875 104.341 19.6138 104.45 19.8945C104.559 20.1753 104.722 20.394 104.937 20.5508C105.155 20.7039 105.422 20.7805 105.735 20.7805ZM114.474 17.5102L113.167 17.6469C113.112 17.4464 112.994 17.2695 112.812 17.1164C112.629 16.9596 112.372 16.8813 112.041 16.8813C111.742 16.8813 111.49 16.9469 111.286 17.0781C111.085 17.2094 110.985 17.3771 110.985 17.5813C110.985 17.7599 111.051 17.9076 111.182 18.0242C111.317 18.1372 111.539 18.2284 111.849 18.2977L112.894 18.5164C113.466 18.6367 113.895 18.8336 114.179 19.107C114.463 19.3805 114.605 19.7341 114.605 20.168C114.605 20.5508 114.494 20.8898 114.272 21.1852C114.049 21.4805 113.741 21.7102 113.348 21.8742C112.958 22.0383 112.507 22.1203 111.997 22.1203C111.249 22.1203 110.648 21.9635 110.192 21.65C109.74 21.3328 109.468 20.8935 109.377 20.332L110.783 20.2008C110.845 20.4742 110.98 20.682 111.187 20.8242C111.399 20.9628 111.669 21.032 111.997 21.032C112.34 21.032 112.615 20.9628 112.823 20.8242C113.03 20.682 113.134 20.5089 113.134 20.3047C113.134 19.962 112.861 19.7286 112.314 19.6047L111.27 19.3859C110.683 19.2583 110.249 19.0523 109.968 18.768C109.687 18.4799 109.547 18.1135 109.547 17.6688C109.547 17.2896 109.651 16.9615 109.859 16.6844C110.066 16.4073 110.356 16.1922 110.728 16.0391C111.1 15.8859 111.53 15.8094 112.019 15.8094C112.737 15.8094 113.3 15.9643 113.709 16.2742C114.121 16.5805 114.376 16.9924 114.474 17.5102Z" fill="#121212" fill-opacity="0.6"/>
<rect x="159" y="11" width="14" height="14" rx="7" fill="#1A1A1A"/>
<path d="M169 16L164.188 20L162 18.1815" stroke="white" stroke-width="1.5" stroke-linecap="round" stroke-linejoin="round"/>
<path d="M35.4672 80.1258C34.8328 80.1258 34.2823 80.0273 33.8156 79.8305C33.349 79.6336 32.9844 79.3474 32.7219 78.9719C32.4594 78.5927 32.3172 78.1333 32.2953 77.5938H33.75C33.7719 77.8781 33.8594 78.1151 34.0125 78.3047C34.1656 78.4906 34.3661 78.631 34.6141 78.7258C34.8656 78.8206 35.1445 78.868 35.4508 78.868C35.7716 78.868 36.0542 78.8188 36.2984 78.7203C36.5427 78.6219 36.7341 78.4852 36.8727 78.3102C37.0112 78.1352 37.0805 77.931 37.0805 77.6977C37.0805 77.4862 37.0185 77.313 36.8945 77.1781C36.7706 77.0396 36.5992 76.9229 36.3805 76.8281C36.1617 76.7333 35.9047 76.6495 35.6094 76.5766L34.6852 76.3359C34.0143 76.1646 33.4857 75.9039 33.0992 75.5539C32.7128 75.2003 32.5195 74.7299 32.5195 74.143C32.5195 73.6617 32.649 73.2424 32.9078 72.8852C33.1667 72.5242 33.5203 72.2435 33.9687 72.043C34.4208 71.8424 34.9312 71.7422 35.5 71.7422C36.0797 71.7422 36.5883 71.8424 37.0258 72.043C37.4633 72.2435 37.806 72.5206 38.0539 72.8742C38.3018 73.2279 38.4312 73.6344 38.4422 74.0938H37.0148C36.9784 73.7438 36.8234 73.474 36.55 73.2844C36.2802 73.0911 35.9247 72.9945 35.4836 72.9945C35.1773 72.9945 34.913 73.0401 34.6906 73.1313C34.4719 73.2224 34.3042 73.3482 34.1875 73.5086C34.0708 73.669 34.0125 73.8513 34.0125 74.0555C34.0125 74.2815 34.0799 74.4674 34.2148 74.6133C34.3534 74.7555 34.5284 74.8703 34.7398 74.9578C34.9549 75.0453 35.1737 75.1182 35.3961 75.1766L36.1562 75.368C36.4625 75.4409 36.7578 75.5393 37.0422 75.6633C37.3266 75.7836 37.5818 75.9367 37.8078 76.1227C38.0375 76.3049 38.218 76.5273 38.3492 76.7898C38.4841 77.0523 38.5516 77.3604 38.5516 77.7141C38.5516 78.188 38.4294 78.6073 38.1852 78.9719C37.9409 79.3328 37.5891 79.6154 37.1297 79.8195C36.6703 80.0237 36.1161 80.1258 35.4672 80.1258ZM40.8156 76.4234V80H39.3773V71.8516H40.7828V74.9305H40.8594C41.0016 74.5841 41.2221 74.3107 41.5211 74.1102C41.8201 73.9096 42.2047 73.8094 42.675 73.8094C43.0979 73.8094 43.4661 73.8987 43.7797 74.0773C44.0969 74.256 44.343 74.5167 44.518 74.8594C44.693 75.2021 44.7805 75.6195 44.7805 76.1117V80H43.3367V76.3359C43.3367 75.9203 43.231 75.5995 43.0195 75.3734C42.8081 75.1438 42.5128 75.0289 42.1336 75.0289C41.8784 75.0289 41.6505 75.0836 41.45 75.193C41.2531 75.3023 41.0982 75.4609 40.9852 75.6688C40.8721 75.8729 40.8156 76.1245 40.8156 76.4234ZM47.6023 80.1258C47.2122 80.1258 46.8622 80.0565 46.5523 79.918C46.2424 79.7758 45.9982 79.568 45.8195 79.2945C45.6409 79.0211 45.5516 78.6839 45.5516 78.2828C45.5516 77.9401 45.6154 77.6557 45.743 77.4297C45.8706 77.2036 46.0437 77.0232 46.2625 76.8883C46.4849 76.7534 46.7346 76.6513 47.0117 76.582C47.2888 76.5091 47.575 76.4581 47.8703 76.4289C48.2312 76.3888 48.5229 76.3542 48.7453 76.325C48.9677 76.2958 49.1281 76.2484 49.2266 76.1828C49.3286 76.1172 49.3797 76.0151 49.3797 75.8766V75.8492C49.3797 75.5539 49.2922 75.3242 49.1172 75.1602C48.9422 74.9961 48.687 74.9141 48.3516 74.9141C47.9979 74.9141 47.7172 74.9906 47.5094 75.1438C47.3052 75.2969 47.1667 75.4773 47.0937 75.6852L45.7539 75.4938C45.8596 75.1219 46.0346 74.812 46.2789 74.5641C46.5232 74.3125 46.8203 74.1247 47.1703 74.0008C47.524 73.8732 47.9141 73.8094 48.3406 73.8094C48.6323 73.8094 48.924 73.844 49.2156 73.9133C49.5073 73.9789 49.7753 74.0919 50.0195 74.2523C50.2638 74.4128 50.4589 74.6279 50.6047 74.8977C50.7505 75.1674 50.8234 75.5047 50.8234 75.9094V80H49.4398V79.1578H49.3961C49.3086 79.3255 49.1846 79.4841 49.0242 79.6336C48.8674 79.7794 48.6706 79.8979 48.4336 79.9891C48.2003 80.0802 47.9232 80.1258 47.6023 80.1258ZM47.9687 79.0648C48.2604 79.0648 48.512 79.0083 48.7234 78.8953C48.9349 78.7786 49.099 78.6255 49.2156 78.4359C49.3323 78.2427 49.3906 78.0331 49.3906 77.807V77.0906C49.3432 77.1271 49.2667 77.1617 49.1609 77.1945C49.0552 77.2237 48.9349 77.251 48.8 77.2766C48.6651 77.3021 48.532 77.324 48.4008 77.3422C48.2732 77.3604 48.162 77.375 48.0672 77.3859C47.8521 77.4151 47.6589 77.4643 47.4875 77.5336C47.3198 77.5992 47.1867 77.6904 47.0883 77.807C46.9898 77.9237 46.9406 78.075 46.9406 78.2609C46.9406 78.5271 47.0372 78.7276 47.2305 78.8625C47.4237 78.9974 47.6698 79.0648 47.9687 79.0648ZM51.8898 80V73.8859H53.2844V74.9141H53.35C53.4594 74.5568 53.6508 74.2833 53.9242 74.0938C54.1977 73.9005 54.5094 73.8039 54.8594 73.8039C54.9359 73.8039 55.0234 73.8076 55.1219 73.8148C55.224 73.8221 55.3078 73.8313 55.3734 73.8422V75.1656C55.3115 75.1438 55.2148 75.1255 55.0836 75.1109C54.9523 75.0964 54.8266 75.0891 54.7062 75.0891C54.4401 75.0891 54.2031 75.1456 53.9953 75.2586C53.7875 75.3716 53.6234 75.5266 53.5031 75.7234C53.3865 75.9203 53.3281 76.15 53.3281 76.4125V80H51.8898ZM55.9148 82.2859V73.8859H57.3258V74.8977H57.4133C57.4862 74.7518 57.5901 74.5951 57.725 74.4273C57.8599 74.256 58.0422 74.1102 58.2719 73.9898C58.5052 73.8695 58.8023 73.8094 59.1633 73.8094C59.6336 73.8094 60.0583 73.9297 60.4375 74.1703C60.8167 74.4109 61.1174 74.7646 61.3398 75.2313C61.5659 75.6979 61.6789 76.2721 61.6789 76.9539C61.6789 77.6247 61.5695 78.1953 61.3508 78.6656C61.132 79.1359 60.8312 79.4951 60.4484 79.743C60.0693 79.9872 59.6391 80.1094 59.1578 80.1094C58.8115 80.1094 58.5216 80.051 58.2883 79.9344C58.0586 79.8141 57.8727 79.6719 57.7305 79.5078C57.5919 79.3401 57.4862 79.1815 57.4133 79.032H57.3531V82.2859H55.9148ZM58.7641 78.9281C59.0812 78.9281 59.3456 78.8424 59.557 78.6711C59.7721 78.4997 59.9344 78.2646 60.0437 77.9656C60.1531 77.6667 60.2078 77.3276 60.2078 76.9484C60.2078 76.5693 60.1531 76.232 60.0437 75.9367C59.9344 75.6414 59.774 75.4099 59.5625 75.2422C59.351 75.0745 59.0849 74.9906 58.7641 74.9906C58.4542 74.9906 58.1917 75.0708 57.9766 75.2313C57.7651 75.3917 57.6029 75.6195 57.4898 75.9148C57.3805 76.2065 57.3258 76.551 57.3258 76.9484C57.3258 77.3422 57.3805 77.6885 57.4898 77.9875C57.6029 78.2828 57.7669 78.5143 57.982 78.682C58.1971 78.8461 58.4578 78.9281 58.7641 78.9281ZM65.1844 80.1203C64.5719 80.1203 64.0432 79.9927 63.5984 79.7375C63.1536 79.4786 62.8109 79.1141 62.5703 78.6438C62.3333 78.1734 62.2148 77.6193 62.2148 76.9813C62.2148 76.3505 62.3333 75.7982 62.5703 75.3242C62.8073 74.8466 63.1409 74.4747 63.5711 74.2086C64.0013 73.9424 64.5081 73.8094 65.0914 73.8094C65.4669 73.8094 65.8224 73.8695 66.1578 73.9898C66.4969 74.1102 66.7958 74.2961 67.0547 74.5477C67.3172 74.7992 67.5232 75.1201 67.6727 75.5102C67.8221 75.8966 67.8969 76.3578 67.8969 76.8938V77.3422H62.8875V76.3742H67.1805L66.5078 76.6586C66.5078 76.3122 66.4549 76.0115 66.3492 75.7563C66.2435 75.4974 66.0867 75.2951 65.8789 75.1492C65.6711 75.0034 65.4122 74.9305 65.1023 74.9305C64.7924 74.9305 64.5281 75.0034 64.3094 75.1492C64.0906 75.2951 63.9247 75.4919 63.8117 75.7398C63.6987 75.9841 63.6422 76.2576 63.6422 76.5602V77.2328C63.6422 77.6047 63.706 77.9237 63.8336 78.1898C63.9648 78.4523 64.1471 78.6529 64.3805 78.7914C64.6174 78.9299 64.8927 78.9992 65.2062 78.9992C65.4104 78.9992 65.5964 78.9701 65.7641 78.9117C65.9354 78.8534 66.0812 78.7659 66.2016 78.6492C66.3255 78.5289 66.4203 78.3813 66.4859 78.2063L67.8312 78.3648C67.7437 78.7185 67.5815 79.0284 67.3445 79.2945C67.1112 79.557 66.8104 79.7612 66.4422 79.907C66.0776 80.0492 65.6583 80.1203 65.1844 80.1203ZM68.6789 80V73.8859H70.0734V74.9141H70.1391C70.2484 74.5568 70.4398 74.2833 70.7133 74.0938C70.9867 73.9005 71.2984 73.8039 71.6484 73.8039C71.725 73.8039 71.8125 73.8076 71.9109 73.8148C72.013 73.8221 72.0969 73.8313 72.1625 73.8422V75.1656C72.1005 75.1438 72.0039 75.1255 71.8727 75.1109C71.7414 75.0964 71.6156 75.0891 71.4953 75.0891C71.2292 75.0891 70.9922 75.1456 70.7844 75.2586C70.5766 75.3716 70.4125 75.5266 70.2922 75.7234C70.1755 75.9203 70.1172 76.15 70.1172 76.4125V80H68.6789ZM75.0664 80V73.8859H76.4391V74.9305H76.5156C76.6432 74.5805 76.8547 74.307 77.15 74.1102C77.4453 73.9096 77.7953 73.8094 78.2 73.8094C78.6156 73.8094 78.9656 73.9096 79.25 74.1102C79.5344 74.3107 79.7331 74.5841 79.8461 74.9305H79.9117C80.0503 74.5914 80.2799 74.3198 80.6008 74.1156C80.9216 73.9115 81.3044 73.8094 81.7492 73.8094C82.3107 73.8094 82.7682 73.988 83.1219 74.3453C83.4792 74.699 83.6578 75.2167 83.6578 75.8984V80H82.2141V76.1172C82.2141 75.7417 82.112 75.4664 81.9078 75.2914C81.7073 75.1128 81.4612 75.0234 81.1695 75.0234C80.8232 75.0234 80.5534 75.1328 80.3602 75.3516C80.1669 75.5667 80.0703 75.8438 80.0703 76.1828V80H78.6484V76.0625C78.6484 75.7453 78.5555 75.4938 78.3695 75.3078C78.1836 75.1182 77.9375 75.0234 77.6313 75.0234C77.4234 75.0234 77.2339 75.0763 77.0625 75.182C76.8911 75.2878 76.7544 75.4354 76.6523 75.625C76.5539 75.8146 76.5047 76.0333 76.5047 76.2813V80H75.0664ZM87.4312 80.1203C86.8187 80.1203 86.2901 79.9927 85.8453 79.7375C85.4005 79.4786 85.0578 79.1141 84.8172 78.6438C84.5802 78.1734 84.4617 77.6193 84.4617 76.9813C84.4617 76.3505 84.5802 75.7982 84.8172 75.3242C85.0542 74.8466 85.3878 74.4747 85.818 74.2086C86.2482 73.9424 86.7549 73.8094 87.3383 73.8094C87.7138 73.8094 88.0693 73.8695 88.4047 73.9898C88.7437 74.1102 89.0427 74.2961 89.3016 74.5477C89.5641 74.7992 89.7701 75.1201 89.9195 75.5102C90.069 75.8966 90.1437 76.3578 90.1437 76.8938V77.3422H85.1344V76.3742H89.4273L88.7547 76.6586C88.7547 76.3122 88.7018 76.0115 88.5961 75.7563C88.4904 75.4974 88.3336 75.2951 88.1258 75.1492C87.918 75.0034 87.6591 74.9305 87.3492 74.9305C87.0393 74.9305 86.775 75.0034 86.5562 75.1492C86.3375 75.2951 86.1716 75.4919 86.0586 75.7398C85.9456 75.9841 85.8891 76.2576 85.8891 76.5602V77.2328C85.8891 77.6047 85.9529 77.9237 86.0805 78.1898C86.2117 78.4523 86.394 78.6529 86.6273 78.7914C86.8643 78.9299 87.1396 78.9992 87.4531 78.9992C87.6573 78.9992 87.8432 78.9701 88.0109 78.9117C88.1823 78.8534 88.3281 78.7659 88.4484 78.6492C88.5724 78.5289 88.6672 78.3813 88.7328 78.2063L90.0781 78.3648C89.9906 78.7185 89.8284 79.0284 89.5914 79.2945C89.3581 79.557 89.0573 79.7612 88.6891 79.907C88.3245 80.0492 87.9052 80.1203 87.4312 80.1203ZM93.6328 80.1203C93.0203 80.1203 92.4917 79.9927 92.0469 79.7375C91.6021 79.4786 91.2594 79.1141 91.0188 78.6438C90.7818 78.1734 90.6633 77.6193 90.6633 76.9813C90.6633 76.3505 90.7818 75.7982 91.0188 75.3242C91.2557 74.8466 91.5893 74.4747 92.0195 74.2086C92.4497 73.9424 92.9565 73.8094 93.5398 73.8094C93.9154 73.8094 94.2708 73.8695 94.6063 73.9898C94.9453 74.1102 95.2443 74.2961 95.5031 74.5477C95.7656 74.7992 95.9716 75.1201 96.1211 75.5102C96.2706 75.8966 96.3453 76.3578 96.3453 76.8938V77.3422H91.3359V76.3742H95.6289L94.9563 76.6586C94.9563 76.3122 94.9034 76.0115 94.7977 75.7563C94.6919 75.4974 94.5352 75.2951 94.3273 75.1492C94.1195 75.0034 93.8607 74.9305 93.5508 74.9305C93.2409 74.9305 92.9766 75.0034 92.7578 75.1492C92.5391 75.2951 92.3732 75.4919 92.2602 75.7398C92.1471 75.9841 92.0906 76.2576 92.0906 76.5602V77.2328C92.0906 77.6047 92.1544 77.9237 92.282 78.1898C92.4133 78.4523 92.5956 78.6529 92.8289 78.7914C93.0659 78.9299 93.3411 78.9992 93.6547 78.9992C93.8589 78.9992 94.0448 78.9701 94.2125 78.9117C94.3839 78.8534 94.5297 78.7659 94.65 78.6492C94.774 78.5289 94.8688 78.3813 94.9344 78.2063L96.2797 78.3648C96.1922 78.7185 96.0299 79.0284 95.793 79.2945C95.5596 79.557 95.2589 79.7612 94.8906 79.907C94.526 80.0492 94.1068 80.1203 93.6328 80.1203ZM100.173 73.8859V75.0016H96.668V73.8859H100.173ZM97.5266 72.4313H98.9648V78.1625C98.9648 78.4031 99.0177 78.5818 99.1234 78.6984C99.2292 78.8115 99.3969 78.868 99.6266 78.868C99.6885 78.868 99.7578 78.8625 99.8344 78.8516C99.9109 78.8406 99.9802 78.8279 100.042 78.8133L100.288 79.9398C100.135 79.9872 99.9802 80.0219 99.8234 80.0437C99.6667 80.0693 99.5099 80.082 99.3531 80.082C98.7844 80.082 98.3378 79.9326 98.0133 79.6336C97.6888 79.331 97.5266 78.919 97.5266 78.3977V72.4313ZM100.966 80V73.8859H102.405V80H100.966ZM101.688 73.0273C101.459 73.0273 101.262 72.9508 101.098 72.7977C100.934 72.6445 100.852 72.4604 100.852 72.2453C100.852 72.0266 100.934 71.8406 101.098 71.6875C101.262 71.5344 101.459 71.4578 101.688 71.4578C101.914 71.4578 102.109 71.5344 102.273 71.6875C102.437 71.8406 102.52 72.0247 102.52 72.2398C102.52 72.4586 102.437 72.6445 102.273 72.7977C102.109 72.9508 101.914 73.0273 101.688 73.0273ZM104.909 76.4234V80H103.471V73.8859H104.882V74.9305H104.953C105.092 74.5878 105.309 74.3161 105.604 74.1156C105.903 73.9115 106.282 73.8094 106.741 73.8094C107.164 73.8094 107.533 73.8987 107.846 74.0773C108.16 74.256 108.402 74.5185 108.573 74.8648C108.748 75.2076 108.836 75.6232 108.836 76.1117V80H107.398V76.3359C107.398 75.9276 107.292 75.6086 107.08 75.3789C106.869 75.1456 106.577 75.0289 106.205 75.0289C105.954 75.0289 105.73 75.0836 105.533 75.193C105.34 75.3023 105.186 75.4609 105.073 75.6688C104.964 75.8729 104.909 76.1245 104.909 76.4234ZM112.549 82.4172C111.773 82.4172 111.162 82.2659 110.717 81.9633C110.272 81.6643 109.986 81.3016 109.859 80.875L111.149 80.5578C111.208 80.6781 111.293 80.7966 111.406 80.9133C111.519 81.0336 111.671 81.132 111.86 81.2086C112.05 81.2888 112.289 81.3289 112.577 81.3289C112.985 81.3289 113.322 81.2286 113.588 81.0281C113.858 80.8312 113.993 80.5086 113.993 80.0602V78.9063H113.911C113.842 79.0521 113.736 79.2034 113.594 79.3602C113.452 79.5133 113.264 79.6445 113.03 79.7539C112.801 79.8596 112.509 79.9125 112.155 79.9125C111.689 79.9125 111.264 79.8013 110.881 79.5789C110.502 79.3565 110.199 79.0247 109.973 78.5836C109.751 78.1424 109.64 77.5901 109.64 76.9266C109.64 76.2557 109.751 75.6888 109.973 75.2258C110.199 74.7628 110.504 74.4109 110.887 74.1703C111.27 73.9297 111.696 73.8094 112.166 73.8094C112.524 73.8094 112.819 73.8695 113.052 73.9898C113.286 74.1102 113.472 74.256 113.61 74.4273C113.749 74.5951 113.856 74.7518 113.933 74.8977H114.009V73.8859H115.415V80.0984C115.415 80.6198 115.291 81.0518 115.043 81.3945C114.795 81.7372 114.454 81.9924 114.02 82.1602C113.59 82.3315 113.1 82.4172 112.549 82.4172ZM112.56 78.7805C113.02 78.7805 113.373 78.6164 113.621 78.2883C113.873 77.9565 113.998 77.499 113.998 76.9156C113.998 76.5292 113.944 76.1919 113.834 75.9039C113.725 75.6159 113.563 75.3917 113.348 75.2313C113.133 75.0708 112.87 74.9906 112.56 74.9906C112.239 74.9906 111.971 75.0745 111.756 75.2422C111.541 75.4099 111.379 75.6396 111.27 75.9313C111.164 76.2193 111.111 76.5474 111.111 76.9156C111.111 77.2875 111.166 77.6138 111.275 77.8945C111.384 78.1753 111.547 78.394 111.762 78.5508C111.98 78.7039 112.247 78.7805 112.56 78.7805ZM121.299 75.5102L119.992 75.6469C119.937 75.4464 119.819 75.2695 119.637 75.1164C119.454 74.9596 119.197 74.8813 118.866 74.8813C118.567 74.8813 118.315 74.9469 118.111 75.0781C117.91 75.2094 117.81 75.3771 117.81 75.5813C117.81 75.7599 117.876 75.9076 118.007 76.0242C118.142 76.1372 118.364 76.2284 118.674 76.2977L119.719 76.5164C120.291 76.6367 120.72 76.8336 121.004 77.107C121.288 77.3805 121.43 77.7341 121.43 78.168C121.43 78.5508 121.319 78.8898 121.097 79.1852C120.874 79.4805 120.566 79.7102 120.173 79.8742C119.783 80.0383 119.332 80.1203 118.822 80.1203C118.074 80.1203 117.473 79.9635 117.017 79.65C116.565 79.3328 116.293 78.8935 116.202 78.332L117.608 78.2008C117.67 78.4742 117.805 78.682 118.012 78.8242C118.224 78.9628 118.494 79.032 118.822 79.032C119.165 79.032 119.44 78.9628 119.648 78.8242C119.855 78.682 119.959 78.5089 119.959 78.3047C119.959 77.962 119.686 77.7286 119.139 77.6047L118.095 77.3859C117.508 77.2583 117.074 77.0523 116.793 76.768C116.512 76.4799 116.372 76.1135 116.372 75.6688C116.372 75.2896 116.476 74.9615 116.684 74.6844C116.891 74.4073 117.181 74.1922 117.553 74.0391C117.925 73.8859 118.355 73.8094 118.844 73.8094C119.562 73.8094 120.125 73.9643 120.534 74.2742C120.946 74.5805 121.201 74.9924 121.299 75.5102Z" fill="#121212" fill-opacity="0.6"/>
<rect x="159" y="69" width="14" height="14" rx="7" fill="#1A1A1A"/>
<path d="M169 74L164.188 78L162 76.1815" stroke="white" stroke-width="1.5" stroke-linecap="round" stroke-linejoin="round"/>
<path d="M34.9531 138V129.852H36.4297V133.598H36.5281L39.7109 129.852H41.5102L38.3602 133.51L41.5375 138H39.7602L37.332 134.511L36.4297 135.577V138H34.9531ZM42.4398 138V131.886H43.8781V138H42.4398ZM43.1617 131.027C42.932 131.027 42.7352 130.951 42.5711 130.798C42.407 130.645 42.325 130.46 42.325 130.245C42.325 130.027 42.407 129.841 42.5711 129.688C42.7352 129.534 42.932 129.458 43.1617 129.458C43.3878 129.458 43.5828 129.534 43.7469 129.688C43.9109 129.841 43.993 130.025 43.993 130.24C43.993 130.459 43.9109 130.645 43.7469 130.798C43.5828 130.951 43.3878 131.027 43.1617 131.027ZM47.6078 138.12C46.999 138.12 46.4758 137.987 46.0383 137.721C45.6008 137.451 45.2654 137.079 45.032 136.605C44.7987 136.132 44.682 135.586 44.682 134.97C44.682 134.347 44.8005 133.798 45.0375 133.324C45.2745 132.85 45.6117 132.48 46.0492 132.214C46.4867 131.944 47.0026 131.809 47.5969 131.809C48.0964 131.809 48.5375 131.901 48.9203 132.083C49.3031 132.265 49.6076 132.522 49.8336 132.854C50.0633 133.182 50.1945 133.567 50.2273 134.008H48.8492C48.8128 133.811 48.7417 133.634 48.6359 133.477C48.5302 133.321 48.3917 133.197 48.2203 133.105C48.0526 133.014 47.8521 132.969 47.6187 132.969C47.3234 132.969 47.0646 133.049 46.8422 133.209C46.6234 133.366 46.4521 133.592 46.3281 133.888C46.2042 134.183 46.1422 134.536 46.1422 134.948C46.1422 135.364 46.2023 135.723 46.3227 136.026C46.443 136.325 46.6143 136.556 46.8367 136.72C47.0591 136.881 47.3198 136.961 47.6187 136.961C47.9359 136.961 48.2039 136.868 48.4227 136.682C48.6451 136.496 48.7872 136.239 48.8492 135.911H50.2273C50.1945 136.345 50.0669 136.728 49.8445 137.059C49.6221 137.391 49.3214 137.652 48.9422 137.841C48.563 138.027 48.1182 138.12 47.6078 138.12ZM52.3164 136.086L52.3109 134.341H52.5461L54.7391 131.886H56.4234L53.7219 134.899H53.4211L52.3164 136.086ZM51.0039 138V129.852H52.4422V138H51.0039ZM54.8375 138L52.8469 135.222L53.8203 134.205L56.5602 138H54.8375ZM61.7773 133.51L60.4703 133.647C60.4156 133.446 60.2971 133.27 60.1148 133.116C59.9326 132.96 59.6755 132.881 59.3437 132.881C59.0448 132.881 58.7932 132.947 58.5891 133.078C58.3885 133.209 58.2883 133.377 58.2883 133.581C58.2883 133.76 58.3539 133.908 58.4852 134.024C58.6201 134.137 58.8424 134.228 59.1523 134.298L60.1969 134.516C60.7693 134.637 61.1977 134.834 61.482 135.107C61.7664 135.38 61.9086 135.734 61.9086 136.168C61.9086 136.551 61.7974 136.89 61.575 137.185C61.3526 137.48 61.0445 137.71 60.6508 137.874C60.2607 138.038 59.8104 138.12 59.3 138.12C58.5526 138.12 57.951 137.964 57.4953 137.65C57.0432 137.333 56.7716 136.893 56.6805 136.332L58.0859 136.201C58.1479 136.474 58.2828 136.682 58.4906 136.824C58.7021 136.963 58.9719 137.032 59.3 137.032C59.6427 137.032 59.918 136.963 60.1258 136.824C60.3336 136.682 60.4375 136.509 60.4375 136.305C60.4375 135.962 60.1641 135.729 59.6172 135.605L58.5727 135.386C57.9857 135.258 57.5518 135.052 57.2711 134.768C56.9904 134.48 56.85 134.114 56.85 133.669C56.85 133.29 56.9539 132.961 57.1617 132.684C57.3695 132.407 57.6594 132.192 58.0312 132.039C58.4031 131.886 58.8333 131.809 59.3219 131.809C60.0401 131.809 60.6034 131.964 61.0117 132.274C61.4237 132.58 61.6789 132.992 61.7773 133.51ZM65.7312 131.886V133.002H62.2258V131.886H65.7312ZM63.0844 130.431H64.5227V136.163C64.5227 136.403 64.5755 136.582 64.6812 136.698C64.787 136.811 64.9547 136.868 65.1844 136.868C65.2464 136.868 65.3156 136.863 65.3922 136.852C65.4687 136.841 65.538 136.828 65.6 136.813L65.8461 137.94C65.693 137.987 65.538 138.022 65.3812 138.044C65.2245 138.069 65.0677 138.082 64.9109 138.082C64.3422 138.082 63.8956 137.933 63.5711 137.634C63.2466 137.331 63.0844 136.919 63.0844 136.398V130.431ZM68.2852 138.126C67.895 138.126 67.545 138.057 67.2352 137.918C66.9253 137.776 66.681 137.568 66.5023 137.295C66.3237 137.021 66.2344 136.684 66.2344 136.283C66.2344 135.94 66.2982 135.656 66.4258 135.43C66.5534 135.204 66.7266 135.023 66.9453 134.888C67.1677 134.753 67.4174 134.651 67.6945 134.582C67.9716 134.509 68.2578 134.458 68.5531 134.429C68.9141 134.389 69.2057 134.354 69.4281 134.325C69.6505 134.296 69.8109 134.248 69.9094 134.183C70.0115 134.117 70.0625 134.015 70.0625 133.877V133.849C70.0625 133.554 69.975 133.324 69.8 133.16C69.625 132.996 69.3698 132.914 69.0344 132.914C68.6807 132.914 68.4 132.991 68.1922 133.144C67.988 133.297 67.8495 133.477 67.7766 133.685L66.4367 133.494C66.5424 133.122 66.7174 132.812 66.9617 132.564C67.206 132.313 67.5031 132.125 67.8531 132.001C68.2068 131.873 68.5969 131.809 69.0234 131.809C69.3151 131.809 69.6068 131.844 69.8984 131.913C70.1901 131.979 70.4581 132.092 70.7023 132.252C70.9466 132.413 71.1417 132.628 71.2875 132.898C71.4333 133.167 71.5062 133.505 71.5062 133.909V138H70.1227V137.158H70.0789C69.9914 137.326 69.8674 137.484 69.707 137.634C69.5503 137.779 69.3534 137.898 69.1164 137.989C68.8831 138.08 68.606 138.126 68.2852 138.126ZM68.6516 137.065C68.9432 137.065 69.1948 137.008 69.4062 136.895C69.6177 136.779 69.7818 136.626 69.8984 136.436C70.0151 136.243 70.0734 136.033 70.0734 135.807V135.091C70.026 135.127 69.9495 135.162 69.8437 135.195C69.738 135.224 69.6177 135.251 69.4828 135.277C69.3479 135.302 69.2148 135.324 69.0836 135.342C68.956 135.36 68.8448 135.375 68.75 135.386C68.5349 135.415 68.3417 135.464 68.1703 135.534C68.0026 135.599 67.8695 135.69 67.7711 135.807C67.6727 135.924 67.6234 136.075 67.6234 136.261C67.6234 136.527 67.72 136.728 67.9133 136.863C68.1065 136.997 68.3526 137.065 68.6516 137.065ZM72.5727 138V131.886H73.9672V132.914H74.0328C74.1422 132.557 74.3336 132.283 74.607 132.094C74.8805 131.901 75.1922 131.804 75.5422 131.804C75.6187 131.804 75.7062 131.808 75.8047 131.815C75.9068 131.822 75.9906 131.831 76.0562 131.842V133.166C75.9943 133.144 75.8977 133.126 75.7664 133.111C75.6352 133.096 75.5094 133.089 75.3891 133.089C75.1229 133.089 74.8859 133.146 74.6781 133.259C74.4703 133.372 74.3062 133.527 74.1859 133.723C74.0693 133.92 74.0109 134.15 74.0109 134.413V138H72.5727ZM79.9719 131.886V133.002H76.4664V131.886H79.9719ZM77.325 130.431H78.7633V136.163C78.7633 136.403 78.8161 136.582 78.9219 136.698C79.0276 136.811 79.1953 136.868 79.425 136.868C79.487 136.868 79.5563 136.863 79.6328 136.852C79.7094 136.841 79.7786 136.828 79.8406 136.813L80.0867 137.94C79.9336 137.987 79.7786 138.022 79.6219 138.044C79.4651 138.069 79.3083 138.082 79.1516 138.082C78.5828 138.082 78.1362 137.933 77.8117 137.634C77.4872 137.331 77.325 136.919 77.325 136.398V130.431ZM84.5656 129.852V138H83.1273V129.852H84.5656ZM88.3391 138.12C87.7266 138.12 87.1979 137.993 86.7531 137.738C86.3083 137.479 85.9656 137.114 85.725 136.644C85.488 136.173 85.3695 135.619 85.3695 134.981C85.3695 134.351 85.488 133.798 85.725 133.324C85.962 132.847 86.2956 132.475 86.7258 132.209C87.156 131.942 87.6628 131.809 88.2461 131.809C88.6216 131.809 88.9771 131.87 89.3125 131.99C89.6516 132.11 89.9505 132.296 90.2094 132.548C90.4719 132.799 90.6779 133.12 90.8273 133.51C90.9768 133.897 91.0516 134.358 91.0516 134.894V135.342H86.0422V134.374H90.3352L89.6625 134.659C89.6625 134.312 89.6096 134.011 89.5039 133.756C89.3982 133.497 89.2414 133.295 89.0336 133.149C88.8258 133.003 88.5669 132.93 88.257 132.93C87.9471 132.93 87.6828 133.003 87.4641 133.149C87.2453 133.295 87.0794 133.492 86.9664 133.74C86.8534 133.984 86.7969 134.258 86.7969 134.56V135.233C86.7969 135.605 86.8607 135.924 86.9883 136.19C87.1195 136.452 87.3018 136.653 87.5352 136.791C87.7721 136.93 88.0474 136.999 88.3609 136.999C88.5651 136.999 88.751 136.97 88.9187 136.912C89.0901 136.853 89.2359 136.766 89.3562 136.649C89.4802 136.529 89.575 136.381 89.6406 136.206L90.9859 136.365C90.8984 136.718 90.7362 137.028 90.4992 137.295C90.2659 137.557 89.9651 137.761 89.5969 137.907C89.2323 138.049 88.813 138.12 88.3391 138.12ZM93.5945 138.126C93.2044 138.126 92.8544 138.057 92.5445 137.918C92.2346 137.776 91.9904 137.568 91.8117 137.295C91.6331 137.021 91.5437 136.684 91.5437 136.283C91.5437 135.94 91.6076 135.656 91.7352 135.43C91.8628 135.204 92.0359 135.023 92.2547 134.888C92.4771 134.753 92.7268 134.651 93.0039 134.582C93.281 134.509 93.5672 134.458 93.8625 134.429C94.2234 134.389 94.5151 134.354 94.7375 134.325C94.9599 134.296 95.1203 134.248 95.2187 134.183C95.3208 134.117 95.3719 134.015 95.3719 133.877V133.849C95.3719 133.554 95.2844 133.324 95.1094 133.16C94.9344 132.996 94.6792 132.914 94.3437 132.914C93.9901 132.914 93.7094 132.991 93.5016 133.144C93.2974 133.297 93.1589 133.477 93.0859 133.685L91.7461 133.494C91.8518 133.122 92.0268 132.812 92.2711 132.564C92.5154 132.313 92.8125 132.125 93.1625 132.001C93.5161 131.873 93.9062 131.809 94.3328 131.809C94.6245 131.809 94.9161 131.844 95.2078 131.913C95.4995 131.979 95.7674 132.092 96.0117 132.252C96.256 132.413 96.451 132.628 96.5969 132.898C96.7427 133.167 96.8156 133.505 96.8156 133.909V138H95.432V137.158H95.3883C95.3008 137.326 95.1768 137.484 95.0164 137.634C94.8596 137.779 94.6628 137.898 94.4258 137.989C94.1924 138.08 93.9154 138.126 93.5945 138.126ZM93.9609 137.065C94.2526 137.065 94.5042 137.008 94.7156 136.895C94.9271 136.779 95.0911 136.626 95.2078 136.436C95.3245 136.243 95.3828 136.033 95.3828 135.807V135.091C95.3354 135.127 95.2589 135.162 95.1531 135.195C95.0474 135.224 94.9271 135.251 94.7922 135.277C94.6573 135.302 94.5242 135.324 94.393 135.342C94.2654 135.36 94.1542 135.375 94.0594 135.386C93.8443 135.415 93.651 135.464 93.4797 135.534C93.312 135.599 93.1789 135.69 93.0805 135.807C92.982 135.924 92.9328 136.075 92.9328 136.261C92.9328 136.527 93.0294 136.728 93.2227 136.863C93.4159 136.997 93.662 137.065 93.9609 137.065ZM100.135 138.109C99.6576 138.109 99.2273 137.987 98.8445 137.743C98.4654 137.495 98.1664 137.136 97.9477 136.666C97.7289 136.195 97.6195 135.625 97.6195 134.954C97.6195 134.272 97.7307 133.698 97.9531 133.231C98.1792 132.765 98.4818 132.411 98.8609 132.17C99.2401 131.93 99.6648 131.809 100.135 131.809C100.496 131.809 100.791 131.87 101.021 131.99C101.251 132.11 101.433 132.256 101.568 132.427C101.707 132.595 101.812 132.752 101.885 132.898H101.945V129.852H103.378V138H101.973V137.032H101.885C101.809 137.182 101.701 137.34 101.562 137.508C101.424 137.672 101.24 137.814 101.01 137.934C100.78 138.051 100.489 138.109 100.135 138.109ZM100.534 136.928C100.841 136.928 101.099 136.846 101.311 136.682C101.526 136.514 101.69 136.283 101.803 135.988C101.916 135.689 101.973 135.342 101.973 134.948C101.973 134.551 101.916 134.207 101.803 133.915C101.694 133.62 101.532 133.392 101.316 133.231C101.105 133.071 100.844 132.991 100.534 132.991C100.217 132.991 99.951 133.074 99.7359 133.242C99.5208 133.41 99.3586 133.641 99.2492 133.937C99.1435 134.232 99.0906 134.569 99.0906 134.948C99.0906 135.328 99.1453 135.667 99.2547 135.966C99.3641 136.265 99.5245 136.5 99.7359 136.671C99.951 136.842 100.217 136.928 100.534 136.928ZM107.152 138.12C106.539 138.12 106.01 137.993 105.566 137.738C105.121 137.479 104.778 137.114 104.537 136.644C104.301 136.173 104.182 135.619 104.182 134.981C104.182 134.351 104.301 133.798 104.537 133.324C104.774 132.847 105.108 132.475 105.538 132.209C105.968 131.942 106.475 131.809 107.059 131.809C107.434 131.809 107.79 131.87 108.125 131.99C108.464 132.11 108.763 132.296 109.022 132.548C109.284 132.799 109.49 133.12 109.64 133.51C109.789 133.897 109.864 134.358 109.864 134.894V135.342H104.855V134.374H109.148L108.475 134.659C108.475 134.312 108.422 134.011 108.316 133.756C108.211 133.497 108.054 133.295 107.846 133.149C107.638 133.003 107.379 132.93 107.07 132.93C106.76 132.93 106.495 133.003 106.277 133.149C106.058 133.295 105.892 133.492 105.779 133.74C105.666 133.984 105.609 134.258 105.609 134.56V135.233C105.609 135.605 105.673 135.924 105.801 136.19C105.932 136.452 106.114 136.653 106.348 136.791C106.585 136.93 106.86 136.999 107.173 136.999C107.378 136.999 107.564 136.97 107.731 136.912C107.903 136.853 108.048 136.766 108.169 136.649C108.293 136.529 108.387 136.381 108.453 136.206L109.798 136.365C109.711 136.718 109.549 137.028 109.312 137.295C109.078 137.557 108.778 137.761 108.409 137.907C108.045 138.049 107.626 138.12 107.152 138.12ZM110.646 138V131.886H112.041V132.914H112.106C112.216 132.557 112.407 132.283 112.68 132.094C112.954 131.901 113.266 131.804 113.616 131.804C113.692 131.804 113.78 131.808 113.878 131.815C113.98 131.822 114.064 131.831 114.13 131.842V133.166C114.068 133.144 113.971 133.126 113.84 133.111C113.709 133.096 113.583 133.089 113.462 133.089C113.196 133.089 112.959 133.146 112.752 133.259C112.544 133.372 112.38 133.527 112.259 133.723C112.143 133.92 112.084 134.15 112.084 134.413V138H110.646ZM119.495 133.51L118.187 133.647C118.133 133.446 118.014 133.27 117.832 133.116C117.65 132.96 117.393 132.881 117.061 132.881C116.762 132.881 116.51 132.947 116.306 133.078C116.106 133.209 116.005 133.377 116.005 133.581C116.005 133.76 116.071 133.908 116.202 134.024C116.337 134.137 116.56 134.228 116.87 134.298L117.914 134.516C118.486 134.637 118.915 134.834 119.199 135.107C119.484 135.38 119.626 135.734 119.626 136.168C119.626 136.551 119.515 136.89 119.292 137.185C119.07 137.48 118.762 137.71 118.368 137.874C117.978 138.038 117.528 138.12 117.017 138.12C116.27 138.12 115.668 137.964 115.212 137.65C114.76 137.333 114.489 136.893 114.398 136.332L115.803 136.201C115.865 136.474 116 136.682 116.208 136.824C116.419 136.963 116.689 137.032 117.017 137.032C117.36 137.032 117.635 136.963 117.843 136.824C118.051 136.682 118.155 136.509 118.155 136.305C118.155 135.962 117.881 135.729 117.334 135.605L116.29 135.386C115.703 135.258 115.269 135.052 114.988 134.768C114.708 134.48 114.567 134.114 114.567 133.669C114.567 133.29 114.671 132.961 114.879 132.684C115.087 132.407 115.377 132.192 115.748 132.039C116.12 131.886 116.551 131.809 117.039 131.809C117.757 131.809 118.321 131.964 118.729 132.274C119.141 132.58 119.396 132.992 119.495 133.51ZM121.841 134.423V138H120.402V129.852H121.808V132.93H121.884C122.027 132.584 122.247 132.311 122.546 132.11C122.845 131.91 123.23 131.809 123.7 131.809C124.123 131.809 124.491 131.899 124.805 132.077C125.122 132.256 125.368 132.517 125.543 132.859C125.718 133.202 125.805 133.62 125.805 134.112V138H124.362V134.336C124.362 133.92 124.256 133.599 124.045 133.373C123.833 133.144 123.538 133.029 123.159 133.029C122.903 133.029 122.676 133.084 122.475 133.193C122.278 133.302 122.123 133.461 122.01 133.669C121.897 133.873 121.841 134.124 121.841 134.423ZM126.866 138V131.886H128.305V138H126.866ZM127.588 131.027C127.359 131.027 127.162 130.951 126.998 130.798C126.834 130.645 126.752 130.46 126.752 130.245C126.752 130.027 126.834 129.841 126.998 129.688C127.162 129.534 127.359 129.458 127.588 129.458C127.814 129.458 128.009 129.534 128.173 129.688C128.337 129.841 128.42 130.025 128.42 130.24C128.42 130.459 128.337 130.645 128.173 130.798C128.009 130.951 127.814 131.027 127.588 131.027ZM129.371 140.286V131.886H130.782V132.898H130.87C130.942 132.752 131.046 132.595 131.181 132.427C131.316 132.256 131.498 132.11 131.728 131.99C131.961 131.87 132.259 131.809 132.62 131.809C133.09 131.809 133.515 131.93 133.894 132.17C134.273 132.411 134.574 132.765 134.796 133.231C135.022 133.698 135.135 134.272 135.135 134.954C135.135 135.625 135.026 136.195 134.807 136.666C134.588 137.136 134.287 137.495 133.905 137.743C133.526 137.987 133.095 138.109 132.614 138.109C132.268 138.109 131.978 138.051 131.745 137.934C131.515 137.814 131.329 137.672 131.187 137.508C131.048 137.34 130.942 137.182 130.87 137.032H130.809V140.286H129.371ZM132.22 136.928C132.537 136.928 132.802 136.842 133.013 136.671C133.228 136.5 133.391 136.265 133.5 135.966C133.609 135.667 133.664 135.328 133.664 134.948C133.664 134.569 133.609 134.232 133.5 133.937C133.391 133.641 133.23 133.41 133.019 133.242C132.807 133.074 132.541 132.991 132.22 132.991C131.91 132.991 131.648 133.071 131.433 133.231C131.221 133.392 131.059 133.62 130.946 133.915C130.837 134.207 130.782 134.551 130.782 134.948C130.782 135.342 130.837 135.689 130.946 135.988C131.059 136.283 131.223 136.514 131.438 136.682C131.653 136.846 131.914 136.928 132.22 136.928Z" fill="#121212" fill-opacity="0.6"/>
<rect x="159" y="127" width="14" height="14" rx="7" fill="#1A1A1A"/>
<path d="M169 132L164.188 136L162 134.182" stroke="white" stroke-width="1.5" stroke-linecap="round" stroke-linejoin="round"/>
</svg>
