<svg width="420" height="146" viewBox="0 0 420 146" fill="none" xmlns="http://www.w3.org/2000/svg">
<g filter="url(#filter0_d_4539_3408)">
<path d="M56 72C56 60.9543 64.9543 52 76 52H344C355.046 52 364 60.9543 364 72V104C364 115.046 355.046 124 344 124H76C64.9543 124 56 115.046 56 104V72Z" fill="#FAFAFA" shape-rendering="crispEdges"/>
<path d="M76 52.5H344C354.77 52.5 363.5 61.2304 363.5 72V104C363.5 114.77 354.77 123.5 344 123.5H76C65.2305 123.5 56.5 114.77 56.5 104V72C56.5 61.2304 65.2304 52.5 76 52.5Z" stroke="white" shape-rendering="crispEdges"/>
<path d="M72.7383 81V70.8145H79.2734V72.3594H74.584V75.415H78.8154V76.9395H74.584V81H72.7383ZM83.1152 81.1504C82.3678 81.1504 81.7207 80.9863 81.1738 80.6582C80.627 80.3301 80.2031 79.8698 79.9023 79.2773C79.6061 78.6849 79.458 77.9967 79.458 77.2129C79.458 76.4245 79.6061 75.734 79.9023 75.1416C80.2031 74.5446 80.627 74.082 81.1738 73.7539C81.7207 73.4258 82.3678 73.2617 83.1152 73.2617C83.8626 73.2617 84.5098 73.4258 85.0566 73.7539C85.6035 74.082 86.0273 74.5446 86.3281 75.1416C86.6289 75.734 86.7793 76.4245 86.7793 77.2129C86.7793 77.9967 86.6289 78.6849 86.3281 79.2773C86.0273 79.8698 85.6035 80.3301 85.0566 80.6582C84.5098 80.9863 83.8626 81.1504 83.1152 81.1504ZM83.1152 79.7012C83.5299 79.7012 83.8717 79.5918 84.1406 79.373C84.4095 79.1497 84.61 78.849 84.7422 78.4707C84.8789 78.0924 84.9473 77.6732 84.9473 77.2129C84.9473 76.7435 84.8789 76.3197 84.7422 75.9414C84.61 75.5632 84.4095 75.2646 84.1406 75.0459C83.8717 74.8226 83.5299 74.7109 83.1152 74.7109C82.7096 74.7109 82.3701 74.8226 82.0967 75.0459C81.8232 75.2646 81.6182 75.5632 81.4814 75.9414C81.3493 76.3197 81.2832 76.7435 81.2832 77.2129C81.2832 77.6732 81.3493 78.0924 81.4814 78.4707C81.6182 78.849 81.8232 79.1497 82.0967 79.373C82.3701 79.5918 82.7096 79.7012 83.1152 79.7012ZM87.7705 81V73.3574H89.5137V74.6426H89.5957C89.7324 74.196 89.9717 73.8542 90.3135 73.6172C90.6553 73.3757 91.0449 73.2549 91.4824 73.2549C91.5781 73.2549 91.6875 73.2594 91.8105 73.2686C91.9382 73.2777 92.043 73.2891 92.125 73.3027V74.957C92.0475 74.9297 91.9268 74.9069 91.7627 74.8887C91.5986 74.8704 91.4414 74.8613 91.291 74.8613C90.9583 74.8613 90.6621 74.932 90.4023 75.0732C90.1426 75.2145 89.9375 75.4082 89.7871 75.6543C89.6413 75.9004 89.5684 76.1875 89.5684 76.5156V81H87.7705ZM95.8301 81V70.8145H102.365V72.3594H97.6758V75.415H101.907V76.9395H97.6758V81H95.8301ZM106.207 81.1504C105.46 81.1504 104.812 80.9863 104.266 80.6582C103.719 80.3301 103.295 79.8698 102.994 79.2773C102.698 78.6849 102.55 77.9967 102.55 77.2129C102.55 76.4245 102.698 75.734 102.994 75.1416C103.295 74.5446 103.719 74.082 104.266 73.7539C104.812 73.4258 105.46 73.2617 106.207 73.2617C106.954 73.2617 107.602 73.4258 108.148 73.7539C108.695 74.082 109.119 74.5446 109.42 75.1416C109.721 75.734 109.871 76.4245 109.871 77.2129C109.871 77.9967 109.721 78.6849 109.42 79.2773C109.119 79.8698 108.695 80.3301 108.148 80.6582C107.602 80.9863 106.954 81.1504 106.207 81.1504ZM106.207 79.7012C106.622 79.7012 106.964 79.5918 107.232 79.373C107.501 79.1497 107.702 78.849 107.834 78.4707C107.971 78.0924 108.039 77.6732 108.039 77.2129C108.039 76.7435 107.971 76.3197 107.834 75.9414C107.702 75.5632 107.501 75.2646 107.232 75.0459C106.964 74.8226 106.622 74.7109 106.207 74.7109C105.801 74.7109 105.462 74.8226 105.188 75.0459C104.915 75.2646 104.71 75.5632 104.573 75.9414C104.441 76.3197 104.375 76.7435 104.375 77.2129C104.375 77.6732 104.441 78.0924 104.573 78.4707C104.71 78.849 104.915 79.1497 105.188 79.373C105.462 79.5918 105.801 79.7012 106.207 79.7012ZM115.729 77.7939V73.3574H117.527V81H115.784V79.6396H115.702C115.529 80.068 115.246 80.4189 114.854 80.6924C114.463 80.9658 113.979 81.1003 113.405 81.0957C112.904 81.0957 112.462 80.9863 112.079 80.7676C111.701 80.5443 111.402 80.2184 111.184 79.79C110.969 79.3571 110.862 78.8353 110.862 78.2246V73.3574H112.66V77.9512C112.66 78.4297 112.792 78.8125 113.057 79.0996C113.326 79.3867 113.676 79.528 114.109 79.5234C114.374 79.5234 114.629 79.4596 114.875 79.332C115.126 79.2044 115.331 79.013 115.49 78.7578C115.65 78.5026 115.729 78.1813 115.729 77.7939ZM120.658 76.5293V81H118.86V73.3574H120.624V74.6631H120.713C120.886 74.2347 121.157 73.8952 121.526 73.6445C121.9 73.3893 122.374 73.2617 122.948 73.2617C123.477 73.2617 123.937 73.3734 124.329 73.5967C124.721 73.82 125.024 74.1481 125.238 74.5811C125.457 75.0094 125.566 75.529 125.566 76.1396V81H123.769V76.4199C123.769 75.9095 123.636 75.5107 123.372 75.2236C123.108 74.932 122.743 74.7861 122.278 74.7861C121.964 74.7861 121.684 74.8545 121.438 74.9912C121.196 75.1279 121.005 75.3262 120.863 75.5859C120.727 75.8411 120.658 76.1556 120.658 76.5293ZM129.716 81.1367C129.119 81.1367 128.581 80.984 128.103 80.6787C127.629 80.3688 127.255 79.9199 126.981 79.332C126.708 78.7441 126.571 78.0309 126.571 77.1924C126.571 76.3402 126.71 75.6224 126.988 75.0391C127.271 74.4557 127.649 74.0137 128.123 73.7129C128.597 73.4121 129.128 73.2617 129.716 73.2617C130.167 73.2617 130.536 73.3369 130.823 73.4873C131.11 73.6377 131.338 73.82 131.507 74.0342C131.68 74.2438 131.812 74.4398 131.903 74.6221H131.979V70.8145H133.77V81H132.013V79.79H131.903C131.808 79.9769 131.673 80.1751 131.5 80.3848C131.327 80.5898 131.097 80.7676 130.81 80.918C130.522 81.0638 130.158 81.1367 129.716 81.1367ZM130.215 79.6602C130.598 79.6602 130.921 79.5576 131.186 79.3525C131.454 79.1429 131.66 78.8535 131.801 78.4844C131.942 78.1107 132.013 77.6777 132.013 77.1855C132.013 76.6888 131.942 76.2581 131.801 75.8936C131.664 75.5244 131.461 75.2396 131.192 75.0391C130.928 74.8385 130.602 74.7383 130.215 74.7383C129.818 74.7383 129.486 74.8431 129.217 75.0527C128.948 75.2624 128.745 75.5518 128.608 75.9209C128.476 76.29 128.41 76.7116 128.41 77.1855C128.41 77.6595 128.479 78.0833 128.615 78.457C128.752 78.8307 128.952 79.1247 129.217 79.3389C129.486 79.5531 129.818 79.6602 130.215 79.6602ZM138.486 81.1504C137.721 81.1504 137.06 80.9909 136.504 80.6719C135.948 80.3483 135.52 79.8926 135.219 79.3047C134.923 78.7168 134.774 78.0241 134.774 77.2266C134.774 76.4382 134.923 75.7477 135.219 75.1553C135.515 74.5583 135.932 74.0934 136.47 73.7607C137.007 73.4281 137.641 73.2617 138.37 73.2617C138.84 73.2617 139.284 73.3369 139.703 73.4873C140.127 73.6377 140.501 73.8701 140.824 74.1846C141.152 74.499 141.41 74.9001 141.597 75.3877C141.784 75.8708 141.877 76.4473 141.877 77.1172V77.6777H135.615V76.4678H140.981L140.141 76.8232C140.141 76.3903 140.075 76.0143 139.942 75.6953C139.81 75.3717 139.614 75.1188 139.354 74.9365C139.095 74.7542 138.771 74.6631 138.384 74.6631C137.996 74.6631 137.666 74.7542 137.393 74.9365C137.119 75.1188 136.912 75.3649 136.771 75.6748C136.629 75.9801 136.559 76.3219 136.559 76.7002V77.541C136.559 78.0059 136.638 78.4046 136.798 78.7373C136.962 79.0654 137.19 79.3161 137.481 79.4893C137.778 79.6624 138.122 79.749 138.514 79.749C138.769 79.749 139.001 79.7126 139.211 79.6396C139.425 79.5667 139.607 79.4574 139.758 79.3115C139.913 79.1611 140.031 78.9766 140.113 78.7578L141.795 78.9561C141.686 79.3981 141.483 79.7855 141.187 80.1182C140.895 80.4463 140.519 80.7015 140.059 80.8838C139.603 81.0615 139.079 81.1504 138.486 81.1504ZM142.854 81V73.3574H144.598V74.6426H144.68C144.816 74.196 145.056 73.8542 145.397 73.6172C145.739 73.3757 146.129 73.2549 146.566 73.2549C146.662 73.2549 146.771 73.2594 146.895 73.2686C147.022 73.2777 147.127 73.2891 147.209 73.3027V74.957C147.132 74.9297 147.011 74.9069 146.847 74.8887C146.683 74.8704 146.525 74.8613 146.375 74.8613C146.042 74.8613 145.746 74.932 145.486 75.0732C145.227 75.2145 145.021 75.4082 144.871 75.6543C144.725 75.9004 144.652 76.1875 144.652 76.5156V81H142.854ZM153.04 81.1572C152.552 81.1572 152.115 81.0706 151.728 80.8975C151.34 80.7197 151.035 80.46 150.812 80.1182C150.588 79.7764 150.477 79.3548 150.477 78.8535C150.477 78.4251 150.556 78.0697 150.716 77.7871C150.875 77.5046 151.092 77.279 151.365 77.1104C151.643 76.9417 151.955 76.8141 152.302 76.7275C152.648 76.6364 153.006 76.5726 153.375 76.5361C153.826 76.486 154.191 76.4427 154.469 76.4062C154.747 76.3698 154.947 76.3105 155.07 76.2285C155.198 76.1465 155.262 76.0189 155.262 75.8457V75.8115C155.262 75.4424 155.152 75.1553 154.934 74.9502C154.715 74.7451 154.396 74.6426 153.977 74.6426C153.535 74.6426 153.184 74.7383 152.924 74.9297C152.669 75.1211 152.495 75.3467 152.404 75.6064L150.729 75.3672C150.862 74.9023 151.08 74.515 151.386 74.2051C151.691 73.8906 152.062 73.6559 152.5 73.501C152.942 73.3415 153.43 73.2617 153.963 73.2617C154.327 73.2617 154.692 73.305 155.057 73.3916C155.421 73.4736 155.756 73.6149 156.062 73.8154C156.367 74.016 156.611 74.2848 156.793 74.6221C156.975 74.9593 157.066 75.3809 157.066 75.8867V81H155.337V79.9473H155.282C155.173 80.1569 155.018 80.3551 154.817 80.542C154.621 80.7243 154.375 80.8724 154.079 80.9863C153.787 81.1003 153.441 81.1572 153.04 81.1572ZM153.498 79.8311C153.863 79.8311 154.177 79.7604 154.441 79.6191C154.706 79.4733 154.911 79.2819 155.057 79.0449C155.202 78.8034 155.275 78.5413 155.275 78.2588V77.3633C155.216 77.4089 155.12 77.4521 154.988 77.4932C154.856 77.5296 154.706 77.5638 154.537 77.5957C154.368 77.6276 154.202 77.6549 154.038 77.6777C153.879 77.7005 153.74 77.7188 153.621 77.7324C153.352 77.7689 153.111 77.8304 152.896 77.917C152.687 77.999 152.521 78.113 152.397 78.2588C152.274 78.4046 152.213 78.5938 152.213 78.8262C152.213 79.1589 152.334 79.4095 152.575 79.5781C152.817 79.7467 153.124 79.8311 153.498 79.8311ZM160.197 76.5293V81H158.399V73.3574H160.163V74.6631H160.252C160.425 74.2347 160.696 73.8952 161.065 73.6445C161.439 73.3893 161.913 73.2617 162.487 73.2617C163.016 73.2617 163.476 73.3734 163.868 73.5967C164.26 73.82 164.563 74.1481 164.777 74.5811C164.996 75.0094 165.105 75.529 165.105 76.1396V81H163.308V76.4199C163.308 75.9095 163.175 75.5107 162.911 75.2236C162.647 74.932 162.282 74.7861 161.817 74.7861C161.503 74.7861 161.223 74.8545 160.977 74.9912C160.735 75.1279 160.544 75.3262 160.402 75.5859C160.266 75.8411 160.197 76.1556 160.197 76.5293ZM169.255 81.1367C168.658 81.1367 168.12 80.984 167.642 80.6787C167.168 80.3688 166.794 79.9199 166.521 79.332C166.247 78.7441 166.11 78.0309 166.11 77.1924C166.11 76.3402 166.249 75.6224 166.527 75.0391C166.81 74.4557 167.188 74.0137 167.662 73.7129C168.136 73.4121 168.667 73.2617 169.255 73.2617C169.706 73.2617 170.075 73.3369 170.362 73.4873C170.649 73.6377 170.877 73.82 171.046 74.0342C171.219 74.2438 171.351 74.4398 171.442 74.6221H171.518V70.8145H173.309V81H171.552V79.79H171.442C171.347 79.9769 171.212 80.1751 171.039 80.3848C170.866 80.5898 170.636 80.7676 170.349 80.918C170.062 81.0638 169.697 81.1367 169.255 81.1367ZM169.754 79.6602C170.137 79.6602 170.46 79.5576 170.725 79.3525C170.993 79.1429 171.199 78.8535 171.34 78.4844C171.481 78.1107 171.552 77.6777 171.552 77.1855C171.552 76.6888 171.481 76.2581 171.34 75.8936C171.203 75.5244 171 75.2396 170.731 75.0391C170.467 74.8385 170.141 74.7383 169.754 74.7383C169.357 74.7383 169.025 74.8431 168.756 75.0527C168.487 75.2624 168.284 75.5518 168.147 75.9209C168.015 76.29 167.949 76.7116 167.949 77.1855C167.949 77.6595 168.018 78.0833 168.154 78.457C168.291 78.8307 168.492 79.1247 168.756 79.3389C169.025 79.5531 169.357 79.6602 169.754 79.6602ZM181.402 73.3574V74.752H177.021V73.3574H181.402ZM178.094 71.5391H179.892V78.7031C179.892 79.0039 179.958 79.2272 180.09 79.373C180.222 79.5143 180.432 79.585 180.719 79.585C180.796 79.585 180.883 79.5781 180.979 79.5645C181.074 79.5508 181.161 79.5348 181.238 79.5166L181.546 80.9248C181.354 80.984 181.161 81.0273 180.965 81.0547C180.769 81.0866 180.573 81.1025 180.377 81.1025C179.666 81.1025 179.108 80.9157 178.702 80.542C178.297 80.1637 178.094 79.6488 178.094 78.9971V71.5391ZM185.695 81.1504C184.93 81.1504 184.269 80.9909 183.713 80.6719C183.157 80.3483 182.729 79.8926 182.428 79.3047C182.132 78.7168 181.983 78.0241 181.983 77.2266C181.983 76.4382 182.132 75.7477 182.428 75.1553C182.724 74.5583 183.141 74.0934 183.679 73.7607C184.216 73.4281 184.85 73.2617 185.579 73.2617C186.049 73.2617 186.493 73.3369 186.912 73.4873C187.336 73.6377 187.71 73.8701 188.033 74.1846C188.361 74.499 188.619 74.9001 188.806 75.3877C188.993 75.8708 189.086 76.4473 189.086 77.1172V77.6777H182.824V76.4678H188.19L187.35 76.8232C187.35 76.3903 187.284 76.0143 187.151 75.6953C187.019 75.3717 186.823 75.1188 186.563 74.9365C186.304 74.7542 185.98 74.6631 185.593 74.6631C185.205 74.6631 184.875 74.7542 184.602 74.9365C184.328 75.1188 184.121 75.3649 183.979 75.6748C183.838 75.9801 183.768 76.3219 183.768 76.7002V77.541C183.768 78.0059 183.847 78.4046 184.007 78.7373C184.171 79.0654 184.399 79.3161 184.69 79.4893C184.987 79.6624 185.331 79.749 185.723 79.749C185.978 79.749 186.21 79.7126 186.42 79.6396C186.634 79.5667 186.816 79.4574 186.967 79.3115C187.122 79.1611 187.24 78.9766 187.322 78.7578L189.004 78.9561C188.895 79.3981 188.692 79.7855 188.396 80.1182C188.104 80.4463 187.728 80.7015 187.268 80.8838C186.812 81.0615 186.288 81.1504 185.695 81.1504ZM192.265 81.1572C191.777 81.1572 191.34 81.0706 190.952 80.8975C190.565 80.7197 190.259 80.46 190.036 80.1182C189.813 79.7764 189.701 79.3548 189.701 78.8535C189.701 78.4251 189.781 78.0697 189.94 77.7871C190.1 77.5046 190.316 77.279 190.59 77.1104C190.868 76.9417 191.18 76.8141 191.526 76.7275C191.873 76.6364 192.23 76.5726 192.6 76.5361C193.051 76.486 193.415 76.4427 193.693 76.4062C193.971 76.3698 194.172 76.3105 194.295 76.2285C194.423 76.1465 194.486 76.0189 194.486 75.8457V75.8115C194.486 75.4424 194.377 75.1553 194.158 74.9502C193.939 74.7451 193.62 74.6426 193.201 74.6426C192.759 74.6426 192.408 74.7383 192.148 74.9297C191.893 75.1211 191.72 75.3467 191.629 75.6064L189.954 75.3672C190.086 74.9023 190.305 74.515 190.61 74.2051C190.916 73.8906 191.287 73.6559 191.725 73.501C192.167 73.3415 192.654 73.2617 193.188 73.2617C193.552 73.2617 193.917 73.305 194.281 73.3916C194.646 73.4736 194.981 73.6149 195.286 73.8154C195.591 74.016 195.835 74.2848 196.018 74.6221C196.2 74.9593 196.291 75.3809 196.291 75.8867V81H194.562V79.9473H194.507C194.397 80.1569 194.243 80.3551 194.042 80.542C193.846 80.7243 193.6 80.8724 193.304 80.9863C193.012 81.1003 192.666 81.1572 192.265 81.1572ZM192.723 79.8311C193.087 79.8311 193.402 79.7604 193.666 79.6191C193.93 79.4733 194.135 79.2819 194.281 79.0449C194.427 78.8034 194.5 78.5413 194.5 78.2588V77.3633C194.441 77.4089 194.345 77.4521 194.213 77.4932C194.081 77.5296 193.93 77.5638 193.762 77.5957C193.593 77.6276 193.427 77.6549 193.263 77.6777C193.103 77.7005 192.964 77.7188 192.846 77.7324C192.577 77.7689 192.335 77.8304 192.121 77.917C191.911 77.999 191.745 78.113 191.622 78.2588C191.499 78.4046 191.438 78.5938 191.438 78.8262C191.438 79.1589 191.558 79.4095 191.8 79.5781C192.041 79.7467 192.349 79.8311 192.723 79.8311ZM197.624 81V73.3574H199.34V74.6631H199.436C199.595 74.2256 199.859 73.8838 200.229 73.6377C200.598 73.387 201.035 73.2617 201.541 73.2617C202.061 73.2617 202.498 73.387 202.854 73.6377C203.209 73.8883 203.457 74.2301 203.599 74.6631H203.681C203.854 74.2393 204.141 73.8997 204.542 73.6445C204.943 73.3893 205.422 73.2617 205.978 73.2617C206.679 73.2617 207.251 73.485 207.693 73.9316C208.14 74.3737 208.363 75.0208 208.363 75.873V81H206.559V76.1465C206.559 75.6771 206.431 75.333 206.176 75.1143C205.925 74.891 205.618 74.7793 205.253 74.7793C204.82 74.7793 204.483 74.916 204.241 75.1895C204 75.4583 203.879 75.8047 203.879 76.2285V81H202.102V76.0781C202.102 75.6816 201.985 75.3672 201.753 75.1348C201.521 74.8978 201.213 74.7793 200.83 74.7793C200.57 74.7793 200.333 74.8454 200.119 74.9775C199.905 75.1097 199.734 75.2943 199.606 75.5312C199.483 75.7682 199.422 76.0417 199.422 76.3516V81H197.624ZM215.726 75.3877L214.092 75.5586C214.023 75.3079 213.875 75.0869 213.647 74.8955C213.42 74.6995 213.098 74.6016 212.684 74.6016C212.31 74.6016 211.995 74.6836 211.74 74.8477C211.49 75.0117 211.364 75.2214 211.364 75.4766C211.364 75.6999 211.446 75.8844 211.61 76.0303C211.779 76.1715 212.057 76.2855 212.444 76.3721L213.75 76.6455C214.465 76.7959 215.001 77.042 215.356 77.3838C215.712 77.7256 215.89 78.1676 215.89 78.71C215.89 79.1885 215.751 79.6123 215.473 79.9814C215.195 80.3506 214.81 80.6377 214.317 80.8428C213.83 81.0479 213.267 81.1504 212.629 81.1504C211.695 81.1504 210.943 80.9544 210.373 80.5625C209.808 80.166 209.468 79.6169 209.354 78.915L211.111 78.751C211.189 79.0928 211.357 79.3525 211.617 79.5303C211.882 79.7035 212.219 79.79 212.629 79.79C213.057 79.79 213.401 79.7035 213.661 79.5303C213.921 79.3525 214.051 79.1361 214.051 78.8809C214.051 78.4525 213.709 78.1608 213.025 78.0059L211.72 77.7324C210.986 77.5729 210.444 77.3154 210.093 76.96C209.742 76.5999 209.566 76.1419 209.566 75.5859C209.566 75.112 209.696 74.7018 209.956 74.3555C210.216 74.0091 210.578 73.7402 211.043 73.5488C211.508 73.3574 212.046 73.2617 212.656 73.2617C213.554 73.2617 214.258 73.4554 214.769 73.8428C215.284 74.2256 215.603 74.7406 215.726 75.3877ZM222.015 81.1572C221.527 81.1572 221.09 81.0706 220.702 80.8975C220.315 80.7197 220.009 80.46 219.786 80.1182C219.563 79.7764 219.451 79.3548 219.451 78.8535C219.451 78.4251 219.531 78.0697 219.69 77.7871C219.85 77.5046 220.066 77.279 220.34 77.1104C220.618 76.9417 220.93 76.8141 221.276 76.7275C221.623 76.6364 221.98 76.5726 222.35 76.5361C222.801 76.486 223.165 76.4427 223.443 76.4062C223.721 76.3698 223.922 76.3105 224.045 76.2285C224.173 76.1465 224.236 76.0189 224.236 75.8457V75.8115C224.236 75.4424 224.127 75.1553 223.908 74.9502C223.689 74.7451 223.37 74.6426 222.951 74.6426C222.509 74.6426 222.158 74.7383 221.898 74.9297C221.643 75.1211 221.47 75.3467 221.379 75.6064L219.704 75.3672C219.836 74.9023 220.055 74.515 220.36 74.2051C220.666 73.8906 221.037 73.6559 221.475 73.501C221.917 73.3415 222.404 73.2617 222.938 73.2617C223.302 73.2617 223.667 73.305 224.031 73.3916C224.396 73.4736 224.731 73.6149 225.036 73.8154C225.341 74.016 225.585 74.2848 225.768 74.6221C225.95 74.9593 226.041 75.3809 226.041 75.8867V81H224.312V79.9473H224.257C224.147 80.1569 223.993 80.3551 223.792 80.542C223.596 80.7243 223.35 80.8724 223.054 80.9863C222.762 81.1003 222.416 81.1572 222.015 81.1572ZM222.473 79.8311C222.837 79.8311 223.152 79.7604 223.416 79.6191C223.68 79.4733 223.885 79.2819 224.031 79.0449C224.177 78.8034 224.25 78.5413 224.25 78.2588V77.3633C224.191 77.4089 224.095 77.4521 223.963 77.4932C223.831 77.5296 223.68 77.5638 223.512 77.5957C223.343 77.6276 223.177 77.6549 223.013 77.6777C222.853 77.7005 222.714 77.7188 222.596 77.7324C222.327 77.7689 222.085 77.8304 221.871 77.917C221.661 77.999 221.495 78.113 221.372 78.2588C221.249 78.4046 221.188 78.5938 221.188 78.8262C221.188 79.1589 221.308 79.4095 221.55 79.5781C221.791 79.7467 222.099 79.8311 222.473 79.8311ZM229.172 76.5293V81H227.374V73.3574H229.138V74.6631H229.227C229.4 74.2347 229.671 73.8952 230.04 73.6445C230.414 73.3893 230.888 73.2617 231.462 73.2617C231.991 73.2617 232.451 73.3734 232.843 73.5967C233.235 73.82 233.538 74.1481 233.752 74.5811C233.971 75.0094 234.08 75.529 234.08 76.1396V81H232.282V76.4199C232.282 75.9095 232.15 75.5107 231.886 75.2236C231.621 74.932 231.257 74.7861 230.792 74.7861C230.478 74.7861 230.197 74.8545 229.951 74.9912C229.71 75.1279 229.518 75.3262 229.377 75.5859C229.24 75.8411 229.172 76.1556 229.172 76.5293ZM238.229 81.1367C237.632 81.1367 237.095 80.984 236.616 80.6787C236.142 80.3688 235.769 79.9199 235.495 79.332C235.222 78.7441 235.085 78.0309 235.085 77.1924C235.085 76.3402 235.224 75.6224 235.502 75.0391C235.785 74.4557 236.163 74.0137 236.637 73.7129C237.111 73.4121 237.642 73.2617 238.229 73.2617C238.681 73.2617 239.05 73.3369 239.337 73.4873C239.624 73.6377 239.852 73.82 240.021 74.0342C240.194 74.2438 240.326 74.4398 240.417 74.6221H240.492V70.8145H242.283V81H240.526V79.79H240.417C240.321 79.9769 240.187 80.1751 240.014 80.3848C239.84 80.5898 239.61 80.7676 239.323 80.918C239.036 81.0638 238.672 81.1367 238.229 81.1367ZM238.729 79.6602C239.111 79.6602 239.435 79.5576 239.699 79.3525C239.968 79.1429 240.173 78.8535 240.314 78.4844C240.456 78.1107 240.526 77.6777 240.526 77.1855C240.526 76.6888 240.456 76.2581 240.314 75.8936C240.178 75.5244 239.975 75.2396 239.706 75.0391C239.442 74.8385 239.116 74.7383 238.729 74.7383C238.332 74.7383 237.999 74.8431 237.73 75.0527C237.462 75.2624 237.259 75.5518 237.122 75.9209C236.99 76.29 236.924 76.7116 236.924 77.1855C236.924 77.6595 236.992 78.0833 237.129 78.457C237.266 78.8307 237.466 79.1247 237.73 79.3389C237.999 79.5531 238.332 79.6602 238.729 79.6602ZM249.953 81.1504C249.188 81.1504 248.527 80.9909 247.971 80.6719C247.415 80.3483 246.986 79.8926 246.686 79.3047C246.389 78.7168 246.241 78.0241 246.241 77.2266C246.241 76.4382 246.389 75.7477 246.686 75.1553C246.982 74.5583 247.399 74.0934 247.937 73.7607C248.474 73.4281 249.108 73.2617 249.837 73.2617C250.306 73.2617 250.751 73.3369 251.17 73.4873C251.594 73.6377 251.967 73.8701 252.291 74.1846C252.619 74.499 252.877 74.9001 253.063 75.3877C253.25 75.8708 253.344 76.4473 253.344 77.1172V77.6777H247.082V76.4678H252.448L251.607 76.8232C251.607 76.3903 251.541 76.0143 251.409 75.6953C251.277 75.3717 251.081 75.1188 250.821 74.9365C250.562 74.7542 250.238 74.6631 249.851 74.6631C249.463 74.6631 249.133 74.7542 248.859 74.9365C248.586 75.1188 248.379 75.3649 248.237 75.6748C248.096 75.9801 248.025 76.3219 248.025 76.7002V77.541C248.025 78.0059 248.105 78.4046 248.265 78.7373C248.429 79.0654 248.657 79.3161 248.948 79.4893C249.244 79.6624 249.589 79.749 249.98 79.749C250.236 79.749 250.468 79.7126 250.678 79.6396C250.892 79.5667 251.074 79.4574 251.225 79.3115C251.38 79.1611 251.498 78.9766 251.58 78.7578L253.262 78.9561C253.152 79.3981 252.95 79.7855 252.653 80.1182C252.362 80.4463 251.986 80.7015 251.525 80.8838C251.07 81.0615 250.546 81.1504 249.953 81.1504ZM256.522 81.1572C256.035 81.1572 255.597 81.0706 255.21 80.8975C254.823 80.7197 254.517 80.46 254.294 80.1182C254.071 79.7764 253.959 79.3548 253.959 78.8535C253.959 78.4251 254.039 78.0697 254.198 77.7871C254.358 77.5046 254.574 77.279 254.848 77.1104C255.126 76.9417 255.438 76.8141 255.784 76.7275C256.131 76.6364 256.488 76.5726 256.857 76.5361C257.309 76.486 257.673 76.4427 257.951 76.4062C258.229 76.3698 258.43 76.3105 258.553 76.2285C258.68 76.1465 258.744 76.0189 258.744 75.8457V75.8115C258.744 75.4424 258.635 75.1553 258.416 74.9502C258.197 74.7451 257.878 74.6426 257.459 74.6426C257.017 74.6426 256.666 74.7383 256.406 74.9297C256.151 75.1211 255.978 75.3467 255.887 75.6064L254.212 75.3672C254.344 74.9023 254.563 74.515 254.868 74.2051C255.174 73.8906 255.545 73.6559 255.982 73.501C256.424 73.3415 256.912 73.2617 257.445 73.2617C257.81 73.2617 258.174 73.305 258.539 73.3916C258.904 73.4736 259.239 73.6149 259.544 73.8154C259.849 74.016 260.093 74.2848 260.275 74.6221C260.458 74.9593 260.549 75.3809 260.549 75.8867V81H258.819V79.9473H258.765C258.655 80.1569 258.5 80.3551 258.3 80.542C258.104 80.7243 257.858 80.8724 257.562 80.9863C257.27 81.1003 256.924 81.1572 256.522 81.1572ZM256.98 79.8311C257.345 79.8311 257.66 79.7604 257.924 79.6191C258.188 79.4733 258.393 79.2819 258.539 79.0449C258.685 78.8034 258.758 78.5413 258.758 78.2588V77.3633C258.699 77.4089 258.603 77.4521 258.471 77.4932C258.339 77.5296 258.188 77.5638 258.02 77.5957C257.851 77.6276 257.685 77.6549 257.521 77.6777C257.361 77.7005 257.222 77.7188 257.104 77.7324C256.835 77.7689 256.593 77.8304 256.379 77.917C256.169 77.999 256.003 78.113 255.88 78.2588C255.757 78.4046 255.695 78.5938 255.695 78.8262C255.695 79.1589 255.816 79.4095 256.058 79.5781C256.299 79.7467 256.607 79.8311 256.98 79.8311ZM267.911 75.3877L266.277 75.5586C266.209 75.3079 266.061 75.0869 265.833 74.8955C265.605 74.6995 265.284 74.6016 264.869 74.6016C264.495 74.6016 264.181 74.6836 263.926 74.8477C263.675 75.0117 263.55 75.2214 263.55 75.4766C263.55 75.6999 263.632 75.8844 263.796 76.0303C263.965 76.1715 264.243 76.2855 264.63 76.3721L265.936 76.6455C266.651 76.7959 267.187 77.042 267.542 77.3838C267.897 77.7256 268.075 78.1676 268.075 78.71C268.075 79.1885 267.936 79.6123 267.658 79.9814C267.38 80.3506 266.995 80.6377 266.503 80.8428C266.015 81.0479 265.452 81.1504 264.814 81.1504C263.88 81.1504 263.128 80.9544 262.559 80.5625C261.993 80.166 261.654 79.6169 261.54 78.915L263.297 78.751C263.374 79.0928 263.543 79.3525 263.803 79.5303C264.067 79.7035 264.404 79.79 264.814 79.79C265.243 79.79 265.587 79.7035 265.847 79.5303C266.106 79.3525 266.236 79.1361 266.236 78.8809C266.236 78.4525 265.895 78.1608 265.211 78.0059L263.905 77.7324C263.172 77.5729 262.629 77.3154 262.278 76.96C261.927 76.5999 261.752 76.1419 261.752 75.5859C261.752 75.112 261.882 74.7018 262.142 74.3555C262.401 74.0091 262.764 73.7402 263.229 73.5488C263.693 73.3574 264.231 73.2617 264.842 73.2617C265.74 73.2617 266.444 73.4554 266.954 73.8428C267.469 74.2256 267.788 74.7406 267.911 75.3877ZM270.167 83.8574C269.921 83.862 269.693 83.8438 269.483 83.8027C269.278 83.7663 269.112 83.723 268.984 83.6729L269.408 82.2715L269.497 82.2988C269.862 82.3945 270.172 82.4014 270.427 82.3193C270.687 82.2373 270.894 81.9889 271.049 81.5742L271.199 81.1641L268.438 73.3574H270.345L272.102 79.1338H272.184L273.947 73.3574H275.868L272.806 81.9229C272.664 82.3285 272.478 82.6748 272.245 82.9619C272.013 83.2536 271.726 83.4746 271.384 83.625C271.042 83.7799 270.636 83.8574 270.167 83.8574ZM76.0469 105.15C75.2812 105.15 74.6204 104.991 74.0645 104.672C73.5085 104.348 73.0801 103.893 72.7793 103.305C72.4831 102.717 72.335 102.024 72.335 101.227C72.335 100.438 72.4831 99.7477 72.7793 99.1553C73.0755 98.5583 73.4925 98.0934 74.0303 97.7607C74.568 97.4281 75.2015 97.2617 75.9307 97.2617C76.4001 97.2617 76.8444 97.3369 77.2637 97.4873C77.6875 97.6377 78.0612 97.8701 78.3848 98.1846C78.7129 98.499 78.9704 98.9001 79.1572 99.3877C79.3441 99.8708 79.4375 100.447 79.4375 101.117V101.678H73.1758V100.468H78.542L77.7012 100.823C77.7012 100.39 77.6351 100.014 77.5029 99.6953C77.3708 99.3717 77.1748 99.1188 76.915 98.9365C76.6553 98.7542 76.3317 98.6631 75.9443 98.6631C75.557 98.6631 75.2266 98.7542 74.9531 98.9365C74.6797 99.1188 74.4723 99.3649 74.3311 99.6748C74.1898 99.9801 74.1191 100.322 74.1191 100.7V101.541C74.1191 102.006 74.1989 102.405 74.3584 102.737C74.5225 103.065 74.7503 103.316 75.042 103.489C75.3382 103.662 75.6823 103.749 76.0742 103.749C76.3294 103.749 76.5618 103.713 76.7715 103.64C76.9857 103.567 77.168 103.457 77.3184 103.312C77.4733 103.161 77.5918 102.977 77.6738 102.758L79.3555 102.956C79.2461 103.398 79.0433 103.785 78.7471 104.118C78.4554 104.446 78.0794 104.701 77.6191 104.884C77.1634 105.062 76.6393 105.15 76.0469 105.15ZM82.2129 100.529V105H80.415V97.3574H82.1787V98.6631H82.2676C82.4408 98.2347 82.7119 97.8952 83.0811 97.6445C83.4548 97.3893 83.9287 97.2617 84.5029 97.2617C85.0316 97.2617 85.4919 97.3734 85.8838 97.5967C86.2757 97.82 86.5788 98.1481 86.793 98.5811C87.0117 99.0094 87.1211 99.529 87.1211 100.14V105H85.3232V100.42C85.3232 99.9095 85.1911 99.5107 84.9268 99.2236C84.6624 98.932 84.2979 98.7861 83.833 98.7861C83.5186 98.7861 83.2383 98.8545 82.9922 98.9912C82.7507 99.1279 82.5592 99.3262 82.418 99.5859C82.2812 99.8411 82.2129 100.156 82.2129 100.529ZM91.7832 105.15C91.0358 105.15 90.3887 104.986 89.8418 104.658C89.2949 104.33 88.8711 103.87 88.5703 103.277C88.2741 102.685 88.126 101.997 88.126 101.213C88.126 100.424 88.2741 99.734 88.5703 99.1416C88.8711 98.5446 89.2949 98.082 89.8418 97.7539C90.3887 97.4258 91.0358 97.2617 91.7832 97.2617C92.5306 97.2617 93.1777 97.4258 93.7246 97.7539C94.2715 98.082 94.6953 98.5446 94.9961 99.1416C95.2969 99.734 95.4473 100.424 95.4473 101.213C95.4473 101.997 95.2969 102.685 94.9961 103.277C94.6953 103.87 94.2715 104.33 93.7246 104.658C93.1777 104.986 92.5306 105.15 91.7832 105.15ZM91.7832 103.701C92.1979 103.701 92.5397 103.592 92.8086 103.373C93.0775 103.15 93.278 102.849 93.4102 102.471C93.5469 102.092 93.6152 101.673 93.6152 101.213C93.6152 100.743 93.5469 100.32 93.4102 99.9414C93.278 99.5632 93.0775 99.2646 92.8086 99.0459C92.5397 98.8226 92.1979 98.7109 91.7832 98.7109C91.3776 98.7109 91.0381 98.8226 90.7646 99.0459C90.4912 99.2646 90.2861 99.5632 90.1494 99.9414C90.0173 100.32 89.9512 100.743 89.9512 101.213C89.9512 101.673 90.0173 102.092 90.1494 102.471C90.2861 102.849 90.4912 103.15 90.7646 103.373C91.0381 103.592 91.3776 103.701 91.7832 103.701ZM101.306 101.794V97.3574H103.104V105H101.36V103.64H101.278C101.105 104.068 100.823 104.419 100.431 104.692C100.039 104.966 99.5557 105.1 98.9814 105.096C98.4801 105.096 98.0381 104.986 97.6553 104.768C97.277 104.544 96.9785 104.218 96.7598 103.79C96.5456 103.357 96.4385 102.835 96.4385 102.225V97.3574H98.2363V101.951C98.2363 102.43 98.3685 102.812 98.6328 103.1C98.9017 103.387 99.2526 103.528 99.6855 103.523C99.9499 103.523 100.205 103.46 100.451 103.332C100.702 103.204 100.907 103.013 101.066 102.758C101.226 102.503 101.306 102.181 101.306 101.794ZM107.745 108.021C106.774 108.021 106.011 107.832 105.455 107.454C104.899 107.08 104.541 106.627 104.382 106.094L105.995 105.697C106.068 105.848 106.175 105.996 106.316 106.142C106.458 106.292 106.647 106.415 106.884 106.511C107.121 106.611 107.419 106.661 107.779 106.661C108.29 106.661 108.711 106.536 109.044 106.285C109.381 106.039 109.55 105.636 109.55 105.075V103.633H109.447C109.361 103.815 109.229 104.004 109.051 104.2C108.873 104.392 108.638 104.556 108.347 104.692C108.06 104.825 107.695 104.891 107.253 104.891C106.67 104.891 106.139 104.752 105.66 104.474C105.186 104.196 104.808 103.781 104.525 103.229C104.247 102.678 104.108 101.988 104.108 101.158C104.108 100.32 104.247 99.611 104.525 99.0322C104.808 98.4535 105.188 98.0137 105.667 97.7129C106.146 97.4121 106.679 97.2617 107.267 97.2617C107.713 97.2617 108.082 97.3369 108.374 97.4873C108.666 97.6377 108.898 97.82 109.071 98.0342C109.244 98.2438 109.379 98.4398 109.475 98.6221H109.57V97.3574H111.327V105.123C111.327 105.775 111.172 106.315 110.862 106.743C110.552 107.172 110.126 107.491 109.584 107.7C109.046 107.914 108.433 108.021 107.745 108.021ZM107.759 103.476C108.333 103.476 108.775 103.271 109.085 102.86C109.399 102.446 109.557 101.874 109.557 101.145C109.557 100.661 109.488 100.24 109.352 99.8799C109.215 99.5199 109.012 99.2396 108.743 99.0391C108.474 98.8385 108.146 98.7383 107.759 98.7383C107.358 98.7383 107.023 98.8431 106.754 99.0527C106.485 99.2624 106.282 99.5495 106.146 99.9141C106.013 100.274 105.947 100.684 105.947 101.145C105.947 101.609 106.016 102.017 106.152 102.368C106.289 102.719 106.492 102.993 106.761 103.188C107.034 103.38 107.367 103.476 107.759 103.476ZM114.451 100.529V105H112.653V94.8145H114.41V98.6631H114.506C114.684 98.2301 114.959 97.8883 115.333 97.6377C115.707 97.387 116.188 97.2617 116.775 97.2617C117.304 97.2617 117.764 97.3734 118.156 97.5967C118.553 97.82 118.86 98.1458 119.079 98.5742C119.298 99.0026 119.407 99.5244 119.407 100.14V105H117.603V100.42C117.603 99.9004 117.47 99.4993 117.206 99.2168C116.942 98.9297 116.573 98.7861 116.099 98.7861C115.78 98.7861 115.495 98.8545 115.244 98.9912C114.998 99.1279 114.804 99.3262 114.663 99.5859C114.522 99.8411 114.451 100.156 114.451 100.529ZM127.569 97.3574V98.752H123.064V97.3574H127.569ZM124.186 105V96.6396C124.186 96.1247 124.293 95.6963 124.507 95.3545C124.721 95.0127 125.008 94.7575 125.368 94.5889C125.733 94.4202 126.134 94.3359 126.571 94.3359C126.886 94.3359 127.164 94.361 127.405 94.4111C127.651 94.4613 127.831 94.5068 127.945 94.5479L127.576 95.9424C127.503 95.915 127.41 95.89 127.296 95.8672C127.182 95.8398 127.052 95.8262 126.906 95.8262C126.574 95.8262 126.334 95.9082 126.188 96.0723C126.047 96.2363 125.977 96.4688 125.977 96.7695V105H124.186ZM131.514 105.15C130.766 105.15 130.119 104.986 129.572 104.658C129.025 104.33 128.602 103.87 128.301 103.277C128.005 102.685 127.856 101.997 127.856 101.213C127.856 100.424 128.005 99.734 128.301 99.1416C128.602 98.5446 129.025 98.082 129.572 97.7539C130.119 97.4258 130.766 97.2617 131.514 97.2617C132.261 97.2617 132.908 97.4258 133.455 97.7539C134.002 98.082 134.426 98.5446 134.727 99.1416C135.027 99.734 135.178 100.424 135.178 101.213C135.178 101.997 135.027 102.685 134.727 103.277C134.426 103.87 134.002 104.33 133.455 104.658C132.908 104.986 132.261 105.15 131.514 105.15ZM131.514 103.701C131.928 103.701 132.27 103.592 132.539 103.373C132.808 103.15 133.008 102.849 133.141 102.471C133.277 102.092 133.346 101.673 133.346 101.213C133.346 100.743 133.277 100.32 133.141 99.9414C133.008 99.5632 132.808 99.2646 132.539 99.0459C132.27 98.8226 131.928 98.7109 131.514 98.7109C131.108 98.7109 130.769 98.8226 130.495 99.0459C130.222 99.2646 130.017 99.5632 129.88 99.9414C129.748 100.32 129.682 100.743 129.682 101.213C129.682 101.673 129.748 102.092 129.88 102.471C130.017 102.849 130.222 103.15 130.495 103.373C130.769 103.592 131.108 103.701 131.514 103.701ZM136.169 105V97.3574H137.912V98.6426H137.994C138.131 98.196 138.37 97.8542 138.712 97.6172C139.054 97.3757 139.443 97.2549 139.881 97.2549C139.977 97.2549 140.086 97.2594 140.209 97.2686C140.337 97.2777 140.441 97.2891 140.523 97.3027V98.957C140.446 98.9297 140.325 98.9069 140.161 98.8887C139.997 98.8704 139.84 98.8613 139.689 98.8613C139.357 98.8613 139.061 98.932 138.801 99.0732C138.541 99.2145 138.336 99.4082 138.186 99.6543C138.04 99.9004 137.967 100.188 137.967 100.516V105H136.169ZM148.036 97.3574V98.752H143.531V97.3574H148.036ZM144.652 105V96.6396C144.652 96.1247 144.759 95.6963 144.974 95.3545C145.188 95.0127 145.475 94.7575 145.835 94.5889C146.2 94.4202 146.601 94.3359 147.038 94.3359C147.353 94.3359 147.631 94.361 147.872 94.4111C148.118 94.4613 148.298 94.5068 148.412 94.5479L148.043 95.9424C147.97 95.915 147.877 95.89 147.763 95.8672C147.649 95.8398 147.519 95.8262 147.373 95.8262C147.04 95.8262 146.801 95.9082 146.655 96.0723C146.514 96.2363 146.443 96.4688 146.443 96.7695V105H144.652ZM150.88 105.157C150.392 105.157 149.955 105.071 149.567 104.897C149.18 104.72 148.875 104.46 148.651 104.118C148.428 103.776 148.316 103.355 148.316 102.854C148.316 102.425 148.396 102.07 148.556 101.787C148.715 101.505 148.932 101.279 149.205 101.11C149.483 100.942 149.795 100.814 150.142 100.728C150.488 100.636 150.846 100.573 151.215 100.536C151.666 100.486 152.031 100.443 152.309 100.406C152.587 100.37 152.787 100.311 152.91 100.229C153.038 100.146 153.102 100.019 153.102 99.8457V99.8115C153.102 99.4424 152.992 99.1553 152.773 98.9502C152.555 98.7451 152.236 98.6426 151.816 98.6426C151.374 98.6426 151.023 98.7383 150.764 98.9297C150.508 99.1211 150.335 99.3467 150.244 99.6064L148.569 99.3672C148.701 98.9023 148.92 98.515 149.226 98.2051C149.531 97.8906 149.902 97.6559 150.34 97.501C150.782 97.3415 151.27 97.2617 151.803 97.2617C152.167 97.2617 152.532 97.305 152.896 97.3916C153.261 97.4736 153.596 97.6149 153.901 97.8154C154.207 98.016 154.451 98.2848 154.633 98.6221C154.815 98.9593 154.906 99.3809 154.906 99.8867V105H153.177V103.947H153.122C153.013 104.157 152.858 104.355 152.657 104.542C152.461 104.724 152.215 104.872 151.919 104.986C151.627 105.1 151.281 105.157 150.88 105.157ZM151.338 103.831C151.702 103.831 152.017 103.76 152.281 103.619C152.546 103.473 152.751 103.282 152.896 103.045C153.042 102.803 153.115 102.541 153.115 102.259V101.363C153.056 101.409 152.96 101.452 152.828 101.493C152.696 101.53 152.546 101.564 152.377 101.596C152.208 101.628 152.042 101.655 151.878 101.678C151.718 101.701 151.579 101.719 151.461 101.732C151.192 101.769 150.951 101.83 150.736 101.917C150.527 101.999 150.36 102.113 150.237 102.259C150.114 102.405 150.053 102.594 150.053 102.826C150.053 103.159 150.174 103.41 150.415 103.578C150.657 103.747 150.964 103.831 151.338 103.831ZM156.239 105V97.3574H157.955V98.6631H158.051C158.21 98.2256 158.475 97.8838 158.844 97.6377C159.213 97.387 159.65 97.2617 160.156 97.2617C160.676 97.2617 161.113 97.387 161.469 97.6377C161.824 97.8883 162.073 98.2301 162.214 98.6631H162.296C162.469 98.2393 162.756 97.8997 163.157 97.6445C163.558 97.3893 164.037 97.2617 164.593 97.2617C165.295 97.2617 165.867 97.485 166.309 97.9316C166.755 98.3737 166.979 99.0208 166.979 99.873V105H165.174V100.146C165.174 99.6771 165.046 99.333 164.791 99.1143C164.54 98.891 164.233 98.7793 163.868 98.7793C163.435 98.7793 163.098 98.916 162.856 99.1895C162.615 99.4583 162.494 99.8047 162.494 100.229V105H160.717V100.078C160.717 99.6816 160.601 99.3672 160.368 99.1348C160.136 98.8978 159.828 98.7793 159.445 98.7793C159.186 98.7793 158.949 98.8454 158.734 98.9775C158.52 99.1097 158.349 99.2943 158.222 99.5312C158.099 99.7682 158.037 100.042 158.037 100.352V105H156.239ZM168.312 105V97.3574H170.109V105H168.312ZM169.214 96.2842C168.927 96.2842 168.681 96.1885 168.476 95.9971C168.271 95.8057 168.168 95.5755 168.168 95.3066C168.168 95.0332 168.271 94.8008 168.476 94.6094C168.681 94.418 168.927 94.3223 169.214 94.3223C169.496 94.3223 169.74 94.418 169.945 94.6094C170.15 94.8008 170.253 95.0309 170.253 95.2998C170.253 95.5732 170.15 95.8057 169.945 95.9971C169.74 96.1885 169.496 96.2842 169.214 96.2842ZM173.24 94.8145V105H171.442V94.8145H173.24ZM175.694 107.857C175.448 107.862 175.22 107.844 175.011 107.803C174.806 107.766 174.639 107.723 174.512 107.673L174.936 106.271L175.024 106.299C175.389 106.395 175.699 106.401 175.954 106.319C176.214 106.237 176.421 105.989 176.576 105.574L176.727 105.164L173.965 97.3574H175.872L177.629 103.134H177.711L179.475 97.3574H181.396L178.333 105.923C178.192 106.328 178.005 106.675 177.772 106.962C177.54 107.254 177.253 107.475 176.911 107.625C176.569 107.78 176.164 107.857 175.694 107.857ZM188.382 108.021C187.411 108.021 186.648 107.832 186.092 107.454C185.536 107.08 185.178 106.627 185.019 106.094L186.632 105.697C186.705 105.848 186.812 105.996 186.953 106.142C187.094 106.292 187.284 106.415 187.521 106.511C187.757 106.611 188.056 106.661 188.416 106.661C188.926 106.661 189.348 106.536 189.681 106.285C190.018 106.039 190.187 105.636 190.187 105.075V103.633H190.084C189.997 103.815 189.865 104.004 189.688 104.2C189.51 104.392 189.275 104.556 188.983 104.692C188.696 104.825 188.332 104.891 187.89 104.891C187.306 104.891 186.775 104.752 186.297 104.474C185.823 104.196 185.445 103.781 185.162 103.229C184.884 102.678 184.745 101.988 184.745 101.158C184.745 100.32 184.884 99.611 185.162 99.0322C185.445 98.4535 185.825 98.0137 186.304 97.7129C186.782 97.4121 187.315 97.2617 187.903 97.2617C188.35 97.2617 188.719 97.3369 189.011 97.4873C189.302 97.6377 189.535 97.82 189.708 98.0342C189.881 98.2438 190.016 98.4398 190.111 98.6221H190.207V97.3574H191.964V105.123C191.964 105.775 191.809 106.315 191.499 106.743C191.189 107.172 190.763 107.491 190.221 107.7C189.683 107.914 189.07 108.021 188.382 108.021ZM188.396 103.476C188.97 103.476 189.412 103.271 189.722 102.86C190.036 102.446 190.193 101.874 190.193 101.145C190.193 100.661 190.125 100.24 189.988 99.8799C189.852 99.5199 189.649 99.2396 189.38 99.0391C189.111 98.8385 188.783 98.7383 188.396 98.7383C187.994 98.7383 187.66 98.8431 187.391 99.0527C187.122 99.2624 186.919 99.5495 186.782 99.9141C186.65 100.274 186.584 100.684 186.584 101.145C186.584 101.609 186.652 102.017 186.789 102.368C186.926 102.719 187.129 102.993 187.397 103.188C187.671 103.38 188.004 103.476 188.396 103.476ZM195.491 105.157C195.004 105.157 194.566 105.071 194.179 104.897C193.791 104.72 193.486 104.46 193.263 104.118C193.039 103.776 192.928 103.355 192.928 102.854C192.928 102.425 193.007 102.07 193.167 101.787C193.326 101.505 193.543 101.279 193.816 101.11C194.094 100.942 194.407 100.814 194.753 100.728C195.099 100.636 195.457 100.573 195.826 100.536C196.277 100.486 196.642 100.443 196.92 100.406C197.198 100.37 197.398 100.311 197.521 100.229C197.649 100.146 197.713 100.019 197.713 99.8457V99.8115C197.713 99.4424 197.604 99.1553 197.385 98.9502C197.166 98.7451 196.847 98.6426 196.428 98.6426C195.986 98.6426 195.635 98.7383 195.375 98.9297C195.12 99.1211 194.947 99.3467 194.855 99.6064L193.181 99.3672C193.313 98.9023 193.532 98.515 193.837 98.2051C194.142 97.8906 194.514 97.6559 194.951 97.501C195.393 97.3415 195.881 97.2617 196.414 97.2617C196.779 97.2617 197.143 97.305 197.508 97.3916C197.872 97.4736 198.207 97.6149 198.513 97.8154C198.818 98.016 199.062 98.2848 199.244 98.6221C199.426 98.9593 199.518 99.3809 199.518 99.8867V105H197.788V103.947H197.733C197.624 104.157 197.469 104.355 197.269 104.542C197.073 104.724 196.826 104.872 196.53 104.986C196.239 105.1 195.892 105.157 195.491 105.157ZM195.949 103.831C196.314 103.831 196.628 103.76 196.893 103.619C197.157 103.473 197.362 103.282 197.508 103.045C197.654 102.803 197.727 102.541 197.727 102.259V101.363C197.667 101.409 197.572 101.452 197.439 101.493C197.307 101.53 197.157 101.564 196.988 101.596C196.82 101.628 196.653 101.655 196.489 101.678C196.33 101.701 196.191 101.719 196.072 101.732C195.803 101.769 195.562 101.83 195.348 101.917C195.138 101.999 194.972 102.113 194.849 102.259C194.726 102.405 194.664 102.594 194.664 102.826C194.664 103.159 194.785 103.41 195.026 103.578C195.268 103.747 195.576 103.831 195.949 103.831ZM200.851 105V97.3574H202.566V98.6631H202.662C202.822 98.2256 203.086 97.8838 203.455 97.6377C203.824 97.387 204.262 97.2617 204.768 97.2617C205.287 97.2617 205.725 97.387 206.08 97.6377C206.436 97.8883 206.684 98.2301 206.825 98.6631H206.907C207.08 98.2393 207.368 97.8997 207.769 97.6445C208.17 97.3893 208.648 97.2617 209.204 97.2617C209.906 97.2617 210.478 97.485 210.92 97.9316C211.367 98.3737 211.59 99.0208 211.59 99.873V105H209.785V100.146C209.785 99.6771 209.658 99.333 209.402 99.1143C209.152 98.891 208.844 98.7793 208.479 98.7793C208.047 98.7793 207.709 98.916 207.468 99.1895C207.226 99.4583 207.105 99.8047 207.105 100.229V105H205.328V100.078C205.328 99.6816 205.212 99.3672 204.979 99.1348C204.747 98.8978 204.439 98.7793 204.057 98.7793C203.797 98.7793 203.56 98.8454 203.346 98.9775C203.132 99.1097 202.961 99.2943 202.833 99.5312C202.71 99.7682 202.648 100.042 202.648 100.352V105H200.851ZM216.307 105.15C215.541 105.15 214.88 104.991 214.324 104.672C213.768 104.348 213.34 103.893 213.039 103.305C212.743 102.717 212.595 102.024 212.595 101.227C212.595 100.438 212.743 99.7477 213.039 99.1553C213.335 98.5583 213.752 98.0934 214.29 97.7607C214.828 97.4281 215.461 97.2617 216.19 97.2617C216.66 97.2617 217.104 97.3369 217.523 97.4873C217.947 97.6377 218.321 97.8701 218.645 98.1846C218.973 98.499 219.23 98.9001 219.417 99.3877C219.604 99.8708 219.697 100.447 219.697 101.117V101.678H213.436V100.468H218.802L217.961 100.823C217.961 100.39 217.895 100.014 217.763 99.6953C217.631 99.3717 217.435 99.1188 217.175 98.9365C216.915 98.7542 216.591 98.6631 216.204 98.6631C215.817 98.6631 215.486 98.7542 215.213 98.9365C214.939 99.1188 214.732 99.3649 214.591 99.6748C214.45 99.9801 214.379 100.322 214.379 100.7V101.541C214.379 102.006 214.459 102.405 214.618 102.737C214.782 103.065 215.01 103.316 215.302 103.489C215.598 103.662 215.942 103.749 216.334 103.749C216.589 103.749 216.822 103.713 217.031 103.64C217.245 103.567 217.428 103.457 217.578 103.312C217.733 103.161 217.852 102.977 217.934 102.758L219.615 102.956C219.506 103.398 219.303 103.785 219.007 104.118C218.715 104.446 218.339 104.701 217.879 104.884C217.423 105.062 216.899 105.15 216.307 105.15ZM225.426 100.529V105H223.628V97.3574H225.392V98.6631H225.48C225.654 98.2347 225.925 97.8952 226.294 97.6445C226.668 97.3893 227.142 97.2617 227.716 97.2617C228.244 97.2617 228.705 97.3734 229.097 97.5967C229.489 97.82 229.792 98.1481 230.006 98.5811C230.225 99.0094 230.334 99.529 230.334 100.14V105H228.536V100.42C228.536 99.9095 228.404 99.5107 228.14 99.2236C227.875 98.932 227.511 98.7861 227.046 98.7861C226.731 98.7861 226.451 98.8545 226.205 98.9912C225.964 99.1279 225.772 99.3262 225.631 99.5859C225.494 99.8411 225.426 100.156 225.426 100.529ZM231.667 105V97.3574H233.465V105H231.667ZM232.569 96.2842C232.282 96.2842 232.036 96.1885 231.831 95.9971C231.626 95.8057 231.523 95.5755 231.523 95.3066C231.523 95.0332 231.626 94.8008 231.831 94.6094C232.036 94.418 232.282 94.3223 232.569 94.3223C232.852 94.3223 233.096 94.418 233.301 94.6094C233.506 94.8008 233.608 95.0309 233.608 95.2998C233.608 95.5732 233.506 95.8057 233.301 95.9971C233.096 96.1885 232.852 96.2842 232.569 96.2842ZM238.106 108.021C237.136 108.021 236.372 107.832 235.816 107.454C235.26 107.08 234.903 106.627 234.743 106.094L236.356 105.697C236.429 105.848 236.536 105.996 236.678 106.142C236.819 106.292 237.008 106.415 237.245 106.511C237.482 106.611 237.781 106.661 238.141 106.661C238.651 106.661 239.073 106.536 239.405 106.285C239.743 106.039 239.911 105.636 239.911 105.075V103.633H239.809C239.722 103.815 239.59 104.004 239.412 104.2C239.234 104.392 239 104.556 238.708 104.692C238.421 104.825 238.056 104.891 237.614 104.891C237.031 104.891 236.5 104.752 236.021 104.474C235.548 104.196 235.169 103.781 234.887 103.229C234.609 102.678 234.47 101.988 234.47 101.158C234.47 100.32 234.609 99.611 234.887 99.0322C235.169 98.4535 235.55 98.0137 236.028 97.7129C236.507 97.4121 237.04 97.2617 237.628 97.2617C238.075 97.2617 238.444 97.3369 238.735 97.4873C239.027 97.6377 239.259 97.82 239.433 98.0342C239.606 98.2438 239.74 98.4398 239.836 98.6221H239.932V97.3574H241.688V105.123C241.688 105.775 241.534 106.315 241.224 106.743C240.914 107.172 240.488 107.491 239.945 107.7C239.408 107.914 238.795 108.021 238.106 108.021ZM238.12 103.476C238.694 103.476 239.136 103.271 239.446 102.86C239.761 102.446 239.918 101.874 239.918 101.145C239.918 100.661 239.85 100.24 239.713 99.8799C239.576 99.5199 239.373 99.2396 239.104 99.0391C238.836 98.8385 238.507 98.7383 238.12 98.7383C237.719 98.7383 237.384 98.8431 237.115 99.0527C236.846 99.2624 236.644 99.5495 236.507 99.9141C236.375 100.274 236.309 100.684 236.309 101.145C236.309 101.609 236.377 102.017 236.514 102.368C236.65 102.719 236.853 102.993 237.122 103.188C237.396 103.38 237.728 103.476 238.12 103.476ZM244.812 100.529V105H243.015V94.8145H244.771V98.6631H244.867C245.045 98.2301 245.321 97.8883 245.694 97.6377C246.068 97.387 246.549 97.2617 247.137 97.2617C247.665 97.2617 248.126 97.3734 248.518 97.5967C248.914 97.82 249.222 98.1458 249.44 98.5742C249.659 99.0026 249.769 99.5244 249.769 100.14V105H247.964V100.42C247.964 99.9004 247.832 99.4993 247.567 99.2168C247.303 98.9297 246.934 98.7861 246.46 98.7861C246.141 98.7861 245.856 98.8545 245.605 98.9912C245.359 99.1279 245.166 99.3262 245.024 99.5859C244.883 99.8411 244.812 100.156 244.812 100.529ZM254.902 97.3574V98.752H250.521V97.3574H254.902ZM251.594 95.5391H253.392V102.703C253.392 103.004 253.458 103.227 253.59 103.373C253.722 103.514 253.932 103.585 254.219 103.585C254.296 103.585 254.383 103.578 254.479 103.564C254.574 103.551 254.661 103.535 254.738 103.517L255.046 104.925C254.854 104.984 254.661 105.027 254.465 105.055C254.269 105.087 254.073 105.103 253.877 105.103C253.166 105.103 252.608 104.916 252.202 104.542C251.797 104.164 251.594 103.649 251.594 102.997V95.5391ZM257.206 105.116C256.896 105.116 256.634 105.011 256.42 104.802C256.21 104.588 256.105 104.328 256.105 104.022C256.105 103.717 256.21 103.46 256.42 103.25C256.634 103.036 256.896 102.929 257.206 102.929C257.516 102.929 257.776 103.036 257.985 103.25C258.2 103.46 258.307 103.717 258.307 104.022C258.307 104.328 258.2 104.588 257.985 104.802C257.776 105.011 257.516 105.116 257.206 105.116Z" fill="#121212" fill-opacity="0.6"/>
<path d="M281.022 82.9699C283.8 71.8257 295.087 65.0445 306.229 67.8224C316.712 70.4353 323.334 80.5757 321.772 91.0441H321.873L321.378 93.0314C318.6 104.175 307.312 110.956 296.167 108.178C285.026 105.4 278.243 94.1124 281.022 82.9699Z" fill="black" stroke="white" stroke-width="3.2"/>
<path d="M307.166 79.0002H295.166C294.37 79.0002 293.607 79.3163 293.045 79.8789C292.482 80.4415 292.166 81.2045 292.166 82.0002V94.0002C292.166 94.7958 292.482 95.5589 293.045 96.1215C293.607 96.6841 294.37 97.0002 295.166 97.0002H307.166C307.962 97.0002 308.725 96.6841 309.287 96.1215C309.85 95.5589 310.166 94.7958 310.166 94.0002V82.0002C310.166 81.2045 309.85 80.4415 309.287 79.8789C308.725 79.3163 307.962 79.0002 307.166 79.0002ZM297.791 93.2502C297.569 93.2502 297.351 93.1842 297.166 93.0606C296.981 92.937 296.837 92.7613 296.752 92.5557C296.667 92.3501 296.644 92.1239 296.688 91.9057C296.731 91.6875 296.838 91.487 296.996 91.3297C297.153 91.1724 297.353 91.0652 297.572 91.0218C297.79 90.9784 298.016 91.0007 298.222 91.0858C298.427 91.171 298.603 91.3152 298.726 91.5002C298.85 91.6852 298.916 91.9027 298.916 92.1252C298.916 92.4236 298.797 92.7097 298.587 92.9207C298.376 93.1317 298.089 93.2502 297.791 93.2502ZM297.791 89.1252C297.569 89.1252 297.351 89.0592 297.166 88.9356C296.981 88.812 296.837 88.6363 296.752 88.4307C296.667 88.2251 296.644 87.9989 296.688 87.7807C296.731 87.5625 296.838 87.362 296.996 87.2047C297.153 87.0474 297.353 86.9402 297.572 86.8968C297.79 86.8534 298.016 86.8757 298.222 86.9608C298.427 87.046 298.603 87.1902 298.726 87.3752C298.85 87.5602 298.916 87.7777 298.916 88.0002C298.916 88.2986 298.797 88.5847 298.587 88.7957C298.376 89.0067 298.089 89.1252 297.791 89.1252ZM297.791 85.0002C297.569 85.0002 297.351 84.9342 297.166 84.8106C296.981 84.687 296.837 84.5113 296.752 84.3057C296.667 84.1001 296.644 83.8739 296.688 83.6557C296.731 83.4375 296.838 83.237 296.996 83.0797C297.153 82.9224 297.353 82.8152 297.572 82.7718C297.79 82.7284 298.016 82.7507 298.222 82.8358C298.427 82.921 298.603 83.0652 298.726 83.2502C298.85 83.4352 298.916 83.6527 298.916 83.8752C298.916 84.1736 298.797 84.4597 298.587 84.6707C298.376 84.8817 298.089 85.0002 297.791 85.0002ZM304.541 93.2502C304.319 93.2502 304.101 93.1842 303.916 93.0606C303.731 92.937 303.587 92.7613 303.502 92.5557C303.417 92.3501 303.394 92.1239 303.438 91.9057C303.481 91.6875 303.588 91.487 303.746 91.3297C303.903 91.1724 304.103 91.0652 304.322 91.0218C304.54 90.9784 304.766 91.0007 304.972 91.0858C305.177 91.171 305.353 91.3152 305.476 91.5002C305.6 91.6852 305.666 91.9027 305.666 92.1252C305.666 92.4236 305.547 92.7097 305.337 92.9207C305.126 93.1317 304.839 93.2502 304.541 93.2502ZM304.541 89.1252C304.319 89.1252 304.101 89.0592 303.916 88.9356C303.731 88.812 303.587 88.6363 303.502 88.4307C303.417 88.2251 303.394 87.9989 303.438 87.7807C303.481 87.5625 303.588 87.362 303.746 87.2047C303.903 87.0474 304.103 86.9402 304.322 86.8968C304.54 86.8534 304.766 86.8757 304.972 86.9608C305.177 87.046 305.353 87.1902 305.476 87.3752C305.6 87.5602 305.666 87.7777 305.666 88.0002C305.666 88.2986 305.547 88.5847 305.337 88.7957C305.126 89.0067 304.839 89.1252 304.541 89.1252ZM304.541 85.0002C304.319 85.0002 304.101 84.9342 303.916 84.8106C303.731 84.687 303.587 84.5113 303.502 84.3057C303.417 84.1001 303.394 83.8739 303.438 83.6557C303.481 83.4375 303.588 83.237 303.746 83.0797C303.903 82.9224 304.103 82.8152 304.322 82.7718C304.54 82.7284 304.766 82.7507 304.972 82.8358C305.177 82.921 305.353 83.0652 305.476 83.2502C305.6 83.4352 305.666 83.6527 305.666 83.8752C305.666 84.1736 305.547 84.4597 305.337 84.6707C305.126 84.8817 304.839 85.0002 304.541 85.0002Z" fill="white"/>
<path d="M313.022 82.9698C315.8 71.8257 327.087 65.0444 338.229 67.8224C348.712 70.4353 355.334 80.5757 353.772 91.0441H353.873L353.378 93.0314C350.6 104.175 339.312 110.956 328.167 108.178C317.026 105.4 310.243 94.1124 313.022 82.9698Z" fill="#1D8746" stroke="white" stroke-width="3.2"/>
<path d="M332.957 78.25C331.029 78.25 329.144 78.8218 327.54 79.8932C325.937 80.9645 324.687 82.4873 323.949 84.2688C323.211 86.0504 323.018 88.0108 323.394 89.9021C323.771 91.7934 324.699 93.5307 326.063 94.8943C327.426 96.2579 329.164 97.1865 331.055 97.5627C332.946 97.9389 334.907 97.7458 336.688 97.0078C338.47 96.2699 339.993 95.0202 341.064 93.4168C342.135 91.8134 342.707 89.9284 342.707 88C342.704 85.415 341.676 82.9366 339.848 81.1087C338.02 79.2808 335.542 78.2527 332.957 78.25ZM341.207 88C341.208 89.0584 341.004 90.107 340.607 91.0881L336.416 88.5109C336.238 88.401 336.039 88.3298 335.831 88.3019L333.692 88.0131C333.397 87.9747 333.098 88.0241 332.831 88.1552C332.564 88.2863 332.342 88.4932 332.192 88.75H331.375L331.018 88.0131C330.92 87.8079 330.776 87.628 330.597 87.4871C330.418 87.3462 330.21 87.2481 329.987 87.2003L329.237 87.0381L329.97 85.75H331.537C331.79 85.7495 332.039 85.685 332.261 85.5625L333.41 84.9288C333.511 84.8725 333.605 84.8052 333.691 84.7281L336.214 82.4462C336.467 82.2196 336.635 81.9135 336.691 81.5784C336.746 81.2433 336.686 80.8993 336.52 80.6031L336.486 80.5422C337.897 81.2116 339.09 82.2676 339.926 83.5876C340.762 84.9077 341.206 86.4377 341.207 88ZM324.707 88C324.706 86.7738 324.979 85.5628 325.508 84.4562L326.571 87.2941C326.659 87.529 326.806 87.738 326.996 87.9018C327.186 88.0656 327.415 88.179 327.66 88.2316L329.669 88.6637L330.026 89.4062C330.15 89.6588 330.342 89.8716 330.581 90.0207C330.82 90.1698 331.095 90.2492 331.376 90.25H331.515L330.837 91.7716C330.718 92.0395 330.68 92.3365 330.727 92.626C330.775 92.9154 330.906 93.1845 331.105 93.4L331.119 93.4131L332.957 95.3069L332.775 96.2444C330.621 96.1942 328.571 95.3041 327.064 93.7638C325.556 92.2235 324.711 90.1551 324.707 88Z" fill="#31DE74"/>
</g>
<defs>
<filter id="filter0_d_4539_3408" x="0" y="0" width="420" height="184" filterUnits="userSpaceOnUse" color-interpolation-filters="sRGB">
<feFlood flood-opacity="0" result="BackgroundImageFix"/>
<feColorMatrix in="SourceAlpha" type="matrix" values="0 0 0 0 0 0 0 0 0 0 0 0 0 0 0 0 0 0 127 0" result="hardAlpha"/>
<feOffset dy="4"/>
<feGaussianBlur stdDeviation="28"/>
<feComposite in2="hardAlpha" operator="out"/>
<feColorMatrix type="matrix" values="0 0 0 0 0.323092 0 0 0 0 0.323092 0 0 0 0 0.323092 0 0 0 0.25 0"/>
<feBlend mode="normal" in2="BackgroundImageFix" result="effect1_dropShadow_4539_3408"/>
<feBlend mode="normal" in="SourceGraphic" in2="effect1_dropShadow_4539_3408" result="shape"/>
</filter>
</defs>
</svg>
