<svg width="455" height="176" viewBox="0 0 455 176" fill="none" xmlns="http://www.w3.org/2000/svg">
<g filter="url(#filter0_d_4539_3390)">
<path d="M56 72C56 60.9543 64.9543 52 76 52H379C390.046 52 399 60.9543 399 72V96C399 107.046 390.046 116 379 116H76C64.9543 116 56 107.046 56 96V72Z" fill="#FAFAFA" shape-rendering="crispEdges"/>
<path d="M76 52.5H379C389.77 52.5 398.5 61.2304 398.5 72V96C398.5 106.77 389.77 115.5 379 115.5H76C65.2304 115.5 56.5 106.77 56.5 96V72C56.5 61.2304 65.2304 52.5 76 52.5Z" stroke="white" shape-rendering="crispEdges"/>
<rect x="72" y="64" width="40" height="40" rx="12" fill="#FF4BA8"/>
<path d="M105.125 75.875V75.25C105.124 73.8957 104.722 72.5721 103.971 71.4452C103.22 70.3183 102.152 69.4383 100.903 68.9157C99.6536 68.3932 98.2777 68.2513 96.9479 68.5078C95.6181 68.7644 94.3937 69.408 93.4284 70.3578C93.3713 70.4154 93.3261 70.4837 93.2956 70.5587C93.265 70.6338 93.2496 70.7142 93.2502 70.7953V84.6578C93.2505 84.7705 93.2813 84.881 93.3393 84.9776C93.3972 85.0743 93.4802 85.1534 93.5795 85.2068C93.6788 85.2601 93.7906 85.2856 93.9032 85.2805C94.0158 85.2755 94.1249 85.2401 94.219 85.1781C95.4076 84.416 96.7883 84.0074 98.2002 84C98.5271 83.9939 98.8438 84.1133 99.0853 84.3336C99.3268 84.5539 99.4748 84.8584 99.4987 85.1844C99.5076 85.354 99.4819 85.5236 99.423 85.6829C99.3642 85.8422 99.2736 85.9879 99.1566 86.111C99.0396 86.2341 98.8988 86.3321 98.7427 86.399C98.5866 86.4659 98.4185 86.5002 98.2487 86.5C96.9226 86.5 95.6508 87.0268 94.7132 87.9645C93.7755 88.9021 93.2487 90.1739 93.2487 91.5V96.7938C93.2486 96.8872 93.2694 96.9796 93.3097 97.064C93.35 97.1483 93.4087 97.2226 93.4815 97.2812C94.3685 98.0153 95.4129 98.535 96.5334 98.7998C97.6539 99.0645 98.8204 99.0674 99.9422 98.808C101.064 98.5486 102.111 98.034 103.001 97.3041C103.892 96.5743 104.602 95.649 105.077 94.6C105.125 94.4945 105.142 94.3778 105.127 94.2629C105.113 94.1481 105.067 94.0395 104.994 93.9494C104.921 93.8593 104.825 93.7912 104.715 93.7527C104.606 93.7142 104.488 93.7067 104.375 93.7313C103.596 93.9098 102.799 94 102 94H100.792C100.47 94.004 100.158 93.8859 99.9188 93.6694C99.6797 93.453 99.5313 93.1541 99.5034 92.8328C99.492 92.6618 99.5159 92.4903 99.5737 92.329C99.6314 92.1676 99.7216 92.0199 99.8389 91.8949C99.9561 91.7699 100.098 91.6703 100.255 91.6024C100.412 91.5345 100.582 91.4996 100.753 91.5H102.003C103.309 91.502 104.596 91.1867 105.753 90.5812C107.124 89.8676 108.262 88.7779 109.035 87.4402C109.808 86.1024 110.184 84.5719 110.118 83.0283C110.052 81.4846 109.547 79.9918 108.663 78.7248C107.779 77.4578 106.551 76.4692 105.125 75.875ZM103.25 81.5H102.625C101.133 81.5 99.7027 80.9074 98.6478 79.8525C97.5929 78.7976 97.0002 77.3668 97.0002 75.875V75.25C97.0002 74.9185 97.1319 74.6005 97.3664 74.3661C97.6008 74.1317 97.9187 74 98.2502 74C98.5818 74 98.8997 74.1317 99.1341 74.3661C99.3686 74.6005 99.5002 74.9185 99.5002 75.25V75.875C99.5002 76.2854 99.5811 76.6917 99.7381 77.0709C99.8952 77.45 100.125 77.7945 100.416 78.0847C101.002 78.6708 101.796 79 102.625 79H103.25C103.582 79 103.9 79.1317 104.134 79.3661C104.369 79.6005 104.5 79.9185 104.5 80.25C104.5 80.5815 104.369 80.8995 104.134 81.1339C103.9 81.3683 103.582 81.5 103.25 81.5ZM85.7502 68.375C83.9275 68.3771 82.18 69.1021 80.8912 70.3909C79.6023 71.6798 78.8773 73.4273 78.8752 75.25V75.875C77.4492 76.4696 76.2222 77.4584 75.3382 78.7256C74.4543 79.9927 73.9499 81.4857 73.8843 83.0293C73.8187 84.5729 74.1946 86.1033 74.9679 87.4409C75.7411 88.7785 76.8798 89.8678 78.2502 90.5812C79.4074 91.1867 80.6943 91.502 82.0002 91.5H83.2081C83.5311 91.4952 83.8439 91.613 84.0837 91.8295C84.3234 92.046 84.4722 92.3453 84.5002 92.6672C84.5116 92.8382 84.4877 93.0097 84.43 93.171C84.3722 93.3324 84.282 93.4801 84.1647 93.6051C84.0475 93.7301 83.9059 93.8297 83.7485 93.8976C83.5912 93.9655 83.4216 94.0004 83.2502 94H82.0002C81.2004 94.0003 80.4031 93.9096 79.6237 93.7297C79.5106 93.705 79.3928 93.7122 79.2836 93.7506C79.1744 93.7889 79.0779 93.8568 79.005 93.9467C78.9321 94.0366 78.8856 94.145 78.8707 94.2598C78.8558 94.3746 78.873 94.4913 78.9206 94.5969C79.3951 95.6461 80.1053 96.5718 80.9958 97.3019C81.8864 98.0321 82.9333 98.547 84.0552 98.8067C85.1771 99.0664 86.3438 99.0638 87.4646 98.7993C88.5854 98.5347 89.6301 98.0152 90.5174 97.2812C90.5902 97.2226 90.6489 97.1483 90.6892 97.064C90.7295 96.9796 90.7504 96.8872 90.7502 96.7938V91.5C90.7502 90.1739 90.2235 88.9021 89.2858 87.9645C88.3481 87.0268 87.0763 86.5 85.7502 86.5C85.5804 86.5002 85.4123 86.4659 85.2562 86.399C85.1001 86.3321 84.9593 86.2341 84.8423 86.111C84.7254 85.9879 84.6347 85.8422 84.5759 85.6829C84.5171 85.5236 84.4913 85.354 84.5002 85.1844C84.5242 84.8581 84.6723 84.5534 84.9142 84.3331C85.156 84.1127 85.4731 83.9935 85.8002 84C87.2122 84.0074 88.5929 84.416 89.7815 85.1781C89.8756 85.2401 89.9847 85.2755 90.0973 85.2805C90.2099 85.2856 90.3217 85.2601 90.421 85.2068C90.5203 85.1534 90.6033 85.0743 90.6612 84.9776C90.7192 84.881 90.7499 84.7705 90.7502 84.6578V70.7953C90.7508 70.6313 90.6868 70.4736 90.5721 70.3563C89.2887 69.0863 87.5558 68.3743 85.7502 68.375ZM87.0002 75.875C87.0002 77.3668 86.4076 78.7976 85.3527 79.8525C84.2978 80.9074 82.8671 81.5 81.3752 81.5H80.7502C80.4187 81.5 80.1008 81.3683 79.8664 81.1339C79.6319 80.8995 79.5002 80.5815 79.5002 80.25C79.5002 79.9185 79.6319 79.6005 79.8664 79.3661C80.1008 79.1317 80.4187 79 80.7502 79H81.3752C81.7856 79 82.192 78.9192 82.5711 78.7621C82.9503 78.6051 83.2948 78.3749 83.585 78.0847C83.8751 77.7945 84.1053 77.45 84.2624 77.0709C84.4194 76.6917 84.5002 76.2854 84.5002 75.875V75.25C84.5002 74.9185 84.6319 74.6005 84.8664 74.3661C85.1008 74.1317 85.4187 74 85.7502 74C86.0818 74 86.3997 74.1317 86.6341 74.3661C86.8685 74.6005 87.0002 74.9185 87.0002 75.25V75.875Z" fill="#FBC3E0"/>
<path d="M124.336 80.125V78.3594H133.617V80.125H130.023V90H127.938V80.125H124.336ZM136.766 84.8906V90H134.711V78.3594H136.719V82.7578H136.828C137.031 82.263 137.346 81.8724 137.773 81.5859C138.201 81.2995 138.75 81.1562 139.422 81.1562C140.026 81.1562 140.552 81.2839 141 81.5391C141.453 81.7943 141.805 82.1667 142.055 82.6562C142.305 83.1458 142.43 83.7422 142.43 84.4453V90H140.367V84.7656C140.367 84.1719 140.216 83.7135 139.914 83.3906C139.612 83.0625 139.19 82.8984 138.648 82.8984C138.284 82.8984 137.958 82.9766 137.672 83.1328C137.391 83.2891 137.169 83.5156 137.008 83.8125C136.846 84.1042 136.766 84.4635 136.766 84.8906ZM143.945 90V81.2656H146V90H143.945ZM144.977 80.0391C144.648 80.0391 144.367 79.9297 144.133 79.7109C143.898 79.4922 143.781 79.2292 143.781 78.9219C143.781 78.6094 143.898 78.3438 144.133 78.125C144.367 77.9062 144.648 77.7969 144.977 77.7969C145.299 77.7969 145.578 77.9062 145.812 78.125C146.047 78.3438 146.164 78.6068 146.164 78.9141C146.164 79.2266 146.047 79.4922 145.812 79.7109C145.578 79.9297 145.299 80.0391 144.977 80.0391ZM149.578 84.8906V90H147.523V81.2656H149.539V82.7578H149.641C149.839 82.2682 150.148 81.8802 150.57 81.5938C150.997 81.3021 151.539 81.1562 152.195 81.1562C152.799 81.1562 153.326 81.2839 153.773 81.5391C154.221 81.7943 154.568 82.1693 154.812 82.6641C155.062 83.1536 155.188 83.7474 155.188 84.4453V90H153.133V84.7656C153.133 84.1823 152.982 83.7266 152.68 83.3984C152.378 83.0651 151.961 82.8984 151.43 82.8984C151.07 82.8984 150.75 82.9766 150.469 83.1328C150.193 83.2891 149.974 83.5156 149.812 83.8125C149.656 84.1042 149.578 84.4635 149.578 84.8906ZM158.586 87.2656L158.578 84.7734H158.914L162.047 81.2656H164.453L160.594 85.5703H160.164L158.586 87.2656ZM156.711 90V78.3594H158.766V90H156.711ZM162.188 90L159.344 86.0312L160.734 84.5781L164.648 90H162.188ZM173.023 81.2656V82.8594H167.875V81.2656H173.023ZM169.156 90V80.4453C169.156 79.8568 169.279 79.3672 169.523 78.9766C169.768 78.5859 170.096 78.2943 170.508 78.1016C170.924 77.9089 171.383 77.8125 171.883 77.8125C172.242 77.8125 172.56 77.8411 172.836 77.8984C173.117 77.9557 173.323 78.0078 173.453 78.0547L173.031 79.6484C172.948 79.6172 172.841 79.5885 172.711 79.5625C172.581 79.5312 172.432 79.5156 172.266 79.5156C171.885 79.5156 171.612 79.6094 171.445 79.7969C171.284 79.9844 171.203 80.25 171.203 80.5938V90H169.156ZM176.273 90.1797C175.716 90.1797 175.216 90.0807 174.773 89.8828C174.331 89.6797 173.982 89.3828 173.727 88.9922C173.471 88.6016 173.344 88.1198 173.344 87.5469C173.344 87.0573 173.435 86.651 173.617 86.3281C173.799 86.0052 174.047 85.7474 174.359 85.5547C174.677 85.362 175.034 85.2161 175.43 85.1172C175.826 85.013 176.234 84.9401 176.656 84.8984C177.172 84.8411 177.589 84.7917 177.906 84.75C178.224 84.7083 178.453 84.6406 178.594 84.5469C178.74 84.4531 178.812 84.3073 178.812 84.1094V84.0703C178.812 83.6484 178.688 83.3203 178.438 83.0859C178.188 82.8516 177.823 82.7344 177.344 82.7344C176.839 82.7344 176.438 82.8438 176.141 83.0625C175.849 83.2812 175.651 83.5391 175.547 83.8359L173.633 83.5625C173.784 83.0312 174.034 82.5885 174.383 82.2344C174.732 81.875 175.156 81.6068 175.656 81.4297C176.161 81.2474 176.719 81.1562 177.328 81.1562C177.745 81.1562 178.161 81.2057 178.578 81.3047C178.995 81.3984 179.378 81.5599 179.727 81.7891C180.076 82.0182 180.354 82.3255 180.562 82.7109C180.771 83.0964 180.875 83.5781 180.875 84.1562V90H178.898V88.7969H178.836C178.711 89.0365 178.534 89.263 178.305 89.4766C178.081 89.6849 177.799 89.8542 177.461 89.9844C177.128 90.1146 176.732 90.1797 176.273 90.1797ZM176.797 88.6641C177.214 88.6641 177.573 88.5833 177.875 88.4219C178.177 88.2552 178.411 88.0365 178.578 87.7656C178.745 87.4896 178.828 87.1901 178.828 86.8672V85.8438C178.76 85.8958 178.651 85.9453 178.5 85.9922C178.349 86.0339 178.177 86.0729 177.984 86.1094C177.792 86.1458 177.602 86.1771 177.414 86.2031C177.232 86.2292 177.073 86.25 176.938 86.2656C176.63 86.3073 176.354 86.3776 176.109 86.4766C175.87 86.5703 175.68 86.7005 175.539 86.8672C175.398 87.0339 175.328 87.25 175.328 87.5156C175.328 87.8958 175.466 88.1823 175.742 88.375C176.018 88.5677 176.37 88.6641 176.797 88.6641ZM189.289 83.5859L187.422 83.7812C187.344 83.4948 187.174 83.2422 186.914 83.0234C186.654 82.7995 186.286 82.6875 185.812 82.6875C185.385 82.6875 185.026 82.7812 184.734 82.9688C184.448 83.1562 184.305 83.3958 184.305 83.6875C184.305 83.9427 184.398 84.1536 184.586 84.3203C184.779 84.4818 185.096 84.612 185.539 84.7109L187.031 85.0234C187.849 85.1953 188.461 85.4766 188.867 85.8672C189.273 86.2578 189.477 86.763 189.477 87.3828C189.477 87.9297 189.318 88.4141 189 88.8359C188.682 89.2578 188.242 89.5859 187.68 89.8203C187.122 90.0547 186.479 90.1719 185.75 90.1719C184.682 90.1719 183.823 89.9479 183.172 89.5C182.526 89.0469 182.138 88.4193 182.008 87.6172L184.016 87.4297C184.104 87.8203 184.297 88.1172 184.594 88.3203C184.896 88.5182 185.281 88.6172 185.75 88.6172C186.24 88.6172 186.633 88.5182 186.93 88.3203C187.227 88.1172 187.375 87.8698 187.375 87.5781C187.375 87.0885 186.984 86.7552 186.203 86.5781L184.711 86.2656C183.872 86.0833 183.253 85.7891 182.852 85.3828C182.451 84.9714 182.25 84.4479 182.25 83.8125C182.25 83.2708 182.398 82.8021 182.695 82.4062C182.992 82.0104 183.406 81.7031 183.938 81.4844C184.469 81.2656 185.083 81.1562 185.781 81.1562C186.807 81.1562 187.612 81.3776 188.195 81.8203C188.784 82.2578 189.148 82.8464 189.289 83.5859ZM194.938 81.2656V82.8594H189.93V81.2656H194.938ZM191.156 79.1875H193.211V87.375C193.211 87.7188 193.286 87.974 193.438 88.1406C193.589 88.3021 193.828 88.3828 194.156 88.3828C194.245 88.3828 194.344 88.375 194.453 88.3594C194.562 88.3438 194.661 88.3255 194.75 88.3047L195.102 89.9141C194.883 89.9818 194.661 90.0312 194.438 90.0625C194.214 90.099 193.99 90.1172 193.766 90.1172C192.953 90.1172 192.315 89.9036 191.852 89.4766C191.388 89.0443 191.156 88.4557 191.156 87.7109V79.1875ZM199.844 90.1719C198.969 90.1719 198.214 89.9896 197.578 89.625C196.943 89.2552 196.453 88.7344 196.109 88.0625C195.771 87.3906 195.602 86.599 195.602 85.6875C195.602 84.7865 195.771 83.9974 196.109 83.3203C196.448 82.638 196.924 82.1068 197.539 81.7266C198.154 81.3464 198.878 81.1562 199.711 81.1562C200.247 81.1562 200.755 81.2422 201.234 81.4141C201.719 81.5859 202.146 81.8516 202.516 82.2109C202.891 82.5703 203.185 83.0286 203.398 83.5859C203.612 84.138 203.719 84.7969 203.719 85.5625V86.2031H196.562V84.8203H202.695L201.734 85.2266C201.734 84.7318 201.659 84.3021 201.508 83.9375C201.357 83.5677 201.133 83.2786 200.836 83.0703C200.539 82.862 200.169 82.7578 199.727 82.7578C199.284 82.7578 198.906 82.862 198.594 83.0703C198.281 83.2786 198.044 83.5599 197.883 83.9141C197.721 84.263 197.641 84.6536 197.641 85.0859V86.0469C197.641 86.5781 197.732 87.0339 197.914 87.4141C198.102 87.7891 198.362 88.0755 198.695 88.2734C199.034 88.4714 199.427 88.5703 199.875 88.5703C200.167 88.5703 200.432 88.5286 200.672 88.4453C200.917 88.362 201.125 88.237 201.297 88.0703C201.474 87.8984 201.609 87.6875 201.703 87.4375L203.625 87.6641C203.5 88.1693 203.268 88.612 202.93 88.9922C202.596 89.3672 202.167 89.6589 201.641 89.8672C201.12 90.0703 200.521 90.1719 199.844 90.1719ZM204.836 90V81.2656H206.828V82.7344H206.922C207.078 82.224 207.352 81.8333 207.742 81.5625C208.133 81.2865 208.578 81.1484 209.078 81.1484C209.188 81.1484 209.312 81.1536 209.453 81.1641C209.599 81.1745 209.719 81.1875 209.812 81.2031V83.0938C209.724 83.0625 209.586 83.0365 209.398 83.0156C209.211 82.9948 209.031 82.9844 208.859 82.9844C208.479 82.9844 208.141 83.0651 207.844 83.2266C207.547 83.388 207.312 83.6094 207.141 83.8906C206.974 84.1719 206.891 84.5 206.891 84.875V90H204.836ZM209.484 92.9922L210.172 88.2734H212.281L210.914 92.9922H209.484ZM220.57 90.1562C219.888 90.1562 219.273 89.9818 218.727 89.6328C218.185 89.2786 217.758 88.7656 217.445 88.0938C217.133 87.4219 216.977 86.6068 216.977 85.6484C216.977 84.6745 217.135 83.8542 217.453 83.1875C217.776 82.5208 218.208 82.0156 218.75 81.6719C219.292 81.3281 219.898 81.1562 220.57 81.1562C221.086 81.1562 221.508 81.2422 221.836 81.4141C222.164 81.5859 222.424 81.7943 222.617 82.0391C222.815 82.2786 222.966 82.5026 223.07 82.7109H223.156V78.3594H225.203V90H223.195V88.6172H223.07C222.961 88.8307 222.807 89.0573 222.609 89.2969C222.411 89.5312 222.148 89.7344 221.82 89.9062C221.492 90.0729 221.076 90.1562 220.57 90.1562ZM221.141 88.4688C221.578 88.4688 221.948 88.3516 222.25 88.1172C222.557 87.8776 222.792 87.5469 222.953 87.125C223.115 86.6979 223.195 86.2031 223.195 85.6406C223.195 85.0729 223.115 84.5807 222.953 84.1641C222.797 83.7422 222.565 83.4167 222.258 83.1875C221.956 82.9583 221.583 82.8438 221.141 82.8438C220.688 82.8438 220.307 82.9635 220 83.2031C219.693 83.4427 219.461 83.7734 219.305 84.1953C219.154 84.6172 219.078 85.099 219.078 85.6406C219.078 86.1823 219.156 86.6667 219.312 87.0938C219.469 87.5208 219.698 87.8568 220 88.1016C220.307 88.3464 220.688 88.4688 221.141 88.4688ZM230.594 90.1719C229.719 90.1719 228.964 89.9896 228.328 89.625C227.693 89.2552 227.203 88.7344 226.859 88.0625C226.521 87.3906 226.352 86.599 226.352 85.6875C226.352 84.7865 226.521 83.9974 226.859 83.3203C227.198 82.638 227.674 82.1068 228.289 81.7266C228.904 81.3464 229.628 81.1562 230.461 81.1562C230.997 81.1562 231.505 81.2422 231.984 81.4141C232.469 81.5859 232.896 81.8516 233.266 82.2109C233.641 82.5703 233.935 83.0286 234.148 83.5859C234.362 84.138 234.469 84.7969 234.469 85.5625V86.2031H227.312V84.8203H233.445L232.484 85.2266C232.484 84.7318 232.409 84.3021 232.258 83.9375C232.107 83.5677 231.883 83.2786 231.586 83.0703C231.289 82.862 230.919 82.7578 230.477 82.7578C230.034 82.7578 229.656 82.862 229.344 83.0703C229.031 83.2786 228.794 83.5599 228.633 83.9141C228.471 84.263 228.391 84.6536 228.391 85.0859V86.0469C228.391 86.5781 228.482 87.0339 228.664 87.4141C228.852 87.7891 229.112 88.0755 229.445 88.2734C229.784 88.4714 230.177 88.5703 230.625 88.5703C230.917 88.5703 231.182 88.5286 231.422 88.4453C231.667 88.362 231.875 88.237 232.047 88.0703C232.224 87.8984 232.359 87.6875 232.453 87.4375L234.375 87.6641C234.25 88.1693 234.018 88.612 233.68 88.9922C233.346 89.3672 232.917 89.6589 232.391 89.8672C231.87 90.0703 231.271 90.1719 230.594 90.1719ZM239.391 90.1719C238.521 90.1719 237.773 89.9818 237.148 89.6016C236.523 89.2161 236.044 88.6849 235.711 88.0078C235.378 87.3307 235.211 86.5521 235.211 85.6719C235.211 84.7812 235.38 83.9974 235.719 83.3203C236.057 82.6432 236.539 82.1146 237.164 81.7344C237.789 81.349 238.526 81.1562 239.375 81.1562C240.089 81.1562 240.719 81.2865 241.266 81.5469C241.812 81.8073 242.247 82.1745 242.57 82.6484C242.898 83.1172 243.086 83.6667 243.133 84.2969H241.164C241.112 84.0156 241.01 83.763 240.859 83.5391C240.708 83.3151 240.51 83.138 240.266 83.0078C240.026 82.8776 239.74 82.8125 239.406 82.8125C238.984 82.8125 238.615 82.9271 238.297 83.1562C237.984 83.3802 237.74 83.7031 237.562 84.125C237.385 84.5469 237.297 85.0521 237.297 85.6406C237.297 86.2344 237.383 86.7474 237.555 87.1797C237.727 87.6068 237.971 87.9375 238.289 88.1719C238.607 88.401 238.979 88.5156 239.406 88.5156C239.859 88.5156 240.242 88.3828 240.555 88.1172C240.872 87.8516 241.076 87.4844 241.164 87.0156H243.133C243.086 87.6354 242.904 88.1823 242.586 88.6562C242.268 89.1302 241.839 89.5026 241.297 89.7734C240.755 90.0391 240.12 90.1719 239.391 90.1719ZM244.242 90V81.2656H246.297V90H244.242ZM245.273 80.0391C244.945 80.0391 244.664 79.9297 244.43 79.7109C244.195 79.4922 244.078 79.2292 244.078 78.9219C244.078 78.6094 244.195 78.3438 244.43 78.125C244.664 77.9062 244.945 77.7969 245.273 77.7969C245.596 77.7969 245.875 77.9062 246.109 78.125C246.344 78.3438 246.461 78.6068 246.461 78.9141C246.461 79.2266 246.344 79.4922 246.109 79.7109C245.875 79.9297 245.596 80.0391 245.273 80.0391ZM251.039 90.1562C250.357 90.1562 249.742 89.9818 249.195 89.6328C248.654 89.2786 248.227 88.7656 247.914 88.0938C247.602 87.4219 247.445 86.6068 247.445 85.6484C247.445 84.6745 247.604 83.8542 247.922 83.1875C248.245 82.5208 248.677 82.0156 249.219 81.6719C249.76 81.3281 250.367 81.1562 251.039 81.1562C251.555 81.1562 251.977 81.2422 252.305 81.4141C252.633 81.5859 252.893 81.7943 253.086 82.0391C253.284 82.2786 253.435 82.5026 253.539 82.7109H253.625V78.3594H255.672V90H253.664V88.6172H253.539C253.43 88.8307 253.276 89.0573 253.078 89.2969C252.88 89.5312 252.617 89.7344 252.289 89.9062C251.961 90.0729 251.544 90.1562 251.039 90.1562ZM251.609 88.4688C252.047 88.4688 252.417 88.3516 252.719 88.1172C253.026 87.8776 253.26 87.5469 253.422 87.125C253.583 86.6979 253.664 86.2031 253.664 85.6406C253.664 85.0729 253.583 84.5807 253.422 84.1641C253.266 83.7422 253.034 83.4167 252.727 83.1875C252.424 82.9583 252.052 82.8438 251.609 82.8438C251.156 82.8438 250.776 82.9635 250.469 83.2031C250.161 83.4427 249.93 83.7734 249.773 84.1953C249.622 84.6172 249.547 85.099 249.547 85.6406C249.547 86.1823 249.625 86.6667 249.781 87.0938C249.938 87.5208 250.167 87.8568 250.469 88.1016C250.776 88.3464 251.156 88.4688 251.609 88.4688ZM261.062 90.1719C260.188 90.1719 259.432 89.9896 258.797 89.625C258.161 89.2552 257.672 88.7344 257.328 88.0625C256.99 87.3906 256.82 86.599 256.82 85.6875C256.82 84.7865 256.99 83.9974 257.328 83.3203C257.667 82.638 258.143 82.1068 258.758 81.7266C259.372 81.3464 260.096 81.1562 260.93 81.1562C261.466 81.1562 261.974 81.2422 262.453 81.4141C262.938 81.5859 263.365 81.8516 263.734 82.2109C264.109 82.5703 264.404 83.0286 264.617 83.5859C264.831 84.138 264.938 84.7969 264.938 85.5625V86.2031H257.781V84.8203H263.914L262.953 85.2266C262.953 84.7318 262.878 84.3021 262.727 83.9375C262.576 83.5677 262.352 83.2786 262.055 83.0703C261.758 82.862 261.388 82.7578 260.945 82.7578C260.503 82.7578 260.125 82.862 259.812 83.0703C259.5 83.2786 259.263 83.5599 259.102 83.9141C258.94 84.263 258.859 84.6536 258.859 85.0859V86.0469C258.859 86.5781 258.951 87.0339 259.133 87.4141C259.32 87.7891 259.581 88.0755 259.914 88.2734C260.253 88.4714 260.646 88.5703 261.094 88.5703C261.385 88.5703 261.651 88.5286 261.891 88.4453C262.135 88.362 262.344 88.237 262.516 88.0703C262.693 87.8984 262.828 87.6875 262.922 87.4375L264.844 87.6641C264.719 88.1693 264.487 88.612 264.148 88.9922C263.815 89.3672 263.385 89.6589 262.859 89.8672C262.339 90.0703 261.74 90.1719 261.062 90.1719ZM276.32 83.5859L274.453 83.7812C274.375 83.4948 274.206 83.2422 273.945 83.0234C273.685 82.7995 273.318 82.6875 272.844 82.6875C272.417 82.6875 272.057 82.7812 271.766 82.9688C271.479 83.1562 271.336 83.3958 271.336 83.6875C271.336 83.9427 271.43 84.1536 271.617 84.3203C271.81 84.4818 272.128 84.612 272.57 84.7109L274.062 85.0234C274.88 85.1953 275.492 85.4766 275.898 85.8672C276.305 86.2578 276.508 86.763 276.508 87.3828C276.508 87.9297 276.349 88.4141 276.031 88.8359C275.714 89.2578 275.273 89.5859 274.711 89.8203C274.154 90.0547 273.51 90.1719 272.781 90.1719C271.714 90.1719 270.854 89.9479 270.203 89.5C269.557 89.0469 269.169 88.4193 269.039 87.6172L271.047 87.4297C271.135 87.8203 271.328 88.1172 271.625 88.3203C271.927 88.5182 272.312 88.6172 272.781 88.6172C273.271 88.6172 273.664 88.5182 273.961 88.3203C274.258 88.1172 274.406 87.8698 274.406 87.5781C274.406 87.0885 274.016 86.7552 273.234 86.5781L271.742 86.2656C270.904 86.0833 270.284 85.7891 269.883 85.3828C269.482 84.9714 269.281 84.4479 269.281 83.8125C269.281 83.2708 269.43 82.8021 269.727 82.4062C270.023 82.0104 270.438 81.7031 270.969 81.4844C271.5 81.2656 272.115 81.1562 272.812 81.1562C273.839 81.1562 274.643 81.3776 275.227 81.8203C275.815 82.2578 276.18 82.8464 276.32 83.5859ZM277.617 90V81.2656H279.578V82.7578H279.688C279.87 82.2578 280.172 81.8672 280.594 81.5859C281.016 81.2995 281.516 81.1562 282.094 81.1562C282.688 81.1562 283.188 81.2995 283.594 81.5859C284 81.8724 284.284 82.263 284.445 82.7578H284.539C284.737 82.2734 285.065 81.8854 285.523 81.5938C285.982 81.3021 286.529 81.1562 287.164 81.1562C287.966 81.1562 288.62 81.4115 289.125 81.9219C289.635 82.4271 289.891 83.1667 289.891 84.1406V90H287.828V84.4531C287.828 83.9167 287.682 83.5234 287.391 83.2734C287.104 83.0182 286.753 82.8906 286.336 82.8906C285.841 82.8906 285.456 83.0469 285.18 83.3594C284.904 83.6667 284.766 84.0625 284.766 84.5469V90H282.734V84.375C282.734 83.9219 282.602 83.5625 282.336 83.2969C282.07 83.026 281.719 82.8906 281.281 82.8906C280.984 82.8906 280.714 82.9661 280.469 83.1172C280.224 83.2682 280.029 83.4792 279.883 83.75C279.742 84.0208 279.672 84.3333 279.672 84.6875V90H277.617ZM293.93 90.1797C293.372 90.1797 292.872 90.0807 292.43 89.8828C291.987 89.6797 291.638 89.3828 291.383 88.9922C291.128 88.6016 291 88.1198 291 87.5469C291 87.0573 291.091 86.651 291.273 86.3281C291.456 86.0052 291.703 85.7474 292.016 85.5547C292.333 85.362 292.69 85.2161 293.086 85.1172C293.482 85.013 293.891 84.9401 294.312 84.8984C294.828 84.8411 295.245 84.7917 295.562 84.75C295.88 84.7083 296.109 84.6406 296.25 84.5469C296.396 84.4531 296.469 84.3073 296.469 84.1094V84.0703C296.469 83.6484 296.344 83.3203 296.094 83.0859C295.844 82.8516 295.479 82.7344 295 82.7344C294.495 82.7344 294.094 82.8438 293.797 83.0625C293.505 83.2812 293.307 83.5391 293.203 83.8359L291.289 83.5625C291.44 83.0312 291.69 82.5885 292.039 82.2344C292.388 81.875 292.812 81.6068 293.312 81.4297C293.818 81.2474 294.375 81.1562 294.984 81.1562C295.401 81.1562 295.818 81.2057 296.234 81.3047C296.651 81.3984 297.034 81.5599 297.383 81.7891C297.732 82.0182 298.01 82.3255 298.219 82.7109C298.427 83.0964 298.531 83.5781 298.531 84.1562V90H296.555V88.7969H296.492C296.367 89.0365 296.19 89.263 295.961 89.4766C295.737 89.6849 295.456 89.8542 295.117 89.9844C294.784 90.1146 294.388 90.1797 293.93 90.1797ZM294.453 88.6641C294.87 88.6641 295.229 88.5833 295.531 88.4219C295.833 88.2552 296.068 88.0365 296.234 87.7656C296.401 87.4896 296.484 87.1901 296.484 86.8672V85.8438C296.417 85.8958 296.307 85.9453 296.156 85.9922C296.005 86.0339 295.833 86.0729 295.641 86.1094C295.448 86.1458 295.258 86.1771 295.07 86.2031C294.888 86.2292 294.729 86.25 294.594 86.2656C294.286 86.3073 294.01 86.3776 293.766 86.4766C293.526 86.5703 293.336 86.7005 293.195 86.8672C293.055 87.0339 292.984 87.25 292.984 87.5156C292.984 87.8958 293.122 88.1823 293.398 88.375C293.674 88.5677 294.026 88.6641 294.453 88.6641ZM300.055 90V81.2656H302.047V82.7344H302.141C302.297 82.224 302.57 81.8333 302.961 81.5625C303.352 81.2865 303.797 81.1484 304.297 81.1484C304.406 81.1484 304.531 81.1536 304.672 81.1641C304.818 81.1745 304.938 81.1875 305.031 81.2031V83.0938C304.943 83.0625 304.805 83.0365 304.617 83.0156C304.43 82.9948 304.25 82.9844 304.078 82.9844C303.698 82.9844 303.359 83.0651 303.062 83.2266C302.766 83.388 302.531 83.6094 302.359 83.8906C302.193 84.1719 302.109 84.5 302.109 84.875V90H300.055ZM310.625 81.2656V82.8594H305.617V81.2656H310.625ZM306.844 79.1875H308.898V87.375C308.898 87.7188 308.974 87.974 309.125 88.1406C309.276 88.3021 309.516 88.3828 309.844 88.3828C309.932 88.3828 310.031 88.375 310.141 88.3594C310.25 88.3438 310.349 88.3255 310.438 88.3047L310.789 89.9141C310.57 89.9818 310.349 90.0312 310.125 90.0625C309.901 90.099 309.677 90.1172 309.453 90.1172C308.641 90.1172 308.003 89.9036 307.539 89.4766C307.076 89.0443 306.844 88.4557 306.844 87.7109V79.1875ZM315.531 90.1719C314.656 90.1719 313.901 89.9896 313.266 89.625C312.63 89.2552 312.141 88.7344 311.797 88.0625C311.458 87.3906 311.289 86.599 311.289 85.6875C311.289 84.7865 311.458 83.9974 311.797 83.3203C312.135 82.638 312.612 82.1068 313.227 81.7266C313.841 81.3464 314.565 81.1562 315.398 81.1562C315.935 81.1562 316.443 81.2422 316.922 81.4141C317.406 81.5859 317.833 81.8516 318.203 82.2109C318.578 82.5703 318.872 83.0286 319.086 83.5859C319.299 84.138 319.406 84.7969 319.406 85.5625V86.2031H312.25V84.8203H318.383L317.422 85.2266C317.422 84.7318 317.346 84.3021 317.195 83.9375C317.044 83.5677 316.82 83.2786 316.523 83.0703C316.227 82.862 315.857 82.7578 315.414 82.7578C314.971 82.7578 314.594 82.862 314.281 83.0703C313.969 83.2786 313.732 83.5599 313.57 83.9141C313.409 84.263 313.328 84.6536 313.328 85.0859V86.0469C313.328 86.5781 313.419 87.0339 313.602 87.4141C313.789 87.7891 314.049 88.0755 314.383 88.2734C314.721 88.4714 315.115 88.5703 315.562 88.5703C315.854 88.5703 316.12 88.5286 316.359 88.4453C316.604 88.362 316.812 88.237 316.984 88.0703C317.161 87.8984 317.297 87.6875 317.391 87.4375L319.312 87.6641C319.188 88.1693 318.956 88.612 318.617 88.9922C318.284 89.3672 317.854 89.6589 317.328 89.8672C316.807 90.0703 316.208 90.1719 315.531 90.1719ZM320.523 90V81.2656H322.516V82.7344H322.609C322.766 82.224 323.039 81.8333 323.43 81.5625C323.82 81.2865 324.266 81.1484 324.766 81.1484C324.875 81.1484 325 81.1536 325.141 81.1641C325.286 81.1745 325.406 81.1875 325.5 81.2031V83.0938C325.411 83.0625 325.273 83.0365 325.086 83.0156C324.898 82.9948 324.719 82.9844 324.547 82.9844C324.167 82.9844 323.828 83.0651 323.531 83.2266C323.234 83.388 323 83.6094 322.828 83.8906C322.661 84.1719 322.578 84.5 322.578 84.875V90H320.523Z" fill="#121212" fill-opacity="0.6"/>
<path d="M368 88.1667L372.167 84L368 79.8334" stroke="#121212" stroke-opacity="0.6" stroke-width="1.5" stroke-linecap="round" stroke-linejoin="round"/>
<path d="M373.833 88.1667L378 84L373.833 79.8334" stroke="#121212" stroke-opacity="0.6" stroke-width="1.5" stroke-linecap="round" stroke-linejoin="round"/>
</g>
<defs>
<filter id="filter0_d_4539_3390" x="0" y="0" width="455" height="176" filterUnits="userSpaceOnUse" color-interpolation-filters="sRGB">
<feFlood flood-opacity="0" result="BackgroundImageFix"/>
<feColorMatrix in="SourceAlpha" type="matrix" values="0 0 0 0 0 0 0 0 0 0 0 0 0 0 0 0 0 0 127 0" result="hardAlpha"/>
<feOffset dy="4"/>
<feGaussianBlur stdDeviation="28"/>
<feComposite in2="hardAlpha" operator="out"/>
<feColorMatrix type="matrix" values="0 0 0 0 0.323092 0 0 0 0 0.323092 0 0 0 0 0.323092 0 0 0 0.25 0"/>
<feBlend mode="normal" in2="BackgroundImageFix" result="effect1_dropShadow_4539_3390"/>
<feBlend mode="normal" in="SourceGraphic" in2="effect1_dropShadow_4539_3390" result="shape"/>
</filter>
</defs>
</svg>
