<svg width="455" height="184" viewBox="0 0 455 184" fill="none" xmlns="http://www.w3.org/2000/svg">
<g filter="url(#filter0_d_4539_3397)">
<path d="M56 72C56 60.9543 64.9543 52 76 52H379C390.046 52 399 60.9543 399 72V104C399 115.046 390.046 124 379 124H76C64.9543 124 56 115.046 56 104V72Z" fill="#FAFAFA" shape-rendering="crispEdges"/>
<path d="M76 53H379C389.493 53 398 61.5066 398 72V104C398 114.493 389.493 123 379 123H76C65.5066 123 57 114.493 57 104V72C57 61.5066 65.5066 53 76 53Z" stroke="white" stroke-width="2" shape-rendering="crispEdges"/>
<rect x="72" y="68" width="40" height="40" rx="12" fill="#FF4400" fill-opacity="0.65"/>
<path d="M87.6257 97.375C87.6257 98.3639 87.3325 99.3306 86.783 100.153C86.2336 100.975 85.4527 101.616 84.5391 101.994C83.6255 102.373 82.6201 102.472 81.6502 102.279C80.6803 102.086 79.7894 101.61 79.0902 100.911C78.3909 100.211 77.9147 99.3204 77.7218 98.3505C77.5288 97.3805 77.6279 96.3752 78.0063 95.4616C78.3847 94.548 79.0256 93.7671 79.8478 93.2177C80.6701 92.6682 81.6368 92.375 82.6257 92.375C83.9518 92.375 85.2235 92.9018 86.1612 93.8395C87.0989 94.7772 87.6257 96.0489 87.6257 97.375ZM79.1351 86.3844L81.3757 84.1422L83.6163 86.3844C83.8509 86.6189 84.169 86.7507 84.5007 86.7507C84.8324 86.7507 85.1505 86.6189 85.3851 86.3844C85.6196 86.1498 85.7514 85.8317 85.7514 85.5C85.7514 85.1683 85.6196 84.8502 85.3851 84.6156L83.1429 82.375L85.3851 80.1344C85.6196 79.8998 85.7514 79.5817 85.7514 79.25C85.7514 78.9183 85.6196 78.6002 85.3851 78.3656C85.1505 78.1311 84.8324 77.9993 84.5007 77.9993C84.169 77.9993 83.8509 78.1311 83.6163 78.3656L81.3757 80.6078L79.1351 78.3656C78.9005 78.1311 78.5824 77.9993 78.2507 77.9993C77.919 77.9993 77.6009 78.1311 77.3663 78.3656C77.1318 78.6002 77 78.9183 77 79.25C77 79.5817 77.1318 79.8998 77.3663 80.1344L79.6085 82.375L77.3663 84.6156C77.1318 84.8502 77 85.1683 77 85.5C77 85.8317 77.1318 86.1498 77.3663 86.3844C77.6009 86.6189 77.919 86.7507 78.2507 86.7507C78.5824 86.7507 78.9005 86.6189 79.1351 86.3844ZM104.393 97.375L106.635 95.1344C106.87 94.8998 107.001 94.5817 107.001 94.25C107.001 93.9183 106.87 93.6002 106.635 93.3656C106.401 93.1311 106.082 92.9993 105.751 92.9993C105.419 92.9993 105.101 93.1311 104.866 93.3656L102.626 95.6078L100.385 93.3656C100.151 93.1311 99.8324 92.9993 99.5007 92.9993C99.169 92.9993 98.8509 93.1311 98.6163 93.3656C98.3818 93.6002 98.25 93.9183 98.25 94.25C98.25 94.5817 98.3818 94.8998 98.6163 95.1344L100.859 97.375L98.6163 99.6156C98.3818 99.8502 98.25 100.168 98.25 100.5C98.25 100.832 98.3818 101.15 98.6163 101.384C98.8509 101.619 99.169 101.751 99.5007 101.751C99.8324 101.751 100.151 101.619 100.385 101.384L102.626 99.1422L104.866 101.384C104.982 101.501 105.12 101.593 105.272 101.655C105.424 101.718 105.586 101.751 105.751 101.751C105.915 101.751 106.078 101.718 106.229 101.655C106.381 101.593 106.519 101.501 106.635 101.384C106.751 101.268 106.843 101.13 106.906 100.979C106.969 100.827 107.001 100.664 107.001 100.5C107.001 100.336 106.969 100.173 106.906 100.021C106.843 99.8696 106.751 99.7318 106.635 99.6156L104.393 97.375ZM96.6351 75.8656L96.2679 75.5H99.5007C99.8322 75.5 100.15 75.3683 100.385 75.1339C100.619 74.8995 100.751 74.5815 100.751 74.25C100.751 73.9185 100.619 73.6005 100.385 73.3661C100.15 73.1317 99.8322 73 99.5007 73H93.2507C92.9192 73 92.6012 73.1317 92.3668 73.3661C92.1324 73.6005 92.0007 73.9185 92.0007 74.25V80.5C92.0007 80.8315 92.1324 81.1495 92.3668 81.3839C92.6012 81.6183 92.9192 81.75 93.2507 81.75C93.5822 81.75 93.9002 81.6183 94.1346 81.3839C94.369 81.1495 94.5007 80.8315 94.5007 80.5V77.2672L94.8663 77.6344C97.6679 80.4359 97.6632 83.1656 97.1648 84.9625C96.4398 87.5828 94.1398 89.9266 91.696 90.5375C91.4001 90.6117 91.1415 90.7915 90.969 91.0431C90.7964 91.2947 90.7219 91.6007 90.7593 91.9035C90.7968 92.2063 90.9437 92.4849 91.1724 92.6869C91.401 92.8888 91.6956 93.0002 92.0007 93C92.1034 92.9999 92.2057 92.9873 92.3054 92.9625C95.6194 92.1344 98.6101 89.1188 99.5757 85.6297C100.529 82.1844 99.4851 78.7172 96.6351 75.8656Z" fill="white"/>
<path d="M124.336 72.125V70.3594H133.617V72.125H130.023V82H127.938V72.125H124.336ZM133.805 82V73.2656H135.797V74.7344H135.891C136.047 74.224 136.32 73.8333 136.711 73.5625C137.102 73.2865 137.547 73.1484 138.047 73.1484C138.156 73.1484 138.281 73.1536 138.422 73.1641C138.568 73.1745 138.688 73.1875 138.781 73.2031V75.0938C138.693 75.0625 138.555 75.0365 138.367 75.0156C138.18 74.9948 138 74.9844 137.828 74.9844C137.448 74.9844 137.109 75.0651 136.812 75.2266C136.516 75.388 136.281 75.6094 136.109 75.8906C135.943 76.1719 135.859 76.5 135.859 76.875V82H133.805ZM141.914 82.1797C141.357 82.1797 140.857 82.0807 140.414 81.8828C139.971 81.6797 139.622 81.3828 139.367 80.9922C139.112 80.6016 138.984 80.1198 138.984 79.5469C138.984 79.0573 139.076 78.651 139.258 78.3281C139.44 78.0052 139.688 77.7474 140 77.5547C140.318 77.362 140.674 77.2161 141.07 77.1172C141.466 77.013 141.875 76.9401 142.297 76.8984C142.812 76.8411 143.229 76.7917 143.547 76.75C143.865 76.7083 144.094 76.6406 144.234 76.5469C144.38 76.4531 144.453 76.3073 144.453 76.1094V76.0703C144.453 75.6484 144.328 75.3203 144.078 75.0859C143.828 74.8516 143.464 74.7344 142.984 74.7344C142.479 74.7344 142.078 74.8438 141.781 75.0625C141.49 75.2812 141.292 75.5391 141.188 75.8359L139.273 75.5625C139.424 75.0312 139.674 74.5885 140.023 74.2344C140.372 73.875 140.797 73.6068 141.297 73.4297C141.802 73.2474 142.359 73.1562 142.969 73.1562C143.385 73.1562 143.802 73.2057 144.219 73.3047C144.635 73.3984 145.018 73.5599 145.367 73.7891C145.716 74.0182 145.995 74.3255 146.203 74.7109C146.411 75.0964 146.516 75.5781 146.516 76.1562V82H144.539V80.7969H144.477C144.352 81.0365 144.174 81.263 143.945 81.4766C143.721 81.6849 143.44 81.8542 143.102 81.9844C142.768 82.1146 142.372 82.1797 141.914 82.1797ZM142.438 80.6641C142.854 80.6641 143.214 80.5833 143.516 80.4219C143.818 80.2552 144.052 80.0365 144.219 79.7656C144.385 79.4896 144.469 79.1901 144.469 78.8672V77.8438C144.401 77.8958 144.292 77.9453 144.141 77.9922C143.99 78.0339 143.818 78.0729 143.625 78.1094C143.432 78.1458 143.242 78.1771 143.055 78.2031C142.872 78.2292 142.714 78.25 142.578 78.2656C142.271 78.3073 141.995 78.3776 141.75 78.4766C141.51 78.5703 141.32 78.7005 141.18 78.8672C141.039 79.0339 140.969 79.25 140.969 79.5156C140.969 79.8958 141.107 80.1823 141.383 80.375C141.659 80.5677 142.01 80.6641 142.438 80.6641ZM150.094 76.8906V82H148.039V73.2656H150.055V74.7578H150.156C150.354 74.2682 150.664 73.8802 151.086 73.5938C151.513 73.3021 152.055 73.1562 152.711 73.1562C153.315 73.1562 153.841 73.2839 154.289 73.5391C154.737 73.7943 155.083 74.1693 155.328 74.6641C155.578 75.1536 155.703 75.7474 155.703 76.4453V82H153.648V76.7656C153.648 76.1823 153.497 75.7266 153.195 75.3984C152.893 75.0651 152.477 74.8984 151.945 74.8984C151.586 74.8984 151.266 74.9766 150.984 75.1328C150.708 75.2891 150.49 75.5156 150.328 75.8125C150.172 76.1042 150.094 76.4635 150.094 76.8906ZM164.117 75.5859L162.25 75.7812C162.172 75.4948 162.003 75.2422 161.742 75.0234C161.482 74.7995 161.115 74.6875 160.641 74.6875C160.214 74.6875 159.854 74.7812 159.562 74.9688C159.276 75.1562 159.133 75.3958 159.133 75.6875C159.133 75.9427 159.227 76.1536 159.414 76.3203C159.607 76.4818 159.924 76.612 160.367 76.7109L161.859 77.0234C162.677 77.1953 163.289 77.4766 163.695 77.8672C164.102 78.2578 164.305 78.763 164.305 79.3828C164.305 79.9297 164.146 80.4141 163.828 80.8359C163.51 81.2578 163.07 81.5859 162.508 81.8203C161.951 82.0547 161.307 82.1719 160.578 82.1719C159.51 82.1719 158.651 81.9479 158 81.5C157.354 81.0469 156.966 80.4193 156.836 79.6172L158.844 79.4297C158.932 79.8203 159.125 80.1172 159.422 80.3203C159.724 80.5182 160.109 80.6172 160.578 80.6172C161.068 80.6172 161.461 80.5182 161.758 80.3203C162.055 80.1172 162.203 79.8698 162.203 79.5781C162.203 79.0885 161.812 78.7552 161.031 78.5781L159.539 78.2656C158.701 78.0833 158.081 77.7891 157.68 77.3828C157.279 76.9714 157.078 76.4479 157.078 75.8125C157.078 75.2708 157.227 74.8021 157.523 74.4062C157.82 74.0104 158.234 73.7031 158.766 73.4844C159.297 73.2656 159.911 73.1562 160.609 73.1562C161.635 73.1562 162.44 73.3776 163.023 73.8203C163.612 74.2578 163.977 74.8464 164.117 75.5859ZM169.852 73.2656V74.8594H164.703V73.2656H169.852ZM165.984 82V72.4453C165.984 71.8568 166.107 71.3672 166.352 70.9766C166.596 70.5859 166.924 70.2943 167.336 70.1016C167.753 69.9089 168.211 69.8125 168.711 69.8125C169.07 69.8125 169.388 69.8411 169.664 69.8984C169.945 69.9557 170.151 70.0078 170.281 70.0547L169.859 71.6484C169.776 71.6172 169.669 71.5885 169.539 71.5625C169.409 71.5312 169.26 71.5156 169.094 71.5156C168.714 71.5156 168.44 71.6094 168.273 71.7969C168.112 71.9844 168.031 72.25 168.031 72.5938V82H165.984ZM174.359 82.1719C173.505 82.1719 172.766 81.9844 172.141 81.6094C171.516 81.2344 171.031 80.7083 170.688 80.0312C170.349 79.3542 170.18 78.5677 170.18 77.6719C170.18 76.7708 170.349 75.9818 170.688 75.3047C171.031 74.6224 171.516 74.0938 172.141 73.7188C172.766 73.3438 173.505 73.1562 174.359 73.1562C175.214 73.1562 175.953 73.3438 176.578 73.7188C177.203 74.0938 177.688 74.6224 178.031 75.3047C178.375 75.9818 178.547 76.7708 178.547 77.6719C178.547 78.5677 178.375 79.3542 178.031 80.0312C177.688 80.7083 177.203 81.2344 176.578 81.6094C175.953 81.9844 175.214 82.1719 174.359 82.1719ZM174.359 80.5156C174.833 80.5156 175.224 80.3906 175.531 80.1406C175.839 79.8854 176.068 79.5417 176.219 79.1094C176.375 78.6771 176.453 78.1979 176.453 77.6719C176.453 77.1354 176.375 76.651 176.219 76.2188C176.068 75.7865 175.839 75.4453 175.531 75.1953C175.224 74.9401 174.833 74.8125 174.359 74.8125C173.896 74.8125 173.508 74.9401 173.195 75.1953C172.883 75.4453 172.648 75.7865 172.492 76.2188C172.341 76.651 172.266 77.1354 172.266 77.6719C172.266 78.1979 172.341 78.6771 172.492 79.1094C172.648 79.5417 172.883 79.8854 173.195 80.1406C173.508 80.3906 173.896 80.5156 174.359 80.5156ZM179.68 82V73.2656H181.672V74.7344H181.766C181.922 74.224 182.195 73.8333 182.586 73.5625C182.977 73.2865 183.422 73.1484 183.922 73.1484C184.031 73.1484 184.156 73.1536 184.297 73.1641C184.443 73.1745 184.562 73.1875 184.656 73.2031V75.0938C184.568 75.0625 184.43 75.0365 184.242 75.0156C184.055 74.9948 183.875 74.9844 183.703 74.9844C183.323 74.9844 182.984 75.0651 182.688 75.2266C182.391 75.388 182.156 75.6094 181.984 75.8906C181.818 76.1719 181.734 76.5 181.734 76.875V82H179.68ZM185.43 82V73.2656H187.391V74.7578H187.5C187.682 74.2578 187.984 73.8672 188.406 73.5859C188.828 73.2995 189.328 73.1562 189.906 73.1562C190.5 73.1562 191 73.2995 191.406 73.5859C191.812 73.8724 192.096 74.263 192.258 74.7578H192.352C192.549 74.2734 192.878 73.8854 193.336 73.5938C193.794 73.3021 194.341 73.1562 194.977 73.1562C195.779 73.1562 196.432 73.4115 196.938 73.9219C197.448 74.4271 197.703 75.1667 197.703 76.1406V82H195.641V76.4531C195.641 75.9167 195.495 75.5234 195.203 75.2734C194.917 75.0182 194.565 74.8906 194.148 74.8906C193.654 74.8906 193.268 75.0469 192.992 75.3594C192.716 75.6667 192.578 76.0625 192.578 76.5469V82H190.547V76.375C190.547 75.9219 190.414 75.5625 190.148 75.2969C189.883 75.026 189.531 74.8906 189.094 74.8906C188.797 74.8906 188.526 74.9661 188.281 75.1172C188.036 75.2682 187.841 75.4792 187.695 75.75C187.555 76.0208 187.484 76.3333 187.484 76.6875V82H185.43ZM205.117 82.1797C204.56 82.1797 204.06 82.0807 203.617 81.8828C203.174 81.6797 202.826 81.3828 202.57 80.9922C202.315 80.6016 202.188 80.1198 202.188 79.5469C202.188 79.0573 202.279 78.651 202.461 78.3281C202.643 78.0052 202.891 77.7474 203.203 77.5547C203.521 77.362 203.878 77.2161 204.273 77.1172C204.669 77.013 205.078 76.9401 205.5 76.8984C206.016 76.8411 206.432 76.7917 206.75 76.75C207.068 76.7083 207.297 76.6406 207.438 76.5469C207.583 76.4531 207.656 76.3073 207.656 76.1094V76.0703C207.656 75.6484 207.531 75.3203 207.281 75.0859C207.031 74.8516 206.667 74.7344 206.188 74.7344C205.682 74.7344 205.281 74.8438 204.984 75.0625C204.693 75.2812 204.495 75.5391 204.391 75.8359L202.477 75.5625C202.628 75.0312 202.878 74.5885 203.227 74.2344C203.576 73.875 204 73.6068 204.5 73.4297C205.005 73.2474 205.562 73.1562 206.172 73.1562C206.589 73.1562 207.005 73.2057 207.422 73.3047C207.839 73.3984 208.221 73.5599 208.57 73.7891C208.919 74.0182 209.198 74.3255 209.406 74.7109C209.615 75.0964 209.719 75.5781 209.719 76.1562V82H207.742V80.7969H207.68C207.555 81.0365 207.378 81.263 207.148 81.4766C206.924 81.6849 206.643 81.8542 206.305 81.9844C205.971 82.1146 205.576 82.1797 205.117 82.1797ZM205.641 80.6641C206.057 80.6641 206.417 80.5833 206.719 80.4219C207.021 80.2552 207.255 80.0365 207.422 79.7656C207.589 79.4896 207.672 79.1901 207.672 78.8672V77.8438C207.604 77.8958 207.495 77.9453 207.344 77.9922C207.193 78.0339 207.021 78.0729 206.828 78.1094C206.635 78.1458 206.445 78.1771 206.258 78.2031C206.076 78.2292 205.917 78.25 205.781 78.2656C205.474 78.3073 205.198 78.3776 204.953 78.4766C204.714 78.5703 204.523 78.7005 204.383 78.8672C204.242 79.0339 204.172 79.25 204.172 79.5156C204.172 79.8958 204.31 80.1823 204.586 80.375C204.862 80.5677 205.214 80.6641 205.641 80.6641ZM215.875 82.1562C215.38 82.1562 214.966 82.0729 214.633 81.9062C214.305 81.7344 214.039 81.5312 213.836 81.2969C213.638 81.0573 213.487 80.8307 213.383 80.6172H213.258V82H211.242V70.3594H213.297V74.7109H213.383C213.487 74.5026 213.635 74.2786 213.828 74.0391C214.021 73.7943 214.281 73.5859 214.609 73.4141C214.943 73.2422 215.367 73.1562 215.883 73.1562C216.555 73.1562 217.161 73.3281 217.703 73.6719C218.245 74.0156 218.674 74.5208 218.992 75.1875C219.315 75.8542 219.477 76.6745 219.477 77.6484C219.477 78.6068 219.32 79.4219 219.008 80.0938C218.695 80.7656 218.266 81.2786 217.719 81.6328C217.177 81.9818 216.562 82.1562 215.875 82.1562ZM215.312 80.4688C215.766 80.4688 216.143 80.3464 216.445 80.1016C216.753 79.8568 216.984 79.5208 217.141 79.0938C217.297 78.6667 217.375 78.1823 217.375 77.6406C217.375 77.099 217.297 76.6172 217.141 76.1953C216.984 75.7734 216.755 75.4427 216.453 75.2031C216.151 74.9635 215.771 74.8438 215.312 74.8438C214.87 74.8438 214.495 74.9583 214.188 75.1875C213.885 75.4167 213.654 75.7422 213.492 76.1641C213.336 76.5807 213.258 77.0729 213.258 77.6406C213.258 78.2031 213.336 78.6979 213.492 79.125C213.654 79.5469 213.888 79.8776 214.195 80.1172C214.503 80.3516 214.875 80.4688 215.312 80.4688ZM227.508 75.5859L225.641 75.7812C225.562 75.4948 225.393 75.2422 225.133 75.0234C224.872 74.7995 224.505 74.6875 224.031 74.6875C223.604 74.6875 223.245 74.7812 222.953 74.9688C222.667 75.1562 222.523 75.3958 222.523 75.6875C222.523 75.9427 222.617 76.1536 222.805 76.3203C222.997 76.4818 223.315 76.612 223.758 76.7109L225.25 77.0234C226.068 77.1953 226.68 77.4766 227.086 77.8672C227.492 78.2578 227.695 78.763 227.695 79.3828C227.695 79.9297 227.536 80.4141 227.219 80.8359C226.901 81.2578 226.461 81.5859 225.898 81.8203C225.341 82.0547 224.698 82.1719 223.969 82.1719C222.901 82.1719 222.042 81.9479 221.391 81.5C220.745 81.0469 220.357 80.4193 220.227 79.6172L222.234 79.4297C222.323 79.8203 222.516 80.1172 222.812 80.3203C223.115 80.5182 223.5 80.6172 223.969 80.6172C224.458 80.6172 224.852 80.5182 225.148 80.3203C225.445 80.1172 225.594 79.8698 225.594 79.5781C225.594 79.0885 225.203 78.7552 224.422 78.5781L222.93 78.2656C222.091 78.0833 221.471 77.7891 221.07 77.3828C220.669 76.9714 220.469 76.4479 220.469 75.8125C220.469 75.2708 220.617 74.8021 220.914 74.4062C221.211 74.0104 221.625 73.7031 222.156 73.4844C222.688 73.2656 223.302 73.1562 224 73.1562C225.026 73.1562 225.831 73.3776 226.414 73.8203C227.003 74.2578 227.367 74.8464 227.508 75.5859ZM233.156 73.2656V74.8594H228.148V73.2656H233.156ZM229.375 71.1875H231.43V79.375C231.43 79.7188 231.505 79.974 231.656 80.1406C231.807 80.3021 232.047 80.3828 232.375 80.3828C232.464 80.3828 232.562 80.375 232.672 80.3594C232.781 80.3438 232.88 80.3255 232.969 80.3047L233.32 81.9141C233.102 81.9818 232.88 82.0312 232.656 82.0625C232.432 82.099 232.208 82.1172 231.984 82.1172C231.172 82.1172 230.534 81.9036 230.07 81.4766C229.607 81.0443 229.375 80.4557 229.375 79.7109V71.1875ZM234.289 82V73.2656H236.281V74.7344H236.375C236.531 74.224 236.805 73.8333 237.195 73.5625C237.586 73.2865 238.031 73.1484 238.531 73.1484C238.641 73.1484 238.766 73.1536 238.906 73.1641C239.052 73.1745 239.172 73.1875 239.266 73.2031V75.0938C239.177 75.0625 239.039 75.0365 238.852 75.0156C238.664 74.9948 238.484 74.9844 238.312 74.9844C237.932 74.9844 237.594 75.0651 237.297 75.2266C237 75.388 236.766 75.6094 236.594 75.8906C236.427 76.1719 236.344 76.5 236.344 76.875V82H234.289ZM242.398 82.1797C241.841 82.1797 241.341 82.0807 240.898 81.8828C240.456 81.6797 240.107 81.3828 239.852 80.9922C239.596 80.6016 239.469 80.1198 239.469 79.5469C239.469 79.0573 239.56 78.651 239.742 78.3281C239.924 78.0052 240.172 77.7474 240.484 77.5547C240.802 77.362 241.159 77.2161 241.555 77.1172C241.951 77.013 242.359 76.9401 242.781 76.8984C243.297 76.8411 243.714 76.7917 244.031 76.75C244.349 76.7083 244.578 76.6406 244.719 76.5469C244.865 76.4531 244.938 76.3073 244.938 76.1094V76.0703C244.938 75.6484 244.812 75.3203 244.562 75.0859C244.312 74.8516 243.948 74.7344 243.469 74.7344C242.964 74.7344 242.562 74.8438 242.266 75.0625C241.974 75.2812 241.776 75.5391 241.672 75.8359L239.758 75.5625C239.909 75.0312 240.159 74.5885 240.508 74.2344C240.857 73.875 241.281 73.6068 241.781 73.4297C242.286 73.2474 242.844 73.1562 243.453 73.1562C243.87 73.1562 244.286 73.2057 244.703 73.3047C245.12 73.3984 245.503 73.5599 245.852 73.7891C246.201 74.0182 246.479 74.3255 246.688 74.7109C246.896 75.0964 247 75.5781 247 76.1562V82H245.023V80.7969H244.961C244.836 81.0365 244.659 81.263 244.43 81.4766C244.206 81.6849 243.924 81.8542 243.586 81.9844C243.253 82.1146 242.857 82.1797 242.398 82.1797ZM242.922 80.6641C243.339 80.6641 243.698 80.5833 244 80.4219C244.302 80.2552 244.536 80.0365 244.703 79.7656C244.87 79.4896 244.953 79.1901 244.953 78.8672V77.8438C244.885 77.8958 244.776 77.9453 244.625 77.9922C244.474 78.0339 244.302 78.0729 244.109 78.1094C243.917 78.1458 243.727 78.1771 243.539 78.2031C243.357 78.2292 243.198 78.25 243.062 78.2656C242.755 78.3073 242.479 78.3776 242.234 78.4766C241.995 78.5703 241.805 78.7005 241.664 78.8672C241.523 79.0339 241.453 79.25 241.453 79.5156C241.453 79.8958 241.591 80.1823 241.867 80.375C242.143 80.5677 242.495 80.6641 242.922 80.6641ZM252.328 82.1719C251.458 82.1719 250.711 81.9818 250.086 81.6016C249.461 81.2161 248.982 80.6849 248.648 80.0078C248.315 79.3307 248.148 78.5521 248.148 77.6719C248.148 76.7812 248.318 75.9974 248.656 75.3203C248.995 74.6432 249.477 74.1146 250.102 73.7344C250.727 73.349 251.464 73.1562 252.312 73.1562C253.026 73.1562 253.656 73.2865 254.203 73.5469C254.75 73.8073 255.185 74.1745 255.508 74.6484C255.836 75.1172 256.023 75.6667 256.07 76.2969H254.102C254.049 76.0156 253.948 75.763 253.797 75.5391C253.646 75.3151 253.448 75.138 253.203 75.0078C252.964 74.8776 252.677 74.8125 252.344 74.8125C251.922 74.8125 251.552 74.9271 251.234 75.1562C250.922 75.3802 250.677 75.7031 250.5 76.125C250.323 76.5469 250.234 77.0521 250.234 77.6406C250.234 78.2344 250.32 78.7474 250.492 79.1797C250.664 79.6068 250.909 79.9375 251.227 80.1719C251.544 80.401 251.917 80.5156 252.344 80.5156C252.797 80.5156 253.18 80.3828 253.492 80.1172C253.81 79.8516 254.013 79.4844 254.102 79.0156H256.07C256.023 79.6354 255.841 80.1823 255.523 80.6562C255.206 81.1302 254.776 81.5026 254.234 81.7734C253.693 82.0391 253.057 82.1719 252.328 82.1719ZM261.531 73.2656V74.8594H256.523V73.2656H261.531ZM257.75 71.1875H259.805V79.375C259.805 79.7188 259.88 79.974 260.031 80.1406C260.182 80.3021 260.422 80.3828 260.75 80.3828C260.839 80.3828 260.938 80.375 261.047 80.3594C261.156 80.3438 261.255 80.3255 261.344 80.3047L261.695 81.9141C261.477 81.9818 261.255 82.0312 261.031 82.0625C260.807 82.099 260.583 82.1172 260.359 82.1172C259.547 82.1172 258.909 81.9036 258.445 81.4766C257.982 81.0443 257.75 80.4557 257.75 79.7109V71.1875ZM272.93 75.5859L271.062 75.7812C270.984 75.4948 270.815 75.2422 270.555 75.0234C270.294 74.7995 269.927 74.6875 269.453 74.6875C269.026 74.6875 268.667 74.7812 268.375 74.9688C268.089 75.1562 267.945 75.3958 267.945 75.6875C267.945 75.9427 268.039 76.1536 268.227 76.3203C268.419 76.4818 268.737 76.612 269.18 76.7109L270.672 77.0234C271.49 77.1953 272.102 77.4766 272.508 77.8672C272.914 78.2578 273.117 78.763 273.117 79.3828C273.117 79.9297 272.958 80.4141 272.641 80.8359C272.323 81.2578 271.883 81.5859 271.32 81.8203C270.763 82.0547 270.12 82.1719 269.391 82.1719C268.323 82.1719 267.464 81.9479 266.812 81.5C266.167 81.0469 265.779 80.4193 265.648 79.6172L267.656 79.4297C267.745 79.8203 267.938 80.1172 268.234 80.3203C268.536 80.5182 268.922 80.6172 269.391 80.6172C269.88 80.6172 270.273 80.5182 270.57 80.3203C270.867 80.1172 271.016 79.8698 271.016 79.5781C271.016 79.0885 270.625 78.7552 269.844 78.5781L268.352 78.2656C267.513 78.0833 266.893 77.7891 266.492 77.3828C266.091 76.9714 265.891 76.4479 265.891 75.8125C265.891 75.2708 266.039 74.8021 266.336 74.4062C266.633 74.0104 267.047 73.7031 267.578 73.4844C268.109 73.2656 268.724 73.1562 269.422 73.1562C270.448 73.1562 271.253 73.3776 271.836 73.8203C272.424 74.2578 272.789 74.8464 272.93 75.5859ZM278.578 73.2656V74.8594H273.57V73.2656H278.578ZM274.797 71.1875H276.852V79.375C276.852 79.7188 276.927 79.974 277.078 80.1406C277.229 80.3021 277.469 80.3828 277.797 80.3828C277.885 80.3828 277.984 80.375 278.094 80.3594C278.203 80.3438 278.302 80.3255 278.391 80.3047L278.742 81.9141C278.523 81.9818 278.302 82.0312 278.078 82.0625C277.854 82.099 277.63 82.1172 277.406 82.1172C276.594 82.1172 275.956 81.9036 275.492 81.4766C275.029 81.0443 274.797 80.4557 274.797 79.7109V71.1875ZM279.711 82V73.2656H281.703V74.7344H281.797C281.953 74.224 282.227 73.8333 282.617 73.5625C283.008 73.2865 283.453 73.1484 283.953 73.1484C284.062 73.1484 284.188 73.1536 284.328 73.1641C284.474 73.1745 284.594 73.1875 284.688 73.2031V75.0938C284.599 75.0625 284.461 75.0365 284.273 75.0156C284.086 74.9948 283.906 74.9844 283.734 74.9844C283.354 74.9844 283.016 75.0651 282.719 75.2266C282.422 75.388 282.188 75.6094 282.016 75.8906C281.849 76.1719 281.766 76.5 281.766 76.875V82H279.711ZM287.82 82.1797C287.263 82.1797 286.763 82.0807 286.32 81.8828C285.878 81.6797 285.529 81.3828 285.273 80.9922C285.018 80.6016 284.891 80.1198 284.891 79.5469C284.891 79.0573 284.982 78.651 285.164 78.3281C285.346 78.0052 285.594 77.7474 285.906 77.5547C286.224 77.362 286.581 77.2161 286.977 77.1172C287.372 77.013 287.781 76.9401 288.203 76.8984C288.719 76.8411 289.135 76.7917 289.453 76.75C289.771 76.7083 290 76.6406 290.141 76.5469C290.286 76.4531 290.359 76.3073 290.359 76.1094V76.0703C290.359 75.6484 290.234 75.3203 289.984 75.0859C289.734 74.8516 289.37 74.7344 288.891 74.7344C288.385 74.7344 287.984 74.8438 287.688 75.0625C287.396 75.2812 287.198 75.5391 287.094 75.8359L285.18 75.5625C285.331 75.0312 285.581 74.5885 285.93 74.2344C286.279 73.875 286.703 73.6068 287.203 73.4297C287.708 73.2474 288.266 73.1562 288.875 73.1562C289.292 73.1562 289.708 73.2057 290.125 73.3047C290.542 73.3984 290.924 73.5599 291.273 73.7891C291.622 74.0182 291.901 74.3255 292.109 74.7109C292.318 75.0964 292.422 75.5781 292.422 76.1562V82H290.445V80.7969H290.383C290.258 81.0365 290.081 81.263 289.852 81.4766C289.628 81.6849 289.346 81.8542 289.008 81.9844C288.674 82.1146 288.279 82.1797 287.82 82.1797ZM288.344 80.6641C288.76 80.6641 289.12 80.5833 289.422 80.4219C289.724 80.2552 289.958 80.0365 290.125 79.7656C290.292 79.4896 290.375 79.1901 290.375 78.8672V77.8438C290.307 77.8958 290.198 77.9453 290.047 77.9922C289.896 78.0339 289.724 78.0729 289.531 78.1094C289.339 78.1458 289.148 78.1771 288.961 78.2031C288.779 78.2292 288.62 78.25 288.484 78.2656C288.177 78.3073 287.901 78.3776 287.656 78.4766C287.417 78.5703 287.227 78.7005 287.086 78.8672C286.945 79.0339 286.875 79.25 286.875 79.5156C286.875 79.8958 287.013 80.1823 287.289 80.375C287.565 80.5677 287.917 80.6641 288.344 80.6641ZM298.297 73.2656V74.8594H293.289V73.2656H298.297ZM294.516 71.1875H296.57V79.375C296.57 79.7188 296.646 79.974 296.797 80.1406C296.948 80.3021 297.188 80.3828 297.516 80.3828C297.604 80.3828 297.703 80.375 297.812 80.3594C297.922 80.3438 298.021 80.3255 298.109 80.3047L298.461 81.9141C298.242 81.9818 298.021 82.0312 297.797 82.0625C297.573 82.099 297.349 82.1172 297.125 82.1172C296.312 82.1172 295.674 81.9036 295.211 81.4766C294.747 81.0443 294.516 80.4557 294.516 79.7109V71.1875ZM303.203 82.1719C302.328 82.1719 301.573 81.9896 300.938 81.625C300.302 81.2552 299.812 80.7344 299.469 80.0625C299.13 79.3906 298.961 78.599 298.961 77.6875C298.961 76.7865 299.13 75.9974 299.469 75.3203C299.807 74.638 300.284 74.1068 300.898 73.7266C301.513 73.3464 302.237 73.1562 303.07 73.1562C303.607 73.1562 304.115 73.2422 304.594 73.4141C305.078 73.5859 305.505 73.8516 305.875 74.2109C306.25 74.5703 306.544 75.0286 306.758 75.5859C306.971 76.138 307.078 76.7969 307.078 77.5625V78.2031H299.922V76.8203H306.055L305.094 77.2266C305.094 76.7318 305.018 76.3021 304.867 75.9375C304.716 75.5677 304.492 75.2786 304.195 75.0703C303.898 74.862 303.529 74.7578 303.086 74.7578C302.643 74.7578 302.266 74.862 301.953 75.0703C301.641 75.2786 301.404 75.5599 301.242 75.9141C301.081 76.263 301 76.6536 301 77.0859V78.0469C301 78.5781 301.091 79.0339 301.273 79.4141C301.461 79.7891 301.721 80.0755 302.055 80.2734C302.393 80.4714 302.786 80.5703 303.234 80.5703C303.526 80.5703 303.792 80.5286 304.031 80.4453C304.276 80.362 304.484 80.237 304.656 80.0703C304.833 79.8984 304.969 79.6875 305.062 79.4375L306.984 79.6641C306.859 80.1693 306.628 80.612 306.289 80.9922C305.956 81.3672 305.526 81.6589 305 81.8672C304.479 82.0703 303.88 82.1719 303.203 82.1719ZM311.977 85.4531C310.867 85.4531 309.995 85.237 309.359 84.8047C308.724 84.3776 308.315 83.8594 308.133 83.25L309.977 82.7969C310.06 82.9688 310.182 83.138 310.344 83.3047C310.505 83.4766 310.721 83.6172 310.992 83.7266C311.263 83.8411 311.604 83.8984 312.016 83.8984C312.599 83.8984 313.081 83.7552 313.461 83.4688C313.846 83.1875 314.039 82.7266 314.039 82.0859V80.4375H313.922C313.823 80.6458 313.672 80.862 313.469 81.0859C313.266 81.3047 312.997 81.4922 312.664 81.6484C312.336 81.7995 311.919 81.875 311.414 81.875C310.747 81.875 310.141 81.7161 309.594 81.3984C309.052 81.0807 308.62 80.6068 308.297 79.9766C307.979 79.3464 307.82 78.5573 307.82 77.6094C307.82 76.651 307.979 75.8411 308.297 75.1797C308.62 74.5182 309.055 74.0156 309.602 73.6719C310.148 73.3281 310.758 73.1562 311.43 73.1562C311.94 73.1562 312.362 73.2422 312.695 73.4141C313.029 73.5859 313.294 73.7943 313.492 74.0391C313.69 74.2786 313.844 74.5026 313.953 74.7109H314.062V73.2656H316.07V82.1406C316.07 82.8854 315.893 83.5026 315.539 83.9922C315.185 84.4818 314.698 84.8464 314.078 85.0859C313.464 85.3307 312.763 85.4531 311.977 85.4531ZM311.992 80.2578C312.648 80.2578 313.154 80.0234 313.508 79.5547C313.867 79.0807 314.047 78.4271 314.047 77.5938C314.047 77.0417 313.969 76.5599 313.812 76.1484C313.656 75.737 313.424 75.4167 313.117 75.1875C312.81 74.9583 312.435 74.8438 311.992 74.8438C311.534 74.8438 311.151 74.9635 310.844 75.2031C310.536 75.4427 310.305 75.7708 310.148 76.1875C309.997 76.599 309.922 77.0677 309.922 77.5938C309.922 78.125 310 78.5911 310.156 78.9922C310.312 79.3932 310.544 79.7057 310.852 79.9297C311.164 80.1484 311.544 80.2578 311.992 80.2578ZM318.867 85.2656C318.586 85.2708 318.326 85.25 318.086 85.2031C317.852 85.1615 317.661 85.112 317.516 85.0547L318 83.4531L318.102 83.4844C318.518 83.5938 318.872 83.6016 319.164 83.5078C319.461 83.4141 319.698 83.1302 319.875 82.6562L320.047 82.1875L316.891 73.2656H319.07L321.078 79.8672H321.172L323.188 73.2656H325.383L321.883 83.0547C321.721 83.5182 321.508 83.9141 321.242 84.2422C320.977 84.5755 320.648 84.8281 320.258 85C319.867 85.1771 319.404 85.2656 318.867 85.2656ZM124.758 106V97.2656H126.812V106H124.758ZM125.789 96.0391C125.461 96.0391 125.18 95.9297 124.945 95.7109C124.711 95.4922 124.594 95.2292 124.594 94.9219C124.594 94.6094 124.711 94.3438 124.945 94.125C125.18 93.9062 125.461 93.7969 125.789 93.7969C126.112 93.7969 126.391 93.9062 126.625 94.125C126.859 94.3438 126.977 94.6068 126.977 94.9141C126.977 95.2266 126.859 95.4922 126.625 95.7109C126.391 95.9297 126.112 96.0391 125.789 96.0391ZM130.391 100.891V106H128.336V97.2656H130.352V98.7578H130.453C130.651 98.2682 130.961 97.8802 131.383 97.5938C131.81 97.3021 132.352 97.1562 133.008 97.1562C133.612 97.1562 134.138 97.2839 134.586 97.5391C135.034 97.7943 135.38 98.1693 135.625 98.6641C135.875 99.1536 136 99.7474 136 100.445V106H133.945V100.766C133.945 100.182 133.794 99.7266 133.492 99.3984C133.19 99.0651 132.773 98.8984 132.242 98.8984C131.883 98.8984 131.562 98.9766 131.281 99.1328C131.005 99.2891 130.786 99.5156 130.625 99.8125C130.469 100.104 130.391 100.464 130.391 100.891ZM141.875 97.2656V98.8594H136.867V97.2656H141.875ZM138.094 95.1875H140.148V103.375C140.148 103.719 140.224 103.974 140.375 104.141C140.526 104.302 140.766 104.383 141.094 104.383C141.182 104.383 141.281 104.375 141.391 104.359C141.5 104.344 141.599 104.326 141.688 104.305L142.039 105.914C141.82 105.982 141.599 106.031 141.375 106.062C141.151 106.099 140.927 106.117 140.703 106.117C139.891 106.117 139.253 105.904 138.789 105.477C138.326 105.044 138.094 104.456 138.094 103.711V95.1875ZM146.719 106.172C145.865 106.172 145.125 105.984 144.5 105.609C143.875 105.234 143.391 104.708 143.047 104.031C142.708 103.354 142.539 102.568 142.539 101.672C142.539 100.771 142.708 99.9818 143.047 99.3047C143.391 98.6224 143.875 98.0938 144.5 97.7188C145.125 97.3438 145.865 97.1562 146.719 97.1562C147.573 97.1562 148.312 97.3438 148.938 97.7188C149.562 98.0938 150.047 98.6224 150.391 99.3047C150.734 99.9818 150.906 100.771 150.906 101.672C150.906 102.568 150.734 103.354 150.391 104.031C150.047 104.708 149.562 105.234 148.938 105.609C148.312 105.984 147.573 106.172 146.719 106.172ZM146.719 104.516C147.193 104.516 147.583 104.391 147.891 104.141C148.198 103.885 148.427 103.542 148.578 103.109C148.734 102.677 148.812 102.198 148.812 101.672C148.812 101.135 148.734 100.651 148.578 100.219C148.427 99.7865 148.198 99.4453 147.891 99.1953C147.583 98.9401 147.193 98.8125 146.719 98.8125C146.255 98.8125 145.867 98.9401 145.555 99.1953C145.242 99.4453 145.008 99.7865 144.852 100.219C144.701 100.651 144.625 101.135 144.625 101.672C144.625 102.198 144.701 102.677 144.852 103.109C145.008 103.542 145.242 103.885 145.555 104.141C145.867 104.391 146.255 104.516 146.719 104.516ZM157.469 100.891V106H155.414V94.3594H157.422V98.7578H157.531C157.734 98.263 158.049 97.8724 158.477 97.5859C158.904 97.2995 159.453 97.1562 160.125 97.1562C160.729 97.1562 161.255 97.2839 161.703 97.5391C162.156 97.7943 162.508 98.1667 162.758 98.6562C163.008 99.1458 163.133 99.7422 163.133 100.445V106H161.07V100.766C161.07 100.172 160.919 99.7135 160.617 99.3906C160.315 99.0625 159.893 98.8984 159.352 98.8984C158.987 98.8984 158.661 98.9766 158.375 99.1328C158.094 99.2891 157.872 99.5156 157.711 99.8125C157.549 100.104 157.469 100.464 157.469 100.891ZM167.164 106.18C166.607 106.18 166.107 106.081 165.664 105.883C165.221 105.68 164.872 105.383 164.617 104.992C164.362 104.602 164.234 104.12 164.234 103.547C164.234 103.057 164.326 102.651 164.508 102.328C164.69 102.005 164.938 101.747 165.25 101.555C165.568 101.362 165.924 101.216 166.32 101.117C166.716 101.013 167.125 100.94 167.547 100.898C168.062 100.841 168.479 100.792 168.797 100.75C169.115 100.708 169.344 100.641 169.484 100.547C169.63 100.453 169.703 100.307 169.703 100.109V100.07C169.703 99.6484 169.578 99.3203 169.328 99.0859C169.078 98.8516 168.714 98.7344 168.234 98.7344C167.729 98.7344 167.328 98.8438 167.031 99.0625C166.74 99.2812 166.542 99.5391 166.438 99.8359L164.523 99.5625C164.674 99.0312 164.924 98.5885 165.273 98.2344C165.622 97.875 166.047 97.6068 166.547 97.4297C167.052 97.2474 167.609 97.1562 168.219 97.1562C168.635 97.1562 169.052 97.2057 169.469 97.3047C169.885 97.3984 170.268 97.5599 170.617 97.7891C170.966 98.0182 171.245 98.3255 171.453 98.7109C171.661 99.0964 171.766 99.5781 171.766 100.156V106H169.789V104.797H169.727C169.602 105.036 169.424 105.263 169.195 105.477C168.971 105.685 168.69 105.854 168.352 105.984C168.018 106.115 167.622 106.18 167.164 106.18ZM167.688 104.664C168.104 104.664 168.464 104.583 168.766 104.422C169.068 104.255 169.302 104.036 169.469 103.766C169.635 103.49 169.719 103.19 169.719 102.867V101.844C169.651 101.896 169.542 101.945 169.391 101.992C169.24 102.034 169.068 102.073 168.875 102.109C168.682 102.146 168.492 102.177 168.305 102.203C168.122 102.229 167.964 102.25 167.828 102.266C167.521 102.307 167.245 102.378 167 102.477C166.76 102.57 166.57 102.701 166.43 102.867C166.289 103.034 166.219 103.25 166.219 103.516C166.219 103.896 166.357 104.182 166.633 104.375C166.909 104.568 167.26 104.664 167.688 104.664ZM175.344 100.891V106H173.289V97.2656H175.305V98.7578H175.406C175.604 98.2682 175.914 97.8802 176.336 97.5938C176.763 97.3021 177.305 97.1562 177.961 97.1562C178.565 97.1562 179.091 97.2839 179.539 97.5391C179.987 97.7943 180.333 98.1693 180.578 98.6641C180.828 99.1536 180.953 99.7474 180.953 100.445V106H178.898V100.766C178.898 100.182 178.747 99.7266 178.445 99.3984C178.143 99.0651 177.727 98.8984 177.195 98.8984C176.836 98.8984 176.516 98.9766 176.234 99.1328C175.958 99.2891 175.74 99.5156 175.578 99.8125C175.422 100.104 175.344 100.464 175.344 100.891ZM185.695 106.156C185.013 106.156 184.398 105.982 183.852 105.633C183.31 105.279 182.883 104.766 182.57 104.094C182.258 103.422 182.102 102.607 182.102 101.648C182.102 100.674 182.26 99.8542 182.578 99.1875C182.901 98.5208 183.333 98.0156 183.875 97.6719C184.417 97.3281 185.023 97.1562 185.695 97.1562C186.211 97.1562 186.633 97.2422 186.961 97.4141C187.289 97.5859 187.549 97.7943 187.742 98.0391C187.94 98.2786 188.091 98.5026 188.195 98.7109H188.281V94.3594H190.328V106H188.32V104.617H188.195C188.086 104.831 187.932 105.057 187.734 105.297C187.536 105.531 187.273 105.734 186.945 105.906C186.617 106.073 186.201 106.156 185.695 106.156ZM186.266 104.469C186.703 104.469 187.073 104.352 187.375 104.117C187.682 103.878 187.917 103.547 188.078 103.125C188.24 102.698 188.32 102.203 188.32 101.641C188.32 101.073 188.24 100.581 188.078 100.164C187.922 99.7422 187.69 99.4167 187.383 99.1875C187.081 98.9583 186.708 98.8438 186.266 98.8438C185.812 98.8438 185.432 98.9635 185.125 99.2031C184.818 99.4427 184.586 99.7734 184.43 100.195C184.279 100.617 184.203 101.099 184.203 101.641C184.203 102.182 184.281 102.667 184.438 103.094C184.594 103.521 184.823 103.857 185.125 104.102C185.432 104.346 185.812 104.469 186.266 104.469ZM198.742 99.5859L196.875 99.7812C196.797 99.4948 196.628 99.2422 196.367 99.0234C196.107 98.7995 195.74 98.6875 195.266 98.6875C194.839 98.6875 194.479 98.7812 194.188 98.9688C193.901 99.1562 193.758 99.3958 193.758 99.6875C193.758 99.9427 193.852 100.154 194.039 100.32C194.232 100.482 194.549 100.612 194.992 100.711L196.484 101.023C197.302 101.195 197.914 101.477 198.32 101.867C198.727 102.258 198.93 102.763 198.93 103.383C198.93 103.93 198.771 104.414 198.453 104.836C198.135 105.258 197.695 105.586 197.133 105.82C196.576 106.055 195.932 106.172 195.203 106.172C194.135 106.172 193.276 105.948 192.625 105.5C191.979 105.047 191.591 104.419 191.461 103.617L193.469 103.43C193.557 103.82 193.75 104.117 194.047 104.32C194.349 104.518 194.734 104.617 195.203 104.617C195.693 104.617 196.086 104.518 196.383 104.32C196.68 104.117 196.828 103.87 196.828 103.578C196.828 103.089 196.438 102.755 195.656 102.578L194.164 102.266C193.326 102.083 192.706 101.789 192.305 101.383C191.904 100.971 191.703 100.448 191.703 99.8125C191.703 99.2708 191.852 98.8021 192.148 98.4062C192.445 98.0104 192.859 97.7031 193.391 97.4844C193.922 97.2656 194.536 97.1562 195.234 97.1562C196.26 97.1562 197.065 97.3776 197.648 97.8203C198.237 98.2578 198.602 98.8464 198.742 99.5859ZM205.32 100.312V102H200.086V100.312H205.32ZM210.688 106.172C209.833 106.172 209.094 105.984 208.469 105.609C207.844 105.234 207.359 104.708 207.016 104.031C206.677 103.354 206.508 102.568 206.508 101.672C206.508 100.771 206.677 99.9818 207.016 99.3047C207.359 98.6224 207.844 98.0938 208.469 97.7188C209.094 97.3438 209.833 97.1562 210.688 97.1562C211.542 97.1562 212.281 97.3438 212.906 97.7188C213.531 98.0938 214.016 98.6224 214.359 99.3047C214.703 99.9818 214.875 100.771 214.875 101.672C214.875 102.568 214.703 103.354 214.359 104.031C214.016 104.708 213.531 105.234 212.906 105.609C212.281 105.984 211.542 106.172 210.688 106.172ZM210.688 104.516C211.161 104.516 211.552 104.391 211.859 104.141C212.167 103.885 212.396 103.542 212.547 103.109C212.703 102.677 212.781 102.198 212.781 101.672C212.781 101.135 212.703 100.651 212.547 100.219C212.396 99.7865 212.167 99.4453 211.859 99.1953C211.552 98.9401 211.161 98.8125 210.688 98.8125C210.224 98.8125 209.836 98.9401 209.523 99.1953C209.211 99.4453 208.977 99.7865 208.82 100.219C208.669 100.651 208.594 101.135 208.594 101.672C208.594 102.198 208.669 102.677 208.82 103.109C208.977 103.542 209.211 103.885 209.523 104.141C209.836 104.391 210.224 104.516 210.688 104.516ZM218.062 100.891V106H216.008V97.2656H218.023V98.7578H218.125C218.323 98.2682 218.633 97.8802 219.055 97.5938C219.482 97.3021 220.023 97.1562 220.68 97.1562C221.284 97.1562 221.81 97.2839 222.258 97.5391C222.706 97.7943 223.052 98.1693 223.297 98.6641C223.547 99.1536 223.672 99.7474 223.672 100.445V106H221.617V100.766C221.617 100.182 221.466 99.7266 221.164 99.3984C220.862 99.0651 220.445 98.8984 219.914 98.8984C219.555 98.8984 219.234 98.9766 218.953 99.1328C218.677 99.2891 218.458 99.5156 218.297 99.8125C218.141 100.104 218.062 100.464 218.062 100.891ZM231.789 106.156C231.107 106.156 230.492 105.982 229.945 105.633C229.404 105.279 228.977 104.766 228.664 104.094C228.352 103.422 228.195 102.607 228.195 101.648C228.195 100.674 228.354 99.8542 228.672 99.1875C228.995 98.5208 229.427 98.0156 229.969 97.6719C230.51 97.3281 231.117 97.1562 231.789 97.1562C232.305 97.1562 232.727 97.2422 233.055 97.4141C233.383 97.5859 233.643 97.7943 233.836 98.0391C234.034 98.2786 234.185 98.5026 234.289 98.7109H234.375V94.3594H236.422V106H234.414V104.617H234.289C234.18 104.831 234.026 105.057 233.828 105.297C233.63 105.531 233.367 105.734 233.039 105.906C232.711 106.073 232.294 106.156 231.789 106.156ZM232.359 104.469C232.797 104.469 233.167 104.352 233.469 104.117C233.776 103.878 234.01 103.547 234.172 103.125C234.333 102.698 234.414 102.203 234.414 101.641C234.414 101.073 234.333 100.581 234.172 100.164C234.016 99.7422 233.784 99.4167 233.477 99.1875C233.174 98.9583 232.802 98.8438 232.359 98.8438C231.906 98.8438 231.526 98.9635 231.219 99.2031C230.911 99.4427 230.68 99.7734 230.523 100.195C230.372 100.617 230.297 101.099 230.297 101.641C230.297 102.182 230.375 102.667 230.531 103.094C230.688 103.521 230.917 103.857 231.219 104.102C231.526 104.346 231.906 104.469 232.359 104.469ZM241.812 106.172C240.938 106.172 240.182 105.99 239.547 105.625C238.911 105.255 238.422 104.734 238.078 104.062C237.74 103.391 237.57 102.599 237.57 101.688C237.57 100.786 237.74 99.9974 238.078 99.3203C238.417 98.638 238.893 98.1068 239.508 97.7266C240.122 97.3464 240.846 97.1562 241.68 97.1562C242.216 97.1562 242.724 97.2422 243.203 97.4141C243.688 97.5859 244.115 97.8516 244.484 98.2109C244.859 98.5703 245.154 99.0286 245.367 99.5859C245.581 100.138 245.688 100.797 245.688 101.562V102.203H238.531V100.82H244.664L243.703 101.227C243.703 100.732 243.628 100.302 243.477 99.9375C243.326 99.5677 243.102 99.2786 242.805 99.0703C242.508 98.862 242.138 98.7578 241.695 98.7578C241.253 98.7578 240.875 98.862 240.562 99.0703C240.25 99.2786 240.013 99.5599 239.852 99.9141C239.69 100.263 239.609 100.654 239.609 101.086V102.047C239.609 102.578 239.701 103.034 239.883 103.414C240.07 103.789 240.331 104.076 240.664 104.273C241.003 104.471 241.396 104.57 241.844 104.57C242.135 104.57 242.401 104.529 242.641 104.445C242.885 104.362 243.094 104.237 243.266 104.07C243.443 103.898 243.578 103.688 243.672 103.438L245.594 103.664C245.469 104.169 245.237 104.612 244.898 104.992C244.565 105.367 244.135 105.659 243.609 105.867C243.089 106.07 242.49 106.172 241.812 106.172ZM250.609 106.172C249.74 106.172 248.992 105.982 248.367 105.602C247.742 105.216 247.263 104.685 246.93 104.008C246.596 103.331 246.43 102.552 246.43 101.672C246.43 100.781 246.599 99.9974 246.938 99.3203C247.276 98.6432 247.758 98.1146 248.383 97.7344C249.008 97.349 249.745 97.1562 250.594 97.1562C251.307 97.1562 251.938 97.2865 252.484 97.5469C253.031 97.8073 253.466 98.1745 253.789 98.6484C254.117 99.1172 254.305 99.6667 254.352 100.297H252.383C252.331 100.016 252.229 99.763 252.078 99.5391C251.927 99.3151 251.729 99.138 251.484 99.0078C251.245 98.8776 250.958 98.8125 250.625 98.8125C250.203 98.8125 249.833 98.9271 249.516 99.1562C249.203 99.3802 248.958 99.7031 248.781 100.125C248.604 100.547 248.516 101.052 248.516 101.641C248.516 102.234 248.602 102.747 248.773 103.18C248.945 103.607 249.19 103.938 249.508 104.172C249.826 104.401 250.198 104.516 250.625 104.516C251.078 104.516 251.461 104.383 251.773 104.117C252.091 103.852 252.294 103.484 252.383 103.016H254.352C254.305 103.635 254.122 104.182 253.805 104.656C253.487 105.13 253.057 105.503 252.516 105.773C251.974 106.039 251.339 106.172 250.609 106.172ZM255.461 106V97.2656H257.516V106H255.461ZM256.492 96.0391C256.164 96.0391 255.883 95.9297 255.648 95.7109C255.414 95.4922 255.297 95.2292 255.297 94.9219C255.297 94.6094 255.414 94.3438 255.648 94.125C255.883 93.9062 256.164 93.7969 256.492 93.7969C256.815 93.7969 257.094 93.9062 257.328 94.125C257.562 94.3438 257.68 94.6068 257.68 94.9141C257.68 95.2266 257.562 95.4922 257.328 95.7109C257.094 95.9297 256.815 96.0391 256.492 96.0391ZM265.93 99.5859L264.062 99.7812C263.984 99.4948 263.815 99.2422 263.555 99.0234C263.294 98.7995 262.927 98.6875 262.453 98.6875C262.026 98.6875 261.667 98.7812 261.375 98.9688C261.089 99.1562 260.945 99.3958 260.945 99.6875C260.945 99.9427 261.039 100.154 261.227 100.32C261.419 100.482 261.737 100.612 262.18 100.711L263.672 101.023C264.49 101.195 265.102 101.477 265.508 101.867C265.914 102.258 266.117 102.763 266.117 103.383C266.117 103.93 265.958 104.414 265.641 104.836C265.323 105.258 264.883 105.586 264.32 105.82C263.763 106.055 263.12 106.172 262.391 106.172C261.323 106.172 260.464 105.948 259.812 105.5C259.167 105.047 258.779 104.419 258.648 103.617L260.656 103.43C260.745 103.82 260.938 104.117 261.234 104.32C261.536 104.518 261.922 104.617 262.391 104.617C262.88 104.617 263.273 104.518 263.57 104.32C263.867 104.117 264.016 103.87 264.016 103.578C264.016 103.089 263.625 102.755 262.844 102.578L261.352 102.266C260.513 102.083 259.893 101.789 259.492 101.383C259.091 100.971 258.891 100.448 258.891 99.8125C258.891 99.2708 259.039 98.8021 259.336 98.4062C259.633 98.0104 260.047 97.7031 260.578 97.4844C261.109 97.2656 261.724 97.1562 262.422 97.1562C263.448 97.1562 264.253 97.3776 264.836 97.8203C265.424 98.2578 265.789 98.8464 265.93 99.5859ZM267.227 106V97.2656H269.281V106H267.227ZM268.258 96.0391C267.93 96.0391 267.648 95.9297 267.414 95.7109C267.18 95.4922 267.062 95.2292 267.062 94.9219C267.062 94.6094 267.18 94.3438 267.414 94.125C267.648 93.9062 267.93 93.7969 268.258 93.7969C268.581 93.7969 268.859 93.9062 269.094 94.125C269.328 94.3438 269.445 94.6068 269.445 94.9141C269.445 95.2266 269.328 95.4922 269.094 95.7109C268.859 95.9297 268.581 96.0391 268.258 96.0391ZM274.609 106.172C273.755 106.172 273.016 105.984 272.391 105.609C271.766 105.234 271.281 104.708 270.938 104.031C270.599 103.354 270.43 102.568 270.43 101.672C270.43 100.771 270.599 99.9818 270.938 99.3047C271.281 98.6224 271.766 98.0938 272.391 97.7188C273.016 97.3438 273.755 97.1562 274.609 97.1562C275.464 97.1562 276.203 97.3438 276.828 97.7188C277.453 98.0938 277.938 98.6224 278.281 99.3047C278.625 99.9818 278.797 100.771 278.797 101.672C278.797 102.568 278.625 103.354 278.281 104.031C277.938 104.708 277.453 105.234 276.828 105.609C276.203 105.984 275.464 106.172 274.609 106.172ZM274.609 104.516C275.083 104.516 275.474 104.391 275.781 104.141C276.089 103.885 276.318 103.542 276.469 103.109C276.625 102.677 276.703 102.198 276.703 101.672C276.703 101.135 276.625 100.651 276.469 100.219C276.318 99.7865 276.089 99.4453 275.781 99.1953C275.474 98.9401 275.083 98.8125 274.609 98.8125C274.146 98.8125 273.758 98.9401 273.445 99.1953C273.133 99.4453 272.898 99.7865 272.742 100.219C272.591 100.651 272.516 101.135 272.516 101.672C272.516 102.198 272.591 102.677 272.742 103.109C272.898 103.542 273.133 103.885 273.445 104.141C273.758 104.391 274.146 104.516 274.609 104.516ZM281.984 100.891V106H279.93V97.2656H281.945V98.7578H282.047C282.245 98.2682 282.555 97.8802 282.977 97.5938C283.404 97.3021 283.945 97.1562 284.602 97.1562C285.206 97.1562 285.732 97.2839 286.18 97.5391C286.628 97.7943 286.974 98.1693 287.219 98.6641C287.469 99.1536 287.594 99.7474 287.594 100.445V106H285.539V100.766C285.539 100.182 285.388 99.7266 285.086 99.3984C284.784 99.0651 284.367 98.8984 283.836 98.8984C283.477 98.8984 283.156 98.9766 282.875 99.1328C282.599 99.2891 282.38 99.5156 282.219 99.8125C282.062 100.104 281.984 100.464 281.984 100.891ZM296.008 99.5859L294.141 99.7812C294.062 99.4948 293.893 99.2422 293.633 99.0234C293.372 98.7995 293.005 98.6875 292.531 98.6875C292.104 98.6875 291.745 98.7812 291.453 98.9688C291.167 99.1562 291.023 99.3958 291.023 99.6875C291.023 99.9427 291.117 100.154 291.305 100.32C291.497 100.482 291.815 100.612 292.258 100.711L293.75 101.023C294.568 101.195 295.18 101.477 295.586 101.867C295.992 102.258 296.195 102.763 296.195 103.383C296.195 103.93 296.036 104.414 295.719 104.836C295.401 105.258 294.961 105.586 294.398 105.82C293.841 106.055 293.198 106.172 292.469 106.172C291.401 106.172 290.542 105.948 289.891 105.5C289.245 105.047 288.857 104.419 288.727 103.617L290.734 103.43C290.823 103.82 291.016 104.117 291.312 104.32C291.615 104.518 292 104.617 292.469 104.617C292.958 104.617 293.352 104.518 293.648 104.32C293.945 104.117 294.094 103.87 294.094 103.578C294.094 103.089 293.703 102.755 292.922 102.578L291.43 102.266C290.591 102.083 289.971 101.789 289.57 101.383C289.169 100.971 288.969 100.448 288.969 99.8125C288.969 99.2708 289.117 98.8021 289.414 98.4062C289.711 98.0104 290.125 97.7031 290.656 97.4844C291.188 97.2656 291.802 97.1562 292.5 97.1562C293.526 97.1562 294.331 97.3776 294.914 97.8203C295.503 98.2578 295.867 98.8464 296.008 99.5859Z" fill="#121212" fill-opacity="0.6"/>
<path d="M368 92.1667L372.167 88L368 83.8333" stroke="#121212" stroke-opacity="0.6" stroke-width="1.5" stroke-linecap="round" stroke-linejoin="round"/>
<path d="M373.833 92.1667L378 88L373.833 83.8333" stroke="#121212" stroke-opacity="0.6" stroke-width="1.5" stroke-linecap="round" stroke-linejoin="round"/>
</g>
<defs>
<filter id="filter0_d_4539_3397" x="0" y="0" width="455" height="184" filterUnits="userSpaceOnUse" color-interpolation-filters="sRGB">
<feFlood flood-opacity="0" result="BackgroundImageFix"/>
<feColorMatrix in="SourceAlpha" type="matrix" values="0 0 0 0 0 0 0 0 0 0 0 0 0 0 0 0 0 0 127 0" result="hardAlpha"/>
<feOffset dy="4"/>
<feGaussianBlur stdDeviation="28"/>
<feComposite in2="hardAlpha" operator="out"/>
<feColorMatrix type="matrix" values="0 0 0 0 0.323092 0 0 0 0 0.323092 0 0 0 0 0.323092 0 0 0 0.08 0"/>
<feBlend mode="normal" in2="BackgroundImageFix" result="effect1_dropShadow_4539_3397"/>
<feBlend mode="normal" in="SourceGraphic" in2="effect1_dropShadow_4539_3397" result="shape"/>
</filter>
</defs>
</svg>
